<?xml version="1.0" encoding="us-ascii" standalone="no"?><svg xmlns="http://www.w3.org/2000/svg" xmlns:xlink="http://www.w3.org/1999/xlink" contentStyleType="text/css" height="815px" preserveAspectRatio="none" style="width:1394px;height:815px;background:#FFFFFF;" version="1.1" viewBox="0 0 1394 815" width="1394px" zoomAndPan="magnify"><defs/><g><!--class Geolocation--><g id="elem_Geolocation"><rect codeLine="7" fill="#F1F1F1" height="85.2422" id="Geolocation" rx="2.5" ry="2.5" style="stroke:#181818;stroke-width:0.5;" width="108" x="926.5" y="723"/><ellipse cx="941.5" cy="739" fill="#ADD1B2" rx="11" ry="11" style="stroke:#181818;stroke-width:1.0;"/><path d="M944.2656,734.875 Q944.4219,734.6563 944.6094,734.5469 Q944.7969,734.4375 945.0156,734.4375 Q945.3906,734.4375 945.625,734.7031 Q945.8594,734.9531 945.8594,735.5625 L945.8594,737.0156 Q945.8594,737.625 945.625,737.8906 Q945.3906,738.1563 945.0156,738.1563 Q944.6719,738.1563 944.4688,737.9531 Q944.2656,737.7656 944.1563,737.25 Q944.1094,736.8906 943.9219,736.7031 Q943.5938,736.3281 942.9844,736.1094 Q942.375,735.8906 941.75,735.8906 Q940.9844,735.8906 940.3438,736.2188 Q939.7188,736.5469 939.2188,737.2969 Q938.7344,738.0469 938.7344,739.0781 L938.7344,740.1719 Q938.7344,741.4063 939.625,742.2344 Q940.5156,743.0469 942.1094,743.0469 Q943.0469,743.0469 943.7031,742.7969 Q944.0938,742.6406 944.5156,742.2031 Q944.7813,741.9375 944.9219,741.8594 Q945.0781,741.7813 945.2813,741.7813 Q945.6094,741.7813 945.8594,742.0469 Q946.125,742.2969 946.125,742.6406 Q946.125,742.9844 945.7813,743.3906 Q945.2813,743.9688 944.4844,744.2969 Q943.4063,744.75 942.1094,744.75 Q940.5938,744.75 939.3906,744.125 Q938.4063,743.625 937.7188,742.5625 Q937.0313,741.4844 937.0313,740.2031 L937.0313,739.0469 Q937.0313,737.7188 937.6406,736.5781 Q938.2656,735.4219 939.3594,734.8125 Q940.4531,734.1875 941.6875,734.1875 Q942.4219,734.1875 943.0625,734.3594 Q943.7188,734.5156 944.2656,734.875 Z " fill="#000000"/><text fill="#000000" font-family="sans-serif" font-size="14" lengthAdjust="spacing" textLength="76" x="955.5" y="744.7969">Geolocation</text><line style="stroke:#181818;stroke-width:0.5;" x1="927.5" x2="1033.5" y1="755" y2="755"/><text fill="#000000" font-family="sans-serif" font-size="14" lengthAdjust="spacing" textLength="72" x="932.5" y="774.1074">String code</text><text fill="#000000" font-family="sans-serif" font-size="14" lengthAdjust="spacing" textLength="76" x="932.5" y="792.7285">String name</text><line style="stroke:#181818;stroke-width:0.5;" x1="927.5" x2="1033.5" y1="800.2422" y2="800.2422"/></g><!--class ResearchArea--><g id="elem_ResearchArea"><rect codeLine="14" fill="#F1F1F1" height="85.2422" id="ResearchArea" rx="2.5" ry="2.5" style="stroke:#181818;stroke-width:0.5;" width="123" x="253" y="540.5"/><ellipse cx="268" cy="556.5" fill="#ADD1B2" rx="11" ry="11" style="stroke:#181818;stroke-width:1.0;"/><path d="M270.7656,552.375 Q270.9219,552.1563 271.1094,552.0469 Q271.2969,551.9375 271.5156,551.9375 Q271.8906,551.9375 272.125,552.2031 Q272.3594,552.4531 272.3594,553.0625 L272.3594,554.5156 Q272.3594,555.125 272.125,555.3906 Q271.8906,555.6563 271.5156,555.6563 Q271.1719,555.6563 270.9688,555.4531 Q270.7656,555.2656 270.6563,554.75 Q270.6094,554.3906 270.4219,554.2031 Q270.0938,553.8281 269.4844,553.6094 Q268.875,553.3906 268.25,553.3906 Q267.4844,553.3906 266.8438,553.7188 Q266.2188,554.0469 265.7188,554.7969 Q265.2344,555.5469 265.2344,556.5781 L265.2344,557.6719 Q265.2344,558.9063 266.125,559.7344 Q267.0156,560.5469 268.6094,560.5469 Q269.5469,560.5469 270.2031,560.2969 Q270.5938,560.1406 271.0156,559.7031 Q271.2813,559.4375 271.4219,559.3594 Q271.5781,559.2813 271.7813,559.2813 Q272.1094,559.2813 272.3594,559.5469 Q272.625,559.7969 272.625,560.1406 Q272.625,560.4844 272.2813,560.8906 Q271.7813,561.4688 270.9844,561.7969 Q269.9063,562.25 268.6094,562.25 Q267.0938,562.25 265.8906,561.625 Q264.9063,561.125 264.2188,560.0625 Q263.5313,558.9844 263.5313,557.7031 L263.5313,556.5469 Q263.5313,555.2188 264.1406,554.0781 Q264.7656,552.9219 265.8594,552.3125 Q266.9531,551.6875 268.1875,551.6875 Q268.9219,551.6875 269.5625,551.8594 Q270.2188,552.0156 270.7656,552.375 Z " fill="#000000"/><text fill="#000000" font-family="sans-serif" font-size="14" lengthAdjust="spacing" textLength="91" x="282" y="562.2969">ResearchArea</text><line style="stroke:#181818;stroke-width:0.5;" x1="254" x2="375" y1="572.5" y2="572.5"/><text fill="#000000" font-family="sans-serif" font-size="14" lengthAdjust="spacing" textLength="76" x="259" y="591.6074">String name</text><text fill="#000000" font-family="sans-serif" font-size="14" lengthAdjust="spacing" textLength="110" x="259" y="610.2285">String description</text><line style="stroke:#181818;stroke-width:0.5;" x1="254" x2="375" y1="617.7422" y2="617.7422"/></g><!--class Person--><g id="elem_Person"><rect codeLine="22" fill="#F1F1F1" height="159.7266" id="Person" rx="2.5" ry="2.5" style="stroke:#181818;stroke-width:0.5;" width="139" x="436" y="283"/><ellipse cx="478.9" cy="299" fill="#ADD1B2" rx="11" ry="11" style="stroke:#181818;stroke-width:1.0;"/><path d="M481.6656,294.875 Q481.8219,294.6563 482.0094,294.5469 Q482.1969,294.4375 482.4156,294.4375 Q482.7906,294.4375 483.025,294.7031 Q483.2594,294.9531 483.2594,295.5625 L483.2594,297.0156 Q483.2594,297.625 483.025,297.8906 Q482.7906,298.1563 482.4156,298.1563 Q482.0719,298.1563 481.8688,297.9531 Q481.6656,297.7656 481.5563,297.25 Q481.5094,296.8906 481.3219,296.7031 Q480.9938,296.3281 480.3844,296.1094 Q479.775,295.8906 479.15,295.8906 Q478.3844,295.8906 477.7438,296.2188 Q477.1188,296.5469 476.6188,297.2969 Q476.1344,298.0469 476.1344,299.0781 L476.1344,300.1719 Q476.1344,301.4063 477.025,302.2344 Q477.9156,303.0469 479.5094,303.0469 Q480.4469,303.0469 481.1031,302.7969 Q481.4938,302.6406 481.9156,302.2031 Q482.1813,301.9375 482.3219,301.8594 Q482.4781,301.7813 482.6813,301.7813 Q483.0094,301.7813 483.2594,302.0469 Q483.525,302.2969 483.525,302.6406 Q483.525,302.9844 483.1813,303.3906 Q482.6813,303.9688 481.8844,304.2969 Q480.8063,304.75 479.5094,304.75 Q477.9938,304.75 476.7906,304.125 Q475.8063,303.625 475.1188,302.5625 Q474.4313,301.4844 474.4313,300.2031 L474.4313,299.0469 Q474.4313,297.7188 475.0406,296.5781 Q475.6656,295.4219 476.7594,294.8125 Q477.8531,294.1875 479.0875,294.1875 Q479.8219,294.1875 480.4625,294.3594 Q481.1188,294.5156 481.6656,294.875 Z " fill="#000000"/><text fill="#000000" font-family="sans-serif" font-size="14" lengthAdjust="spacing" textLength="45" x="499.1" y="304.7969">Person</text><line style="stroke:#181818;stroke-width:0.5;" x1="437" x2="574" y1="315" y2="315"/><text fill="#000000" font-family="sans-serif" font-size="14" lengthAdjust="spacing" textLength="99" x="442" y="334.1074">String firstname</text><text fill="#000000" font-family="sans-serif" font-size="14" lengthAdjust="spacing" textLength="110" x="442" y="352.7285">String otherName</text><text fill="#000000" font-family="sans-serif" font-size="14" lengthAdjust="spacing" textLength="98" x="442" y="371.3496">String lastname</text><text fill="#000000" font-family="sans-serif" font-size="14" lengthAdjust="spacing" textLength="127" x="442" y="389.9707">String preferredTitle</text><text fill="#000000" font-family="sans-serif" font-size="14" lengthAdjust="spacing" textLength="68" x="442" y="408.5918">String type</text><text fill="#000000" font-family="sans-serif" font-size="14" lengthAdjust="spacing" textLength="72" x="442" y="427.2129">String orcid</text><line style="stroke:#181818;stroke-width:0.5;" x1="437" x2="574" y1="434.7266" y2="434.7266"/></g><!--class Position--><g id="elem_Position"><rect codeLine="52" fill="#F1F1F1" height="122.4844" id="Position" rx="2.5" ry="2.5" style="stroke:#181818;stroke-width:0.5;" width="118" x="418.5" y="44.5"/><ellipse cx="449.7" cy="60.5" fill="#ADD1B2" rx="11" ry="11" style="stroke:#181818;stroke-width:1.0;"/><path d="M452.4656,56.375 Q452.6219,56.1563 452.8094,56.0469 Q452.9969,55.9375 453.2156,55.9375 Q453.5906,55.9375 453.825,56.2031 Q454.0594,56.4531 454.0594,57.0625 L454.0594,58.5156 Q454.0594,59.125 453.825,59.3906 Q453.5906,59.6563 453.2156,59.6563 Q452.8719,59.6563 452.6688,59.4531 Q452.4656,59.2656 452.3563,58.75 Q452.3094,58.3906 452.1219,58.2031 Q451.7938,57.8281 451.1844,57.6094 Q450.575,57.3906 449.95,57.3906 Q449.1844,57.3906 448.5438,57.7188 Q447.9188,58.0469 447.4188,58.7969 Q446.9344,59.5469 446.9344,60.5781 L446.9344,61.6719 Q446.9344,62.9063 447.825,63.7344 Q448.7156,64.5469 450.3094,64.5469 Q451.2469,64.5469 451.9031,64.2969 Q452.2938,64.1406 452.7156,63.7031 Q452.9813,63.4375 453.1219,63.3594 Q453.2781,63.2813 453.4813,63.2813 Q453.8094,63.2813 454.0594,63.5469 Q454.325,63.7969 454.325,64.1406 Q454.325,64.4844 453.9813,64.8906 Q453.4813,65.4688 452.6844,65.7969 Q451.6063,66.25 450.3094,66.25 Q448.7938,66.25 447.5906,65.625 Q446.6063,65.125 445.9188,64.0625 Q445.2313,62.9844 445.2313,61.7031 L445.2313,60.5469 Q445.2313,59.2188 445.8406,58.0781 Q446.4656,56.9219 447.5594,56.3125 Q448.6531,55.6875 449.8875,55.6875 Q450.6219,55.6875 451.2625,55.8594 Q451.9188,56.0156 452.4656,56.375 Z " fill="#000000"/><text fill="#000000" font-family="sans-serif" font-size="14" lengthAdjust="spacing" textLength="50" x="467.3" y="66.2969">Position</text><line style="stroke:#181818;stroke-width:0.5;" x1="419.5" x2="535.5" y1="76.5" y2="76.5"/><text fill="#000000" font-family="sans-serif" font-size="14" lengthAdjust="spacing" textLength="63" x="424.5" y="95.6074">String title</text><text fill="#000000" font-family="sans-serif" font-size="14" lengthAdjust="spacing" textLength="68" x="424.5" y="114.2285">String type</text><text fill="#000000" font-family="sans-serif" font-size="14" lengthAdjust="spacing" textLength="106" x="424.5" y="132.8496">Integer startYear</text><text fill="#000000" font-family="sans-serif" font-size="14" lengthAdjust="spacing" textLength="102" x="424.5" y="151.4707">Integer endYear</text><line style="stroke:#181818;stroke-width:0.5;" x1="419.5" x2="535.5" y1="158.9844" y2="158.9844"/></g><!--class OrganisationUnit--><g id="elem_OrganisationUnit"><rect codeLine="75" fill="#F1F1F1" height="122.4844" id="OrganisationUnit" rx="2.5" ry="2.5" style="stroke:#181818;stroke-width:0.5;" width="137" x="912" y="522"/><ellipse cx="927" cy="538" fill="#ADD1B2" rx="11" ry="11" style="stroke:#181818;stroke-width:1.0;"/><path d="M929.7656,533.875 Q929.9219,533.6563 930.1094,533.5469 Q930.2969,533.4375 930.5156,533.4375 Q930.8906,533.4375 931.125,533.7031 Q931.3594,533.9531 931.3594,534.5625 L931.3594,536.0156 Q931.3594,536.625 931.125,536.8906 Q930.8906,537.1563 930.5156,537.1563 Q930.1719,537.1563 929.9688,536.9531 Q929.7656,536.7656 929.6563,536.25 Q929.6094,535.8906 929.4219,535.7031 Q929.0938,535.3281 928.4844,535.1094 Q927.875,534.8906 927.25,534.8906 Q926.4844,534.8906 925.8438,535.2188 Q925.2188,535.5469 924.7188,536.2969 Q924.2344,537.0469 924.2344,538.0781 L924.2344,539.1719 Q924.2344,540.4063 925.125,541.2344 Q926.0156,542.0469 927.6094,542.0469 Q928.5469,542.0469 929.2031,541.7969 Q929.5938,541.6406 930.0156,541.2031 Q930.2813,540.9375 930.4219,540.8594 Q930.5781,540.7813 930.7813,540.7813 Q931.1094,540.7813 931.3594,541.0469 Q931.625,541.2969 931.625,541.6406 Q931.625,541.9844 931.2813,542.3906 Q930.7813,542.9688 929.9844,543.2969 Q928.9063,543.75 927.6094,543.75 Q926.0938,543.75 924.8906,543.125 Q923.9063,542.625 923.2188,541.5625 Q922.5313,540.4844 922.5313,539.2031 L922.5313,538.0469 Q922.5313,536.7188 923.1406,535.5781 Q923.7656,534.4219 924.8594,533.8125 Q925.9531,533.1875 927.1875,533.1875 Q927.9219,533.1875 928.5625,533.3594 Q929.2188,533.5156 929.7656,533.875 Z " fill="#000000"/><text fill="#000000" font-family="sans-serif" font-size="14" lengthAdjust="spacing" textLength="105" x="941" y="543.7969">OrganisationUnit</text><line style="stroke:#181818;stroke-width:0.5;" x1="913" x2="1048" y1="554" y2="554"/><text fill="#000000" font-family="sans-serif" font-size="14" lengthAdjust="spacing" textLength="76" x="918" y="573.1074">String name</text><text fill="#000000" font-family="sans-serif" font-size="14" lengthAdjust="spacing" textLength="119" x="918" y="591.7285">String abbreviation</text><text fill="#000000" font-family="sans-serif" font-size="14" lengthAdjust="spacing" textLength="68" x="918" y="610.3496">String type</text><text fill="#000000" font-family="sans-serif" font-size="14" lengthAdjust="spacing" textLength="59" x="918" y="628.9707">String ror</text><line style="stroke:#181818;stroke-width:0.5;" x1="913" x2="1048" y1="636.4844" y2="636.4844"/></g><!--class Document--><g id="elem_Document"><rect codeLine="96" fill="#F1F1F1" height="196.9688" id="Document" rx="2.5" ry="2.5" style="stroke:#181818;stroke-width:0.5;" width="158" x="816.5" y="7"/><ellipse cx="859.4" cy="23" fill="#ADD1B2" rx="11" ry="11" style="stroke:#181818;stroke-width:1.0;"/><path d="M862.1656,18.875 Q862.3219,18.6563 862.5094,18.5469 Q862.6969,18.4375 862.9156,18.4375 Q863.2906,18.4375 863.525,18.7031 Q863.7594,18.9531 863.7594,19.5625 L863.7594,21.0156 Q863.7594,21.625 863.525,21.8906 Q863.2906,22.1563 862.9156,22.1563 Q862.5719,22.1563 862.3688,21.9531 Q862.1656,21.7656 862.0563,21.25 Q862.0094,20.8906 861.8219,20.7031 Q861.4938,20.3281 860.8844,20.1094 Q860.275,19.8906 859.65,19.8906 Q858.8844,19.8906 858.2438,20.2188 Q857.6188,20.5469 857.1188,21.2969 Q856.6344,22.0469 856.6344,23.0781 L856.6344,24.1719 Q856.6344,25.4063 857.525,26.2344 Q858.4156,27.0469 860.0094,27.0469 Q860.9469,27.0469 861.6031,26.7969 Q861.9938,26.6406 862.4156,26.2031 Q862.6813,25.9375 862.8219,25.8594 Q862.9781,25.7813 863.1813,25.7813 Q863.5094,25.7813 863.7594,26.0469 Q864.025,26.2969 864.025,26.6406 Q864.025,26.9844 863.6813,27.3906 Q863.1813,27.9688 862.3844,28.2969 Q861.3063,28.75 860.0094,28.75 Q858.4938,28.75 857.2906,28.125 Q856.3063,27.625 855.6188,26.5625 Q854.9313,25.4844 854.9313,24.2031 L854.9313,23.0469 Q854.9313,21.7188 855.5406,20.5781 Q856.1656,19.4219 857.2594,18.8125 Q858.3531,18.1875 859.5875,18.1875 Q860.3219,18.1875 860.9625,18.3594 Q861.6188,18.5156 862.1656,18.875 Z " fill="#000000"/><text fill="#000000" font-family="sans-serif" font-size="14" lengthAdjust="spacing" textLength="64" x="879.6" y="28.7969">Document</text><line style="stroke:#181818;stroke-width:0.5;" x1="817.5" x2="973.5" y1="39" y2="39"/><text fill="#000000" font-family="sans-serif" font-size="14" lengthAdjust="spacing" textLength="63" x="822.5" y="58.1074">String title</text><text fill="#000000" font-family="sans-serif" font-size="14" lengthAdjust="spacing" textLength="146" x="822.5" y="76.7285">Integer publicationYear</text><text fill="#000000" font-family="sans-serif" font-size="14" lengthAdjust="spacing" textLength="60" x="822.5" y="95.3496">String doi</text><text fill="#000000" font-family="sans-serif" font-size="14" lengthAdjust="spacing" textLength="67" x="822.5" y="113.9707">String isbn</text><text fill="#000000" font-family="sans-serif" font-size="14" lengthAdjust="spacing" textLength="103" x="822.5" y="132.5918">String pageStart</text><text fill="#000000" font-family="sans-serif" font-size="14" lengthAdjust="spacing" textLength="98" x="822.5" y="151.2129">String pageEnd</text><text fill="#000000" font-family="sans-serif" font-size="14" lengthAdjust="spacing" textLength="86" x="822.5" y="169.834">String volume</text><text fill="#000000" font-family="sans-serif" font-size="14" lengthAdjust="spacing" textLength="74" x="822.5" y="188.4551">String issue</text><line style="stroke:#181818;stroke-width:0.5;" x1="817.5" x2="973.5" y1="195.9688" y2="195.9688"/></g><!--class Authorship--><g id="elem_Authorship"><rect codeLine="112" fill="#F1F1F1" height="103.8633" id="Authorship" rx="2.5" ry="2.5" style="stroke:#181818;stroke-width:0.5;" width="201" x="470" y="531"/><ellipse cx="532.25" cy="547" fill="#ADD1B2" rx="11" ry="11" style="stroke:#181818;stroke-width:1.0;"/><path d="M535.0156,542.875 Q535.1719,542.6563 535.3594,542.5469 Q535.5469,542.4375 535.7656,542.4375 Q536.1406,542.4375 536.375,542.7031 Q536.6094,542.9531 536.6094,543.5625 L536.6094,545.0156 Q536.6094,545.625 536.375,545.8906 Q536.1406,546.1563 535.7656,546.1563 Q535.4219,546.1563 535.2188,545.9531 Q535.0156,545.7656 534.9063,545.25 Q534.8594,544.8906 534.6719,544.7031 Q534.3438,544.3281 533.7344,544.1094 Q533.125,543.8906 532.5,543.8906 Q531.7344,543.8906 531.0938,544.2188 Q530.4688,544.5469 529.9688,545.2969 Q529.4844,546.0469 529.4844,547.0781 L529.4844,548.1719 Q529.4844,549.4063 530.375,550.2344 Q531.2656,551.0469 532.8594,551.0469 Q533.7969,551.0469 534.4531,550.7969 Q534.8438,550.6406 535.2656,550.2031 Q535.5313,549.9375 535.6719,549.8594 Q535.8281,549.7813 536.0313,549.7813 Q536.3594,549.7813 536.6094,550.0469 Q536.875,550.2969 536.875,550.6406 Q536.875,550.9844 536.5313,551.3906 Q536.0313,551.9688 535.2344,552.2969 Q534.1563,552.75 532.8594,552.75 Q531.3438,552.75 530.1406,552.125 Q529.1563,551.625 528.4688,550.5625 Q527.7813,549.4844 527.7813,548.2031 L527.7813,547.0469 Q527.7813,545.7188 528.3906,544.5781 Q529.0156,543.4219 530.1094,542.8125 Q531.2031,542.1875 532.4375,542.1875 Q533.1719,542.1875 533.8125,542.3594 Q534.4688,542.5156 535.0156,542.875 Z " fill="#000000"/><text fill="#000000" font-family="sans-serif" font-size="14" lengthAdjust="spacing" textLength="68" x="552.75" y="552.7969">Authorship</text><line style="stroke:#181818;stroke-width:0.5;" x1="471" x2="670" y1="563" y2="563"/><text fill="#000000" font-family="sans-serif" font-size="14" lengthAdjust="spacing" textLength="131" x="476" y="582.1074">Integer orderNumber</text><text fill="#000000" font-family="sans-serif" font-size="14" lengthAdjust="spacing" textLength="189" x="476" y="600.7285">Boolean correspondingAuthor</text><text fill="#000000" font-family="sans-serif" font-size="14" lengthAdjust="spacing" textLength="163" x="476" y="619.3496">String displayAuthorName</text><line style="stroke:#181818;stroke-width:0.5;" x1="471" x2="670" y1="626.8633" y2="626.8633"/></g><!--class Journal--><g id="elem_Journal"><rect codeLine="122" fill="#F1F1F1" height="103.8633" id="Journal" rx="2.5" ry="2.5" style="stroke:#181818;stroke-width:0.5;" width="131" x="847" y="311"/><ellipse cx="885.85" cy="327" fill="#ADD1B2" rx="11" ry="11" style="stroke:#181818;stroke-width:1.0;"/><path d="M888.6156,322.875 Q888.7719,322.6563 888.9594,322.5469 Q889.1469,322.4375 889.3656,322.4375 Q889.7406,322.4375 889.975,322.7031 Q890.2094,322.9531 890.2094,323.5625 L890.2094,325.0156 Q890.2094,325.625 889.975,325.8906 Q889.7406,326.1563 889.3656,326.1563 Q889.0219,326.1563 888.8188,325.9531 Q888.6156,325.7656 888.5063,325.25 Q888.4594,324.8906 888.2719,324.7031 Q887.9438,324.3281 887.3344,324.1094 Q886.725,323.8906 886.1,323.8906 Q885.3344,323.8906 884.6938,324.2188 Q884.0688,324.5469 883.5688,325.2969 Q883.0844,326.0469 883.0844,327.0781 L883.0844,328.1719 Q883.0844,329.4063 883.975,330.2344 Q884.8656,331.0469 886.4594,331.0469 Q887.3969,331.0469 888.0531,330.7969 Q888.4438,330.6406 888.8656,330.2031 Q889.1313,329.9375 889.2719,329.8594 Q889.4281,329.7813 889.6313,329.7813 Q889.9594,329.7813 890.2094,330.0469 Q890.475,330.2969 890.475,330.6406 Q890.475,330.9844 890.1313,331.3906 Q889.6313,331.9688 888.8344,332.2969 Q887.7563,332.75 886.4594,332.75 Q884.9438,332.75 883.7406,332.125 Q882.7563,331.625 882.0688,330.5625 Q881.3813,329.4844 881.3813,328.2031 L881.3813,327.0469 Q881.3813,325.7188 881.9906,324.5781 Q882.6156,323.4219 883.7094,322.8125 Q884.8031,322.1875 886.0375,322.1875 Q886.7719,322.1875 887.4125,322.3594 Q888.0688,322.5156 888.6156,322.875 Z " fill="#000000"/><text fill="#000000" font-family="sans-serif" font-size="14" lengthAdjust="spacing" textLength="46" x="905.15" y="332.7969">Journal</text><line style="stroke:#181818;stroke-width:0.5;" x1="848" x2="977" y1="343" y2="343"/><text fill="#000000" font-family="sans-serif" font-size="14" lengthAdjust="spacing" textLength="63" x="853" y="362.1074">String title</text><text fill="#000000" font-family="sans-serif" font-size="14" lengthAdjust="spacing" textLength="119" x="853" y="380.7285">String abbreviation</text><text fill="#000000" font-family="sans-serif" font-size="14" lengthAdjust="spacing" textLength="66" x="853" y="399.3496">String issn</text><line style="stroke:#181818;stroke-width:0.5;" x1="848" x2="977" y1="406.8633" y2="406.8633"/></g><!--class Event--><g id="elem_Event"><rect codeLine="133" fill="#F1F1F1" height="141.1055" id="Event" rx="2.5" ry="2.5" style="stroke:#181818;stroke-width:0.5;" width="237" x="7" y="292.5"/><ellipse cx="103.25" cy="308.5" fill="#ADD1B2" rx="11" ry="11" style="stroke:#181818;stroke-width:1.0;"/><path d="M106.0156,304.375 Q106.1719,304.1563 106.3594,304.0469 Q106.5469,303.9375 106.7656,303.9375 Q107.1406,303.9375 107.375,304.2031 Q107.6094,304.4531 107.6094,305.0625 L107.6094,306.5156 Q107.6094,307.125 107.375,307.3906 Q107.1406,307.6563 106.7656,307.6563 Q106.4219,307.6563 106.2188,307.4531 Q106.0156,307.2656 105.9063,306.75 Q105.8594,306.3906 105.6719,306.2031 Q105.3438,305.8281 104.7344,305.6094 Q104.125,305.3906 103.5,305.3906 Q102.7344,305.3906 102.0938,305.7188 Q101.4688,306.0469 100.9688,306.7969 Q100.4844,307.5469 100.4844,308.5781 L100.4844,309.6719 Q100.4844,310.9063 101.375,311.7344 Q102.2656,312.5469 103.8594,312.5469 Q104.7969,312.5469 105.4531,312.2969 Q105.8438,312.1406 106.2656,311.7031 Q106.5313,311.4375 106.6719,311.3594 Q106.8281,311.2813 107.0313,311.2813 Q107.3594,311.2813 107.6094,311.5469 Q107.875,311.7969 107.875,312.1406 Q107.875,312.4844 107.5313,312.8906 Q107.0313,313.4688 106.2344,313.7969 Q105.1563,314.25 103.8594,314.25 Q102.3438,314.25 101.1406,313.625 Q100.1563,313.125 99.4688,312.0625 Q98.7813,310.9844 98.7813,309.7031 L98.7813,308.5469 Q98.7813,307.2188 99.3906,306.0781 Q100.0156,304.9219 101.1094,304.3125 Q102.2031,303.6875 103.4375,303.6875 Q104.1719,303.6875 104.8125,303.8594 Q105.4688,304.0156 106.0156,304.375 Z " fill="#000000"/><text fill="#000000" font-family="sans-serif" font-size="14" lengthAdjust="spacing" textLength="36" x="123.75" y="314.2969">Event</text><line style="stroke:#181818;stroke-width:0.5;" x1="8" x2="243" y1="324.5" y2="324.5"/><text fill="#000000" font-family="sans-serif" font-size="14" lengthAdjust="spacing" textLength="76" x="13" y="343.6074">String name</text><text fill="#000000" font-family="sans-serif" font-size="14" lengthAdjust="spacing" textLength="119" x="13" y="362.2285">String abbreviation</text><text fill="#000000" font-family="sans-serif" font-size="14" lengthAdjust="spacing" textLength="225" x="13" y="380.8496">Set&lt;ResearchArea&gt; researchAreas</text><text fill="#000000" font-family="sans-serif" font-size="14" lengthAdjust="spacing" textLength="120" x="13" y="399.4707">Calendar startDate</text><text fill="#000000" font-family="sans-serif" font-size="14" lengthAdjust="spacing" textLength="116" x="13" y="418.0918">Calendar endDate</text><line style="stroke:#181818;stroke-width:0.5;" x1="8" x2="243" y1="425.6055" y2="425.6055"/></g><!--class Grant--><g id="elem_Grant"><rect codeLine="145" fill="#F1F1F1" height="141.1055" id="Grant" rx="2.5" ry="2.5" style="stroke:#181818;stroke-width:0.5;" width="167" x="1138" y="292.5"/><ellipse cx="1199.25" cy="308.5" fill="#ADD1B2" rx="11" ry="11" style="stroke:#181818;stroke-width:1.0;"/><path d="M1202.0156,304.375 Q1202.1719,304.1563 1202.3594,304.0469 Q1202.5469,303.9375 1202.7656,303.9375 Q1203.1406,303.9375 1203.375,304.2031 Q1203.6094,304.4531 1203.6094,305.0625 L1203.6094,306.5156 Q1203.6094,307.125 1203.375,307.3906 Q1203.1406,307.6563 1202.7656,307.6563 Q1202.4219,307.6563 1202.2188,307.4531 Q1202.0156,307.2656 1201.9063,306.75 Q1201.8594,306.3906 1201.6719,306.2031 Q1201.3438,305.8281 1200.7344,305.6094 Q1200.125,305.3906 1199.5,305.3906 Q1198.7344,305.3906 1198.0938,305.7188 Q1197.4688,306.0469 1196.9688,306.7969 Q1196.4844,307.5469 1196.4844,308.5781 L1196.4844,309.6719 Q1196.4844,310.9063 1197.375,311.7344 Q1198.2656,312.5469 1199.8594,312.5469 Q1200.7969,312.5469 1201.4531,312.2969 Q1201.8438,312.1406 1202.2656,311.7031 Q1202.5313,311.4375 1202.6719,311.3594 Q1202.8281,311.2813 1203.0313,311.2813 Q1203.3594,311.2813 1203.6094,311.5469 Q1203.875,311.7969 1203.875,312.1406 Q1203.875,312.4844 1203.5313,312.8906 Q1203.0313,313.4688 1202.2344,313.7969 Q1201.1563,314.25 1199.8594,314.25 Q1198.3438,314.25 1197.1406,313.625 Q1196.1563,313.125 1195.4688,312.0625 Q1194.7813,310.9844 1194.7813,309.7031 L1194.7813,308.5469 Q1194.7813,307.2188 1195.3906,306.0781 Q1196.0156,304.9219 1197.1094,304.3125 Q1198.2031,303.6875 1199.4375,303.6875 Q1200.1719,303.6875 1200.8125,303.8594 Q1201.4688,304.0156 1202.0156,304.375 Z " fill="#000000"/><text fill="#000000" font-family="sans-serif" font-size="14" lengthAdjust="spacing" textLength="36" x="1219.75" y="314.2969">Grant</text><line style="stroke:#181818;stroke-width:0.5;" x1="1139" x2="1304" y1="324.5" y2="324.5"/><text fill="#000000" font-family="sans-serif" font-size="14" lengthAdjust="spacing" textLength="76" x="1144" y="343.6074">String name</text><text fill="#000000" font-family="sans-serif" font-size="14" lengthAdjust="spacing" textLength="95" x="1144" y="362.2285">String identifier</text><text fill="#000000" font-family="sans-serif" font-size="14" lengthAdjust="spacing" textLength="106" x="1144" y="380.8496">Integer startYear</text><text fill="#000000" font-family="sans-serif" font-size="14" lengthAdjust="spacing" textLength="102" x="1144" y="399.4707">Integer endYear</text><text fill="#000000" font-family="sans-serif" font-size="14" lengthAdjust="spacing" textLength="155" x="1144" y="418.0918">String totalAwardAmount</text><line style="stroke:#181818;stroke-width:0.5;" x1="1139" x2="1304" y1="425.6055" y2="425.6055"/></g><!--class Contributorship--><g id="elem_Contributorship"><rect codeLine="158" fill="#F1F1F1" height="66.6211" id="Contributorship" rx="2.5" ry="2.5" style="stroke:#181818;stroke-width:0.5;" width="129" x="1219" y="72"/><ellipse cx="1234" cy="88" fill="#ADD1B2" rx="11" ry="11" style="stroke:#181818;stroke-width:1.0;"/><path d="M1236.7656,83.875 Q1236.9219,83.6563 1237.1094,83.5469 Q1237.2969,83.4375 1237.5156,83.4375 Q1237.8906,83.4375 1238.125,83.7031 Q1238.3594,83.9531 1238.3594,84.5625 L1238.3594,86.0156 Q1238.3594,86.625 1238.125,86.8906 Q1237.8906,87.1563 1237.5156,87.1563 Q1237.1719,87.1563 1236.9688,86.9531 Q1236.7656,86.7656 1236.6563,86.25 Q1236.6094,85.8906 1236.4219,85.7031 Q1236.0938,85.3281 1235.4844,85.1094 Q1234.875,84.8906 1234.25,84.8906 Q1233.4844,84.8906 1232.8438,85.2188 Q1232.2188,85.5469 1231.7188,86.2969 Q1231.2344,87.0469 1231.2344,88.0781 L1231.2344,89.1719 Q1231.2344,90.4063 1232.125,91.2344 Q1233.0156,92.0469 1234.6094,92.0469 Q1235.5469,92.0469 1236.2031,91.7969 Q1236.5938,91.6406 1237.0156,91.2031 Q1237.2813,90.9375 1237.4219,90.8594 Q1237.5781,90.7813 1237.7813,90.7813 Q1238.1094,90.7813 1238.3594,91.0469 Q1238.625,91.2969 1238.625,91.6406 Q1238.625,91.9844 1238.2813,92.3906 Q1237.7813,92.9688 1236.9844,93.2969 Q1235.9063,93.75 1234.6094,93.75 Q1233.0938,93.75 1231.8906,93.125 Q1230.9063,92.625 1230.2188,91.5625 Q1229.5313,90.4844 1229.5313,89.2031 L1229.5313,88.0469 Q1229.5313,86.7188 1230.1406,85.5781 Q1230.7656,84.4219 1231.8594,83.8125 Q1232.9531,83.1875 1234.1875,83.1875 Q1234.9219,83.1875 1235.5625,83.3594 Q1236.2188,83.5156 1236.7656,83.875 Z " fill="#000000"/><text fill="#000000" font-family="sans-serif" font-size="14" lengthAdjust="spacing" textLength="97" x="1248" y="93.7969">Contributorship</text><line style="stroke:#181818;stroke-width:0.5;" x1="1220" x2="1347" y1="104" y2="104"/><text fill="#000000" font-family="sans-serif" font-size="14" lengthAdjust="spacing" textLength="97" x="1225" y="123.1074">String roleType</text><line style="stroke:#181818;stroke-width:0.5;" x1="1220" x2="1347" y1="130.6211" y2="130.6211"/></g><!--link Geolocation to Geolocation--><g id="link_Geolocation_Geolocation"><path codeLine="12" d="M1034.82,750.13 C1053.96,749.89 1069.5,755.01 1069.5,765.5 C1069.5,775.99 1059.9595,781.1852 1040.8195,780.9452 " fill="none" id="Geolocation-to-Geolocation" style="stroke:#181818;stroke-width:1.0;"/><polygon fill="#181818" points="1034.82,780.87,1043.7691,784.9825,1039.8196,780.9327,1043.8694,776.9832,1034.82,780.87" style="stroke:#181818;stroke-width:1.0;"/><text fill="#000000" font-family="sans-serif" font-size="13" lengthAdjust="spacing" textLength="35" x="1075.5" y="771.0283">partOf</text><text fill="#000000" font-family="sans-serif" font-size="13" lengthAdjust="spacing" textLength="5" x="1042.4552" y="763.2384">*</text><text fill="#000000" font-family="sans-serif" font-size="13" lengthAdjust="spacing" textLength="22" x="1042.3726" y="797.6611">0..1</text></g><!--link Person to ResearchArea--><g id="link_Person_ResearchArea"><path codeLine="39" d="M436.27,443.01 C407.45,475.91 379.1135,508.2467 355.0335,535.7367 " fill="none" id="Person-to-ResearchArea" style="stroke:#181818;stroke-width:1.0;"/><polygon fill="#181818" points="351.08,540.25,360.0191,536.1157,354.3746,536.4889,354.0013,530.8444,351.08,540.25" style="stroke:#181818;stroke-width:1.0;"/><text fill="#000000" font-family="sans-serif" font-size="13" lengthAdjust="spacing" textLength="84" x="411.5" y="488.0283">researchAreas</text><text fill="#000000" font-family="sans-serif" font-size="13" lengthAdjust="spacing" textLength="5" x="422.9762" y="448.3393">*</text><text fill="#000000" font-family="sans-serif" font-size="13" lengthAdjust="spacing" textLength="5" x="351.5115" y="529.1142">*</text></g><!--link Position to Person--><g id="link_Position_Person"><path codeLine="72" d="M484.1,166.73 C487.9,201.4 492.0669,239.4157 496.1669,276.8557 " fill="none" id="Position-to-Person" style="stroke:#181818;stroke-width:1.0;"/><polygon fill="#181818" points="496.82,282.82,499.8165,273.4381,496.2757,277.8497,491.8641,274.3089,496.82,282.82" style="stroke:#181818;stroke-width:1.0;"/><text fill="#000000" font-family="sans-serif" font-size="13" lengthAdjust="spacing" textLength="83" x="494.5" y="249.0283">personInvolved</text><text fill="#000000" font-family="sans-serif" font-size="13" lengthAdjust="spacing" textLength="5" x="479.5741" y="188.8097">*</text><text fill="#000000" font-family="sans-serif" font-size="13" lengthAdjust="spacing" textLength="7" x="488.6972" y="271.6992">1</text></g><!--link Position to OrganisationUnit--><g id="link_Position_OrganisationUnit"><path codeLine="73" d="M530.77,166.52 C548.88,187.52 568.96,211.48 586.5,234 C656.44,323.79 650.02,366.72 734.5,443 C787.38,490.75 854.0025,526.545 906.4625,550.765 " fill="none" id="Position-to-OrganisationUnit" style="stroke:#181818;stroke-width:1.0;"/><polygon fill="#181818" points="911.91,553.28,905.4155,545.8759,907.3705,551.1842,902.0621,553.1391,911.91,553.28" style="stroke:#181818;stroke-width:1.0;"/><text fill="#000000" font-family="sans-serif" font-size="13" lengthAdjust="spacing" textLength="93" x="735.5" y="368.5283">organisationUnit</text><text fill="#000000" font-family="sans-serif" font-size="13" lengthAdjust="spacing" textLength="5" x="531.9576" y="189.0093">*</text><text fill="#000000" font-family="sans-serif" font-size="13" lengthAdjust="spacing" textLength="7" x="897.0252" y="546.1174">1</text></g><!--link OrganisationUnit to Geolocation--><g id="link_OrganisationUnit_Geolocation"><path codeLine="86" d="M980.5,644.1 C980.5,669.95 980.5,693.52 980.5,716.88 " fill="none" id="OrganisationUnit-to-Geolocation" style="stroke:#181818;stroke-width:1.0;"/><polygon fill="#181818" points="980.5,722.88,984.5,713.88,980.5,717.88,976.5,713.88,980.5,722.88" style="stroke:#181818;stroke-width:1.0;"/><text fill="#000000" font-family="sans-serif" font-size="13" lengthAdjust="spacing" textLength="90" x="981.5" y="689.0283">countryOrPlace</text><text fill="#000000" font-family="sans-serif" font-size="13" lengthAdjust="spacing" textLength="5" x="975.1953" y="666.599">*</text><text fill="#000000" font-family="sans-serif" font-size="13" lengthAdjust="spacing" textLength="5" x="975.1016" y="711.765">*</text></g><!--link OrganisationUnit to OrganisationUnit--><g id="link_OrganisationUnit_OrganisationUnit"><path codeLine="87" d="M1049.18,564.32 C1068.84,565.06 1084,571.28 1084,583 C1084,594.72 1074.8358,600.7143 1055.1758,601.4543 " fill="none" id="OrganisationUnit-to-OrganisationUnit" style="stroke:#181818;stroke-width:1.0;"/><polygon fill="#181818" points="1049.18,601.68,1058.3241,605.3387,1054.1765,601.4919,1058.0232,597.3443,1049.18,601.68" style="stroke:#181818;stroke-width:1.0;"/><text fill="#000000" font-family="sans-serif" font-size="13" lengthAdjust="spacing" textLength="35" x="1090" y="588.5283">partOf</text><text fill="#000000" font-family="sans-serif" font-size="13" lengthAdjust="spacing" textLength="5" x="1056.9653" y="558.3649">*</text><text fill="#000000" font-family="sans-serif" font-size="13" lengthAdjust="spacing" textLength="22" x="1057.0235" y="599.7009">0..1</text></g><!--link Document to ResearchArea--><g id="link_Document_ResearchArea"><path codeLine="108" d="M816.29,128.77 C664.86,171.69 347.84,263.38 332.5,283 C274.12,357.67 288.4494,471.7005 302.2994,534.5805 " fill="none" id="Document-to-ResearchArea" style="stroke:#181818;stroke-width:1.0;"/><polygon fill="#181818" points="303.59,540.44,305.5604,530.7903,302.5145,535.557,297.7477,532.5111,303.59,540.44" style="stroke:#181818;stroke-width:1.0;"/><text fill="#000000" font-family="sans-serif" font-size="13" lengthAdjust="spacing" textLength="84" x="333.5" y="368.5283">researchAreas</text><text fill="#000000" font-family="sans-serif" font-size="13" lengthAdjust="spacing" textLength="5" x="803.502" y="127.2214">*</text><text fill="#000000" font-family="sans-serif" font-size="13" lengthAdjust="spacing" textLength="5" x="296.4528" y="529.3345">*</text></g><!--link Document to Document--><g id="link_Document_Document"><path codeLine="109" d="M974.62,79.96 C994.56,81.69 1009.5,90.2 1009.5,105.5 C1009.5,120.8 1000.5375,128.7914 980.5975,130.5214 " fill="none" id="Document-to-Document" style="stroke:#181818;stroke-width:1.0;"/><polygon fill="#181818" points="974.62,131.04,983.9321,134.2471,979.6013,130.6078,983.2406,126.2771,974.62,131.04" style="stroke:#181818;stroke-width:1.0;"/><text fill="#000000" font-family="sans-serif" font-size="13" lengthAdjust="spacing" textLength="35" x="1015.5" y="111.0283">partOf</text><text fill="#000000" font-family="sans-serif" font-size="13" lengthAdjust="spacing" textLength="5" x="982.3994" y="73.7592">*</text><text fill="#000000" font-family="sans-serif" font-size="13" lengthAdjust="spacing" textLength="22" x="982.3647" y="129.5465">0..1</text></g><!--link Document to OrganisationUnit--><g id="link_Document_OrganisationUnit"><path codeLine="110" d="M960.67,204.39 C974.36,229.12 987.16,256.27 995.5,283 C1023.25,371.97 1028.34,400.16 1012.5,492 C1010.81,501.81 1009.9436,506.2344 1006.8736,516.0344 " fill="none" id="Document-to-OrganisationUnit" style="stroke:#181818;stroke-width:1.0;"/><polygon fill="#181818" points="1005.08,521.76,1011.5875,514.3673,1006.5747,516.9886,1003.9534,511.9758,1005.08,521.76" style="stroke:#181818;stroke-width:1.0;"/><text fill="#000000" font-family="sans-serif" font-size="13" lengthAdjust="spacing" textLength="52" x="1021.5" y="368.5283">publisher</text><text fill="#000000" font-family="sans-serif" font-size="13" lengthAdjust="spacing" textLength="5" x="960.0765" y="225.9805">*</text><text fill="#000000" font-family="sans-serif" font-size="13" lengthAdjust="spacing" textLength="22" x="984.6502" y="510.7135">0..1</text></g><!--reverse link Person to Authorship--><g id="link_Person_Authorship"><path codeLine="119" d="M530.7742,448.7599 C539.4942,478.0099 547.43,504.62 555.22,530.76 " fill="none" id="Person-backto-Authorship" style="stroke:#181818;stroke-width:1.0;"/><polygon fill="#181818" points="529.06,443.01,527.798,452.7777,530.4885,447.8016,535.4645,450.4921,529.06,443.01" style="stroke:#181818;stroke-width:1.0;"/><text fill="#000000" font-family="sans-serif" font-size="13" lengthAdjust="spacing" textLength="22" x="508.1394" y="464.6689">0..1</text><text fill="#000000" font-family="sans-serif" font-size="13" lengthAdjust="spacing" textLength="5" x="547.8308" y="519.6551">*</text></g><!--reverse link Document to Authorship--><g id="link_Document_Authorship"><path codeLine="120" d="M811.382,156.3997 C764.092,187.8097 711.09,229.83 673.5,283 C619.14,359.88 591.39,467.95 578.99,530.91 " fill="none" id="Document-backto-Authorship" style="stroke:#181818;stroke-width:1.0;"/><polygon fill="#181818" points="816.38,153.08,806.6699,154.7275,812.215,155.8464,811.0961,161.3915,816.38,153.08" style="stroke:#181818;stroke-width:1.0;"/><text fill="#000000" font-family="sans-serif" font-size="13" lengthAdjust="spacing" textLength="7" x="801.5053" y="153.8485">1</text><text fill="#000000" font-family="sans-serif" font-size="13" lengthAdjust="spacing" textLength="5" x="574.7949" y="519.8253">*</text></g><!--link Journal to OrganisationUnit--><g id="link_Journal_OrganisationUnit"><path codeLine="130" d="M928.44,415.11 C938.41,447.08 949.5132,482.6722 959.9732,516.2022 " fill="none" id="Journal-to-OrganisationUnit" style="stroke:#181818;stroke-width:1.0;"/><polygon fill="#181818" points="961.76,521.93,962.8983,512.1471,960.271,517.1569,955.2612,514.5296,961.76,521.93" style="stroke:#181818;stroke-width:1.0;"/><text fill="#000000" font-family="sans-serif" font-size="13" lengthAdjust="spacing" textLength="52" x="951.5" y="488.0283">publisher</text><text fill="#000000" font-family="sans-serif" font-size="13" lengthAdjust="spacing" textLength="5" x="925.162" y="436.9314">*</text><text fill="#000000" font-family="sans-serif" font-size="13" lengthAdjust="spacing" textLength="22" x="936.3213" y="510.9031">0..1</text></g><!--link Document to Journal--><g id="link_Document_Journal"><path codeLine="131" d="M902,204.19 C904.42,240.53 906.6719,274.3332 908.7019,304.8632 " fill="none" id="Document-to-Journal" style="stroke:#181818;stroke-width:1.0;"/><polygon fill="#181818" points="909.1,310.85,912.4941,301.6044,908.7683,305.861,904.5117,302.1352,909.1,310.85" style="stroke:#181818;stroke-width:1.0;"/><text fill="#000000" font-family="sans-serif" font-size="13" lengthAdjust="spacing" textLength="38" x="905.5" y="249.0283">journal</text><text fill="#000000" font-family="sans-serif" font-size="13" lengthAdjust="spacing" textLength="5" x="897.2938" y="226.1019">*</text><text fill="#000000" font-family="sans-serif" font-size="13" lengthAdjust="spacing" textLength="22" x="885.165" y="299.7572">0..1</text></g><!--link Event to ResearchArea--><g id="link_Event_ResearchArea"><path codeLine="141" d="M161.47,433.82 C173.23,453.61 187.24,474.52 202.5,492 C217.84,509.57 232.1915,522.6038 250.2315,536.7738 " fill="none" id="Event-to-ResearchArea" style="stroke:#181818;stroke-width:1.0;"/><polygon fill="#181818" points="254.95,540.48,250.3431,531.775,251.018,537.3915,245.4015,538.0663,254.95,540.48" style="stroke:#181818;stroke-width:1.0;"/><text fill="#000000" font-family="sans-serif" font-size="13" lengthAdjust="spacing" textLength="84" x="203.5" y="488.0283">researchAreas</text><text fill="#000000" font-family="sans-serif" font-size="13" lengthAdjust="spacing" textLength="5" x="159.7647" y="455.6655">*</text><text fill="#000000" font-family="sans-serif" font-size="13" lengthAdjust="spacing" textLength="5" x="240.0608" y="529.3809">*</text></g><!--link Event to Geolocation--><g id="link_Event_Geolocation"><path codeLine="142" d="M107.93,433.55 C96.51,496.72 92.01,588.28 143.5,644 C249.56,758.76 751.9901,766.0196 920.2701,765.1896 " fill="none" id="Event-to-Geolocation" style="stroke:#181818;stroke-width:1.0;"/><polygon fill="#181818" points="926.27,765.16,917.2504,761.2044,921.2701,765.1847,917.2898,769.2043,926.27,765.16" style="stroke:#181818;stroke-width:1.0;"/><text fill="#000000" font-family="sans-serif" font-size="13" lengthAdjust="spacing" textLength="90" x="144.5" y="588.5283">countryOrPlace</text><text fill="#000000" font-family="sans-serif" font-size="13" lengthAdjust="spacing" textLength="5" x="100.8603" y="455.7399">*</text><text fill="#000000" font-family="sans-serif" font-size="13" lengthAdjust="spacing" textLength="5" x="913.6469" y="761.0037">*</text></g><!--link Document to Event--><g id="link_Document_Event"><path codeLine="143" d="M816.45,130.73 C747.4,151.48 644.29,181.5 553.5,204 C490.89,219.52 473.63,216.64 411.5,234 C348.01,251.74 331.79,256.34 271.5,283 C262.54,286.96 258.7676,288.6292 249.6276,293.1092 " fill="none" id="Document-to-Event" style="stroke:#181818;stroke-width:1.0;"/><polygon fill="#181818" points="244.24,295.75,254.0819,295.3806,248.7297,293.5494,250.5609,288.1971,244.24,295.75" style="stroke:#181818;stroke-width:1.0;"/><text fill="#000000" font-family="sans-serif" font-size="13" lengthAdjust="spacing" textLength="70" x="412.5" y="249.0283">presentedAt</text><text fill="#000000" font-family="sans-serif" font-size="13" lengthAdjust="spacing" textLength="5" x="803.4224" y="148.0945">*</text><text fill="#000000" font-family="sans-serif" font-size="13" lengthAdjust="spacing" textLength="22" x="252.146" y="288.168">0..1</text></g><!--link Grant to OrganisationUnit--><g id="link_Grant_OrganisationUnit"><path codeLine="154" d="M1144.58,433.58 C1113.18,461.99 1081.6492,490.5045 1051.4092,517.8645 " fill="none" id="Grant-to-OrganisationUnit" style="stroke:#181818;stroke-width:1.0;"/><polygon fill="#181818" points="1046.96,521.89,1056.3175,518.8179,1050.6677,518.5354,1050.9502,512.8856,1046.96,521.89" style="stroke:#181818;stroke-width:1.0;"/><text fill="#000000" font-family="sans-serif" font-size="13" lengthAdjust="spacing" textLength="64" x="1101.5" y="488.0283">awardedBy</text><text fill="#000000" font-family="sans-serif" font-size="13" lengthAdjust="spacing" textLength="5" x="1131.3898" y="455.773">*</text><text fill="#000000" font-family="sans-serif" font-size="13" lengthAdjust="spacing" textLength="22" x="1031.3726" y="510.8585">0..1</text></g><!--link Grant to Geolocation--><g id="link_Grant_Geolocation"><path codeLine="155" d="M1209.11,433.67 C1196.31,492.94 1172.34,578.6 1131.5,644 C1107.78,681.98 1072.7901,709.8802 1039.9001,730.9802 " fill="none" id="Grant-to-Geolocation" style="stroke:#181818;stroke-width:1.0;"/><polygon fill="#181818" points="1034.85,734.22,1044.585,732.727,1039.0584,731.5202,1040.2653,725.9935,1034.85,734.22" style="stroke:#181818;stroke-width:1.0;"/><text fill="#000000" font-family="sans-serif" font-size="13" lengthAdjust="spacing" textLength="90" x="1186.5" y="588.5283">countryOrPlace</text><text fill="#000000" font-family="sans-serif" font-size="13" lengthAdjust="spacing" textLength="5" x="1202.5745" y="455.8723">*</text><text fill="#000000" font-family="sans-serif" font-size="13" lengthAdjust="spacing" textLength="5" x="1042.4892" y="725.9062">*</text></g><!--link Grant to Grant--><g id="link_Grant_Grant"><path codeLine="156" d="M1305.1,341.27 C1325.15,342.96 1340,350.21 1340,363 C1340,375.79 1331.1288,382.5361 1311.0788,384.2261 " fill="none" id="Grant-to-Grant" style="stroke:#181818;stroke-width:1.0;"/><polygon fill="#181818" points="1305.1,384.73,1314.4042,387.9599,1310.0823,384.31,1313.7322,379.9882,1305.1,384.73" style="stroke:#181818;stroke-width:1.0;"/><text fill="#000000" font-family="sans-serif" font-size="13" lengthAdjust="spacing" textLength="35" x="1346" y="368.5283">partOf</text><text fill="#000000" font-family="sans-serif" font-size="13" lengthAdjust="spacing" textLength="5" x="1313.0373" y="335.52">*</text><text fill="#000000" font-family="sans-serif" font-size="13" lengthAdjust="spacing" textLength="22" x="1312.9341" y="382.8616">0..1</text></g><!--link Contributorship to Person--><g id="link_Contributorship_Person"><path codeLine="162" d="M1268.94,139.15 C1251.38,174.17 1218.27,228.1 1171.5,253 C1073.63,305.09 780.92,255.59 673.5,283 C639.77,291.61 609.9486,304.2911 580.5586,319.2311 " fill="none" id="Contributorship-to-Person" style="stroke:#181818;stroke-width:1.0;"/><polygon fill="#181818" points="575.21,321.95,585.0455,321.4374,579.6672,319.6843,581.4203,314.3059,575.21,321.95" style="stroke:#181818;stroke-width:1.0;"/><text fill="#000000" font-family="sans-serif" font-size="13" lengthAdjust="spacing" textLength="83" x="1196.5" y="249.0283">personInvolved</text><text fill="#000000" font-family="sans-serif" font-size="13" lengthAdjust="spacing" textLength="5" x="1260.9012" y="160.746">*</text><text fill="#000000" font-family="sans-serif" font-size="13" lengthAdjust="spacing" textLength="7" x="583.2173" y="313.5897">1</text></g><!--link Contributorship to Grant--><g id="link_Contributorship_Grant"><path codeLine="163" d="M1297.77,139 C1308.96,169.22 1320.64,215.14 1307.5,253 C1302.72,266.78 1298.7725,275.1675 1290.3725,287.5275 " fill="none" id="Contributorship-to-Grant" style="stroke:#181818;stroke-width:1.0;"/><polygon fill="#181818" points="1287,292.49,1295.3671,287.2947,1289.8105,288.3546,1288.7505,282.798,1287,292.49" style="stroke:#181818;stroke-width:1.0;"/><text fill="#000000" font-family="sans-serif" font-size="13" lengthAdjust="spacing" textLength="29" x="1311.5" y="249.0283">grant</text><text fill="#000000" font-family="sans-serif" font-size="13" lengthAdjust="spacing" textLength="5" x="1294.8665" y="160.5692">*</text><text fill="#000000" font-family="sans-serif" font-size="13" lengthAdjust="spacing" textLength="7" x="1286.3938" y="281.38">1</text></g><!--link Document to Grant--><g id="link_Document_Grant"><path codeLine="165" d="M974.54,163.67 C1003.99,185.34 1037.53,210.47 1067.5,234 C1091.15,252.57 1111.7862,269.3742 1134.8562,288.5542 " fill="none" id="Document-to-Grant" style="stroke:#181818;stroke-width:1.0;"/><polygon fill="#181818" points="1139.47,292.39,1135.1066,283.5605,1135.6252,289.1935,1129.9922,289.7121,1139.47,292.39" style="stroke:#181818;stroke-width:1.0;"/><text fill="#000000" font-family="sans-serif" font-size="13" lengthAdjust="spacing" textLength="73" x="1089.5" y="249.0283">supportedBy</text><text fill="#000000" font-family="sans-serif" font-size="13" lengthAdjust="spacing" textLength="5" x="982.5666" y="165.6036">*</text><text fill="#000000" font-family="sans-serif" font-size="13" lengthAdjust="spacing" textLength="5" x="1125.7528" y="281.2697">*</text></g><!--SRC=[bLPRR-8w47xdLrXzYRHggtDUqQfI2jagHoL18LsfJyWaXdets97ji4Ah_U_7jmJ7IIZR1uh7S_5yyyqC0IWgo3buXUJGm0C2lsS1060Z62O7KD0IkMS2Z-hyPpOpLY-8LhI00bCY3O5d23n3QUOQt7sv0myFJ-3kdyV7V-zSN_CQCf7ksoWPuWYouYDa2FR3QBVEkKIyOBXMFbIqe6_g1NJlkeWsv1enxkUqnumBFo8L7uWbdb2w62ZM3EqHOwZCiQZCJG2-XOktr_nzkufMpr4sAjn6goYByxUDlNsDdxCmYyF4lrXdwRTeaquRs7EI9jjm4IwZLRnmH6rKxsgTRl9bkd0p4UUw3m4hSAdWjg1rC7_nC6REWSyqhm0YpT6YdKk_bdxwpmDdGdv9jrCOWQYx6w8qDBk8UbZrf0EuBX4iObhGTSgQSkoqIG0muO8rXQ3iNdA3xX7dwYiInMCFR8SjUrWqbJY3slgwLzz4IPKJM7NYqLh5HA03Oe0BIVHtMOQU595IotJFs9fOR_sgT6alLt4IR_8ipEFlqLRc7ETnclXgllnI6V_6HNhqqWVSL_9jR1doD0jV1mxNMRmAi_xx587R8dKKbcF2ideEQlqb9YTQdL0vhfoo0oIOwodsHh2GPjGJjOmOg5wTR72tO-Y4OLVWG0uxDRIEY8XxKE8JvfeIXJmZIQG3FI56r2sGOvqKvn5kjUG8MibFTFv5MSbRAH9V_MS-0HMLktuOjSmPf7JZABXgv-w5WZP4i7FArXKiq1KxC-7z-ykKRrdkQxXiVqc_HrcoYf9y6xv4oUBTY1TIOCRHdsvTB6dHQAX_Z_TkssTriwkmoQNhmNPrKUmUCT_r6hcMHToetlM54IbTaIHdqsSEvhn1Ja6Z4ijvmJzm_GIG-QwgrwLmOys6-WRpLjvYFQKth8t2Xijjse8QDkB3FDJ2sg8e6IftRdFS8OFWCwKLWaJ-w93xbTUKb39lOzr36FEwWcTpqQtimB_Uxt5b-ypPQURHNnyUT1wNfpdvZT_RPFwZ3IDoI4yGPAhBBpKadvSmQ8FSMCA1-gULcIgczJJ_OVwtIKUdGKzyEjTKVkwRdq3_qRe5OIKt5hJRR0a5welbfnPAJCmJRWHag7nb-4nXePtCQ-LPyhKCku7_mk1dQE1Isk0zHkmlbhPBA2fW5Vw2h0oFwhMQ5IRkZH1uoXECW2e4Af_Fiw7pAv2DEjT2xnV_Waepl6j4h_-xTLCXDQTLShxYS77FlRLzpS8yvQ0-9mQYqU1DNLCcD03_0m00]--></g></svg>