<svg xmlns="http://www.w3.org/2000/svg" xmlns:xlink="http://www.w3.org/1999/xlink" contentStyleType="text/css" data-diagram-type="CLASS" height="1176px" preserveAspectRatio="none" style="width:1509px;height:1176px;background:#FFFFFF;" version="1.1" viewBox="0 0 1509 1176" width="1509px" zoomAndPan="magnify"><defs/><g><!--class Geolocation--><g class="entity" data-entity="Geolocation" data-source-line="2" data-uid="ent0002" id="entity_Geolocation"><rect fill="#F1F1F1" height="100.8281" rx="2.5" ry="2.5" style="stroke:#181818;stroke-width:0.5;" width="243.9502" x="961.5" y="1069"/><ellipse cx="1041.8667" cy="1085" fill="#ADD1B2" rx="11" ry="11" style="stroke:#181818;stroke-width:1;"/><path d="M1040.7261,1085.7969 L1040.7261,1088.2969 L1045.0542,1088.2969 L1045.0542,1087.375 Q1045.0542,1086.7656 1045.2886,1086.5 Q1045.5386,1086.2344 1045.9136,1086.2344 Q1046.2886,1086.2344 1046.5229,1086.5 Q1046.7573,1086.7656 1046.7573,1087.375 L1046.7573,1090 L1038.7573,1090 Q1038.1323,1090 1037.8667,1089.7656 Q1037.6167,1089.5313 1037.6167,1089.1406 Q1037.6167,1088.7656 1037.8823,1088.5313 Q1038.1479,1088.2969 1038.7573,1088.2969 L1039.0229,1088.2969 L1039.0229,1081.6406 L1038.7573,1081.6406 Q1038.1323,1081.6406 1037.8667,1081.4063 Q1037.6167,1081.1719 1037.6167,1080.7813 Q1037.6167,1080.4063 1037.8667,1080.1719 Q1038.1323,1079.9375 1038.7573,1079.9375 L1046.3823,1079.9375 L1046.3823,1082.5313 Q1046.3823,1083.1406 1046.1479,1083.4063 Q1045.9292,1083.6563 1045.5386,1083.6563 Q1045.1636,1083.6563 1044.9292,1083.4063 Q1044.6948,1083.1406 1044.6948,1082.5313 L1044.6948,1081.6406 L1040.7261,1081.6406 L1040.7261,1084.0938 L1042.2104,1084.0938 Q1042.2104,1083.4375 1042.3354,1083.25 Q1042.6011,1082.8438 1043.0698,1082.8438 Q1043.4448,1082.8438 1043.6792,1083.1094 Q1043.9136,1083.3594 1043.9136,1083.9688 L1043.9136,1085.9375 Q1043.9136,1086.4844 1043.7886,1086.6719 Q1043.5229,1087.0625 1043.0698,1087.0625 Q1042.6011,1087.0625 1042.3354,1086.6563 Q1042.2104,1086.4688 1042.2104,1085.7969 L1040.7261,1085.7969 Z " fill="#000000"/><text fill="#000000" font-family="sans-serif" font-size="14" lengthAdjust="spacing" textLength="74.7168" x="1062.3667" y="1090.7285">Geolocation</text><line style="stroke:#181818;stroke-width:0.5;" x1="962.5" x2="1204.4502" y1="1101" y2="1101"/><text fill="#000000" font-family="sans-serif" font-size="14" lengthAdjust="spacing" textLength="231.9502" x="967.5" y="1119.5332">geolocation_id : number &#171;generated&#187;</text><line style="stroke:#181818;stroke-width:1;" x1="962.5" x2="1204.4502" y1="1126.6094" y2="1126.6094"/><text fill="#000000" font-family="sans-serif" font-size="14" lengthAdjust="spacing" textLength="64.5928" x="967.5" y="1145.1426">code : text</text><text fill="#000000" font-family="sans-serif" font-size="14" lengthAdjust="spacing" textLength="69.2549" x="967.5" y="1162.752">name : text</text></g><!--class ResearchArea--><g class="entity" data-entity="ResearchArea" data-source-line="11" data-uid="ent0004" id="entity_ResearchArea"><rect fill="#F1F1F1" height="126.4375" rx="2.5" ry="2.5" style="stroke:#181818;stroke-width:0.5;" width="262.6123" x="654" y="856.5"/><ellipse cx="736.3115" cy="872.5" fill="#ADD1B2" rx="11" ry="11" style="stroke:#181818;stroke-width:1;"/><path d="M735.1709,873.2969 L735.1709,875.7969 L739.499,875.7969 L739.499,874.875 Q739.499,874.2656 739.7334,874 Q739.9834,873.7344 740.3584,873.7344 Q740.7334,873.7344 740.9678,874 Q741.2021,874.2656 741.2021,874.875 L741.2021,877.5 L733.2021,877.5 Q732.5771,877.5 732.3115,877.2656 Q732.0615,877.0313 732.0615,876.6406 Q732.0615,876.2656 732.3271,876.0313 Q732.5928,875.7969 733.2021,875.7969 L733.4678,875.7969 L733.4678,869.1406 L733.2021,869.1406 Q732.5771,869.1406 732.3115,868.9063 Q732.0615,868.6719 732.0615,868.2813 Q732.0615,867.9063 732.3115,867.6719 Q732.5771,867.4375 733.2021,867.4375 L740.8271,867.4375 L740.8271,870.0313 Q740.8271,870.6406 740.5928,870.9063 Q740.374,871.1563 739.9834,871.1563 Q739.6084,871.1563 739.374,870.9063 Q739.1396,870.6406 739.1396,870.0313 L739.1396,869.1406 L735.1709,869.1406 L735.1709,871.5938 L736.6553,871.5938 Q736.6553,870.9375 736.7803,870.75 Q737.0459,870.3438 737.5146,870.3438 Q737.8896,870.3438 738.124,870.6094 Q738.3584,870.8594 738.3584,871.4688 L738.3584,873.4375 Q738.3584,873.9844 738.2334,874.1719 Q737.9678,874.5625 737.5146,874.5625 Q737.0459,874.5625 736.7803,874.1563 Q736.6553,873.9688 736.6553,873.2969 L735.1709,873.2969 Z " fill="#000000"/><text fill="#000000" font-family="sans-serif" font-size="14" lengthAdjust="spacing" textLength="89.4893" x="756.8115" y="878.2285">ResearchArea</text><line style="stroke:#181818;stroke-width:0.5;" x1="655" x2="915.6123" y1="888.5" y2="888.5"/><text fill="#000000" font-family="sans-serif" font-size="14" lengthAdjust="spacing" textLength="250.6123" x="660" y="907.0332">research_area_id : number &#171;generated&#187;</text><line style="stroke:#181818;stroke-width:1;" x1="655" x2="915.6123" y1="914.1094" y2="914.1094"/><text fill="#000000" font-family="sans-serif" font-size="14" lengthAdjust="spacing" textLength="69.2549" x="660" y="932.6426">name : text</text><text fill="#000000" font-family="sans-serif" font-size="14" lengthAdjust="spacing" textLength="101.9375" x="660" y="950.252">description : text</text><line style="stroke:#181818;stroke-width:1;" x1="655" x2="915.6123" y1="957.3281" y2="957.3281"/><text fill="#000000" font-family="sans-serif" font-size="14" lengthAdjust="spacing" textLength="248.2539" x="660" y="975.8613">super_research_area_id : number &#171;FK&#187;</text></g><!--class Person--><g class="entity" data-entity="Person" data-source-line="22" data-uid="ent0006" id="entity_Person"><rect fill="#F1F1F1" height="161.6563" rx="2.5" ry="2.5" style="stroke:#181818;stroke-width:0.5;" width="215.1436" x="186" y="582"/><ellipse cx="267.1426" cy="598" fill="#ADD1B2" rx="11" ry="11" style="stroke:#181818;stroke-width:1;"/><path d="M266.002,598.7969 L266.002,601.2969 L270.3301,601.2969 L270.3301,600.375 Q270.3301,599.7656 270.5645,599.5 Q270.8145,599.2344 271.1895,599.2344 Q271.5645,599.2344 271.7988,599.5 Q272.0332,599.7656 272.0332,600.375 L272.0332,603 L264.0332,603 Q263.4082,603 263.1426,602.7656 Q262.8926,602.5313 262.8926,602.1406 Q262.8926,601.7656 263.1582,601.5313 Q263.4238,601.2969 264.0332,601.2969 L264.2988,601.2969 L264.2988,594.6406 L264.0332,594.6406 Q263.4082,594.6406 263.1426,594.4063 Q262.8926,594.1719 262.8926,593.7813 Q262.8926,593.4063 263.1426,593.1719 Q263.4082,592.9375 264.0332,592.9375 L271.6582,592.9375 L271.6582,595.5313 Q271.6582,596.1406 271.4238,596.4063 Q271.2051,596.6563 270.8145,596.6563 Q270.4395,596.6563 270.2051,596.4063 Q269.9707,596.1406 269.9707,595.5313 L269.9707,594.6406 L266.002,594.6406 L266.002,597.0938 L267.4863,597.0938 Q267.4863,596.4375 267.6113,596.25 Q267.877,595.8438 268.3457,595.8438 Q268.7207,595.8438 268.9551,596.1094 Q269.1895,596.3594 269.1895,596.9688 L269.1895,598.9375 Q269.1895,599.4844 269.0645,599.6719 Q268.7988,600.0625 268.3457,600.0625 Q267.877,600.0625 267.6113,599.6563 Q267.4863,599.4688 267.4863,598.7969 L266.002,598.7969 Z " fill="#000000"/><text fill="#000000" font-family="sans-serif" font-size="14" lengthAdjust="spacing" textLength="44.3584" x="287.6426" y="603.7285">Person</text><line style="stroke:#181818;stroke-width:0.5;" x1="187" x2="400.1436" y1="614" y2="614"/><text fill="#000000" font-family="sans-serif" font-size="14" lengthAdjust="spacing" textLength="203.1436" x="192" y="632.5332">person_id : number &#171;generated&#187;</text><line style="stroke:#181818;stroke-width:1;" x1="187" x2="400.1436" y1="639.6094" y2="639.6094"/><text fill="#000000" font-family="sans-serif" font-size="14" lengthAdjust="spacing" textLength="91.8066" x="192" y="658.1426">firstname : text</text><text fill="#000000" font-family="sans-serif" font-size="14" lengthAdjust="spacing" textLength="108.9512" x="192" y="675.752">other_name : text</text><text fill="#000000" font-family="sans-serif" font-size="14" lengthAdjust="spacing" textLength="91.041" x="192" y="693.3613">lastname : text</text><text fill="#000000" font-family="sans-serif" font-size="14" lengthAdjust="spacing" textLength="64.5791" x="192" y="710.9707">orcid : text</text><line style="stroke:#181818;stroke-width:1;" x1="187" x2="400.1436" y1="718.0469" y2="718.0469"/><text fill="#000000" font-family="sans-serif" font-size="14" lengthAdjust="spacing" textLength="163.4268" x="192" y="736.5801">position_id : number &#171;FK&#187;</text></g><!--class Advisorship--><g class="entity" data-entity="Advisorship" data-source-line="33" data-uid="ent0007" id="entity_Advisorship"><rect fill="#F1F1F1" height="100.8281" rx="2.5" ry="2.5" style="stroke:#181818;stroke-width:0.5;" width="223.6885" x="149.5" y="869"/><ellipse cx="220.9116" cy="885" fill="#ADD1B2" rx="11" ry="11" style="stroke:#181818;stroke-width:1;"/><path d="M219.771,885.7969 L219.771,888.2969 L224.0991,888.2969 L224.0991,887.375 Q224.0991,886.7656 224.3335,886.5 Q224.5835,886.2344 224.9585,886.2344 Q225.3335,886.2344 225.5679,886.5 Q225.8022,886.7656 225.8022,887.375 L225.8022,890 L217.8022,890 Q217.1772,890 216.9116,889.7656 Q216.6616,889.5313 216.6616,889.1406 Q216.6616,888.7656 216.9272,888.5313 Q217.1929,888.2969 217.8022,888.2969 L218.0679,888.2969 L218.0679,881.6406 L217.8022,881.6406 Q217.1772,881.6406 216.9116,881.4063 Q216.6616,881.1719 216.6616,880.7813 Q216.6616,880.4063 216.9116,880.1719 Q217.1772,879.9375 217.8022,879.9375 L225.4272,879.9375 L225.4272,882.5313 Q225.4272,883.1406 225.1929,883.4063 Q224.9741,883.6563 224.5835,883.6563 Q224.2085,883.6563 223.9741,883.4063 Q223.7397,883.1406 223.7397,882.5313 L223.7397,881.6406 L219.771,881.6406 L219.771,884.0938 L221.2554,884.0938 Q221.2554,883.4375 221.3804,883.25 Q221.646,882.8438 222.1147,882.8438 Q222.4897,882.8438 222.7241,883.1094 Q222.9585,883.3594 222.9585,883.9688 L222.9585,885.9375 Q222.9585,886.4844 222.8335,886.6719 Q222.5679,887.0625 222.1147,887.0625 Q221.646,887.0625 221.3804,886.6563 Q221.2554,886.4688 221.2554,885.7969 L219.771,885.7969 Z " fill="#000000"/><text fill="#000000" font-family="sans-serif" font-size="14" lengthAdjust="spacing" textLength="72.3652" x="241.4116" y="890.7285">Advisorship</text><line style="stroke:#181818;stroke-width:0.5;" x1="150.5" x2="372.1885" y1="901" y2="901"/><text fill="#000000" font-family="sans-serif" font-size="14" lengthAdjust="spacing" textLength="199.2334" x="155.5" y="919.5332">advising_relationship_type : text</text><text fill="#000000" font-family="sans-serif" font-size="14" lengthAdjust="spacing" textLength="210.8955" x="155.5" y="937.1426">advisor_person_id : number &#171;FK&#187;</text><text fill="#000000" font-family="sans-serif" font-size="14" lengthAdjust="spacing" textLength="211.6885" x="155.5" y="954.752">student_person_id : number &#171;FK&#187;</text><line style="stroke:#181818;stroke-width:0.5;" x1="150.5" x2="372.1885" y1="961.8281" y2="961.8281"/></g><!--class Position--><g class="entity" data-entity="Position" data-source-line="44" data-uid="ent0011" id="entity_Position"><rect fill="#F1F1F1" height="136.0469" rx="2.5" ry="2.5" style="stroke:#181818;stroke-width:0.5;" width="220.5918" x="7" y="285.5"/><ellipse cx="88.1426" cy="301.5" fill="#ADD1B2" rx="11" ry="11" style="stroke:#181818;stroke-width:1;"/><path d="M87.002,302.2969 L87.002,304.7969 L91.3301,304.7969 L91.3301,303.875 Q91.3301,303.2656 91.5645,303 Q91.8145,302.7344 92.1895,302.7344 Q92.5645,302.7344 92.7988,303 Q93.0332,303.2656 93.0332,303.875 L93.0332,306.5 L85.0332,306.5 Q84.4082,306.5 84.1426,306.2656 Q83.8926,306.0313 83.8926,305.6406 Q83.8926,305.2656 84.1582,305.0313 Q84.4238,304.7969 85.0332,304.7969 L85.2988,304.7969 L85.2988,298.1406 L85.0332,298.1406 Q84.4082,298.1406 84.1426,297.9063 Q83.8926,297.6719 83.8926,297.2813 Q83.8926,296.9063 84.1426,296.6719 Q84.4082,296.4375 85.0332,296.4375 L92.6582,296.4375 L92.6582,299.0313 Q92.6582,299.6406 92.4238,299.9063 Q92.2051,300.1563 91.8145,300.1563 Q91.4395,300.1563 91.2051,299.9063 Q90.9707,299.6406 90.9707,299.0313 L90.9707,298.1406 L87.002,298.1406 L87.002,300.5938 L88.4863,300.5938 Q88.4863,299.9375 88.6113,299.75 Q88.877,299.3438 89.3457,299.3438 Q89.7207,299.3438 89.9551,299.6094 Q90.1895,299.8594 90.1895,300.4688 L90.1895,302.4375 Q90.1895,302.9844 90.0645,303.1719 Q89.7988,303.5625 89.3457,303.5625 Q88.877,303.5625 88.6113,303.1563 Q88.4863,302.9688 88.4863,302.2969 L87.002,302.2969 Z " fill="#000000"/><text fill="#000000" font-family="sans-serif" font-size="14" lengthAdjust="spacing" textLength="49.8066" x="108.6426" y="307.2285">Position</text><line style="stroke:#181818;stroke-width:0.5;" x1="8" x2="226.5918" y1="317.5" y2="317.5"/><text fill="#000000" font-family="sans-serif" font-size="14" lengthAdjust="spacing" textLength="208.5918" x="13" y="336.0332">position_id : number &#171;generated&#187;</text><line style="stroke:#181818;stroke-width:1;" x1="8" x2="226.5918" y1="343.1094" y2="343.1094"/><text fill="#000000" font-family="sans-serif" font-size="14" lengthAdjust="spacing" textLength="56.0205" x="13" y="361.6426">title : text</text><text fill="#000000" font-family="sans-serif" font-size="14" lengthAdjust="spacing" textLength="60.6963" x="13" y="379.252">type : text</text><text fill="#000000" font-family="sans-serif" font-size="14" lengthAdjust="spacing" textLength="121.3857" x="13" y="396.8613">start_year : number</text><text fill="#000000" font-family="sans-serif" font-size="14" lengthAdjust="spacing" textLength="117.5166" x="13" y="414.4707">end_year : number</text></g><!--class OrganisationUnit--><g class="entity" data-entity="OrganisationUnit" data-source-line="55" data-uid="ent0013" id="entity_OrganisationUnit"><rect fill="#F1F1F1" height="179.2656" rx="2.5" ry="2.5" style="stroke:#181818;stroke-width:0.5;" width="278.9707" x="1156" y="830"/><ellipse cx="1239.0977" cy="846" fill="#ADD1B2" rx="11" ry="11" style="stroke:#181818;stroke-width:1;"/><path d="M1237.957,846.7969 L1237.957,849.2969 L1242.2852,849.2969 L1242.2852,848.375 Q1242.2852,847.7656 1242.5195,847.5 Q1242.7695,847.2344 1243.1445,847.2344 Q1243.5195,847.2344 1243.7539,847.5 Q1243.9883,847.7656 1243.9883,848.375 L1243.9883,851 L1235.9883,851 Q1235.3633,851 1235.0977,850.7656 Q1234.8477,850.5313 1234.8477,850.1406 Q1234.8477,849.7656 1235.1133,849.5313 Q1235.3789,849.2969 1235.9883,849.2969 L1236.2539,849.2969 L1236.2539,842.6406 L1235.9883,842.6406 Q1235.3633,842.6406 1235.0977,842.4063 Q1234.8477,842.1719 1234.8477,841.7813 Q1234.8477,841.4063 1235.0977,841.1719 Q1235.3633,840.9375 1235.9883,840.9375 L1243.6133,840.9375 L1243.6133,843.5313 Q1243.6133,844.1406 1243.3789,844.4063 Q1243.1602,844.6563 1242.7695,844.6563 Q1242.3945,844.6563 1242.1602,844.4063 Q1241.9258,844.1406 1241.9258,843.5313 L1241.9258,842.6406 L1237.957,842.6406 L1237.957,845.0938 L1239.4414,845.0938 Q1239.4414,844.4375 1239.5664,844.25 Q1239.832,843.8438 1240.3008,843.8438 Q1240.6758,843.8438 1240.9102,844.1094 Q1241.1445,844.3594 1241.1445,844.9688 L1241.1445,846.9375 Q1241.1445,847.4844 1241.0195,847.6719 Q1240.7539,848.0625 1240.3008,848.0625 Q1239.832,848.0625 1239.5664,847.6563 Q1239.4414,847.4688 1239.4414,846.7969 L1237.957,846.7969 Z " fill="#000000"/><text fill="#000000" font-family="sans-serif" font-size="14" lengthAdjust="spacing" textLength="104.2754" x="1259.5977" y="851.7285">OrganisationUnit</text><line style="stroke:#181818;stroke-width:0.5;" x1="1157" x2="1433.9707" y1="862" y2="862"/><text fill="#000000" font-family="sans-serif" font-size="14" lengthAdjust="spacing" textLength="266.9707" x="1162" y="880.5332">organisation_unit_id : number &#171;generated&#187;</text><line style="stroke:#181818;stroke-width:1;" x1="1157" x2="1433.9707" y1="887.6094" y2="887.6094"/><text fill="#000000" font-family="sans-serif" font-size="14" lengthAdjust="spacing" textLength="69.2549" x="1162" y="906.1426">name : text</text><text fill="#000000" font-family="sans-serif" font-size="14" lengthAdjust="spacing" textLength="110.5098" x="1162" y="923.752">abbreviation : text</text><text fill="#000000" font-family="sans-serif" font-size="14" lengthAdjust="spacing" textLength="60.6963" x="1162" y="941.3613">type : text</text><text fill="#000000" font-family="sans-serif" font-size="14" lengthAdjust="spacing" textLength="51.3447" x="1162" y="958.9707">ror : text</text><line style="stroke:#181818;stroke-width:1;" x1="1157" x2="1433.9707" y1="966.0469" y2="966.0469"/><text fill="#000000" font-family="sans-serif" font-size="14" lengthAdjust="spacing" textLength="186.7852" x="1162" y="984.5801">geolocation_id : number &#171;FK&#187;</text><text fill="#000000" font-family="sans-serif" font-size="14" lengthAdjust="spacing" textLength="264.6123" x="1162" y="1002.1895">super_organisation_unit_id : number &#171;FK&#187;</text></g><!--class Document--><g class="entity" data-entity="Document" data-source-line="71" data-uid="ent0016" id="entity_Document"><rect fill="#F1F1F1" height="284.9219" rx="2.5" ry="2.5" style="stroke:#181818;stroke-width:0.5;" width="298.4053" x="785.5" y="211"/><ellipse cx="898.5493" cy="227" fill="#ADD1B2" rx="11" ry="11" style="stroke:#181818;stroke-width:1;"/><path d="M897.4087,227.7969 L897.4087,230.2969 L901.7368,230.2969 L901.7368,229.375 Q901.7368,228.7656 901.9712,228.5 Q902.2212,228.2344 902.5962,228.2344 Q902.9712,228.2344 903.2056,228.5 Q903.4399,228.7656 903.4399,229.375 L903.4399,232 L895.4399,232 Q894.8149,232 894.5493,231.7656 Q894.2993,231.5313 894.2993,231.1406 Q894.2993,230.7656 894.5649,230.5313 Q894.8306,230.2969 895.4399,230.2969 L895.7056,230.2969 L895.7056,223.6406 L895.4399,223.6406 Q894.8149,223.6406 894.5493,223.4063 Q894.2993,223.1719 894.2993,222.7813 Q894.2993,222.4063 894.5493,222.1719 Q894.8149,221.9375 895.4399,221.9375 L903.0649,221.9375 L903.0649,224.5313 Q903.0649,225.1406 902.8306,225.4063 Q902.6118,225.6563 902.2212,225.6563 Q901.8462,225.6563 901.6118,225.4063 Q901.3774,225.1406 901.3774,224.5313 L901.3774,223.6406 L897.4087,223.6406 L897.4087,226.0938 L898.8931,226.0938 Q898.8931,225.4375 899.0181,225.25 Q899.2837,224.8438 899.7524,224.8438 Q900.1274,224.8438 900.3618,225.1094 Q900.5962,225.3594 900.5962,225.9688 L900.5962,227.9375 Q900.5962,228.4844 900.4712,228.6719 Q900.2056,229.0625 899.7524,229.0625 Q899.2837,229.0625 899.0181,228.6563 Q898.8931,228.4688 898.8931,227.7969 L897.4087,227.7969 Z " fill="#000000"/><text fill="#000000" font-family="sans-serif" font-size="14" lengthAdjust="spacing" textLength="63.8066" x="919.0493" y="232.7285">Document</text><line style="stroke:#181818;stroke-width:0.5;" x1="786.5" x2="1082.9053" y1="243" y2="243"/><text fill="#000000" font-family="sans-serif" font-size="14" lengthAdjust="spacing" textLength="221.8193" x="791.5" y="261.5332">document_id : number &#171;generated&#187;</text><line style="stroke:#181818;stroke-width:1;" x1="786.5" x2="1082.9053" y1="268.6094" y2="268.6094"/><text fill="#000000" font-family="sans-serif" font-size="14" lengthAdjust="spacing" textLength="56.0205" x="791.5" y="287.1426">title : text</text><text fill="#000000" font-family="sans-serif" font-size="14" lengthAdjust="spacing" textLength="161.0957" x="791.5" y="304.752">publication_year : number</text><text fill="#000000" font-family="sans-serif" font-size="14" lengthAdjust="spacing" textLength="52.917" x="791.5" y="322.3613">doi : text</text><text fill="#000000" font-family="sans-serif" font-size="14" lengthAdjust="spacing" textLength="59.917" x="791.5" y="339.9707">isbn : text</text><text fill="#000000" font-family="sans-serif" font-size="14" lengthAdjust="spacing" textLength="100.3926" x="791.5" y="357.5801">page_start : text</text><text fill="#000000" font-family="sans-serif" font-size="14" lengthAdjust="spacing" textLength="96.5234" x="791.5" y="375.1895">page_end : text</text><text fill="#000000" font-family="sans-serif" font-size="14" lengthAdjust="spacing" textLength="79.3652" x="791.5" y="392.7988">volume : text</text><text fill="#000000" font-family="sans-serif" font-size="14" lengthAdjust="spacing" textLength="66.917" x="791.5" y="410.4082">issue : text</text><line style="stroke:#181818;stroke-width:1;" x1="786.5" x2="1082.9053" y1="417.4844" y2="417.4844"/><text fill="#000000" font-family="sans-serif" font-size="14" lengthAdjust="spacing" textLength="228.0264" x="791.5" y="436.0176">part_of_document_id : number &#171;FK&#187;</text><text fill="#000000" font-family="sans-serif" font-size="14" lengthAdjust="spacing" textLength="286.4053" x="791.5" y="453.627">publisher_organisation_unit_id : number &#171;FK&#187;</text><text fill="#000000" font-family="sans-serif" font-size="14" lengthAdjust="spacing" textLength="203.1299" x="791.5" y="471.2363">venue_journal_id : number &#171;FK&#187;</text><text fill="#000000" font-family="sans-serif" font-size="14" lengthAdjust="spacing" textLength="238.9365" x="791.5" y="488.8457">presented_at_event_id : number &#171;FK&#187;</text></g><!--class Citations--><g class="entity" data-entity="Citations" data-source-line="89" data-uid="ent0017" id="entity_Citations"><rect fill="#F1F1F1" height="126.4375" rx="2.5" ry="2.5" style="stroke:#181818;stroke-width:0.5;" width="223.6953" x="1118.5" y="16"/><ellipse cx="1198.8633" cy="32" fill="#ADD1B2" rx="11" ry="11" style="stroke:#181818;stroke-width:1;"/><path d="M1197.7227,32.7969 L1197.7227,35.2969 L1202.0508,35.2969 L1202.0508,34.375 Q1202.0508,33.7656 1202.2852,33.5 Q1202.5352,33.2344 1202.9102,33.2344 Q1203.2852,33.2344 1203.5195,33.5 Q1203.7539,33.7656 1203.7539,34.375 L1203.7539,37 L1195.7539,37 Q1195.1289,37 1194.8633,36.7656 Q1194.6133,36.5313 1194.6133,36.1406 Q1194.6133,35.7656 1194.8789,35.5313 Q1195.1445,35.2969 1195.7539,35.2969 L1196.0195,35.2969 L1196.0195,28.6406 L1195.7539,28.6406 Q1195.1289,28.6406 1194.8633,28.4063 Q1194.6133,28.1719 1194.6133,27.7813 Q1194.6133,27.4063 1194.8633,27.1719 Q1195.1289,26.9375 1195.7539,26.9375 L1203.3789,26.9375 L1203.3789,29.5313 Q1203.3789,30.1406 1203.1445,30.4063 Q1202.9258,30.6563 1202.5352,30.6563 Q1202.1602,30.6563 1201.9258,30.4063 Q1201.6914,30.1406 1201.6914,29.5313 L1201.6914,28.6406 L1197.7227,28.6406 L1197.7227,31.0938 L1199.207,31.0938 Q1199.207,30.4375 1199.332,30.25 Q1199.5977,29.8438 1200.0664,29.8438 Q1200.4414,29.8438 1200.6758,30.1094 Q1200.9102,30.3594 1200.9102,30.9688 L1200.9102,32.9375 Q1200.9102,33.4844 1200.7852,33.6719 Q1200.5195,34.0625 1200.0664,34.0625 Q1199.5977,34.0625 1199.332,33.6563 Q1199.207,33.4688 1199.207,32.7969 L1197.7227,32.7969 Z " fill="#000000"/><text fill="#000000" font-family="sans-serif" font-size="14" lengthAdjust="spacing" textLength="54.4688" x="1219.3633" y="37.7285">Citations</text><line style="stroke:#181818;stroke-width:0.5;" x1="1119.5" x2="1341.1953" y1="48" y2="48"/><text fill="#000000" font-family="sans-serif" font-size="14" lengthAdjust="spacing" textLength="211.6953" x="1124.5" y="66.5332">citations_id : number &#171;generated&#187;</text><line style="stroke:#181818;stroke-width:1;" x1="1119.5" x2="1341.1953" y1="73.6094" y2="73.6094"/><text fill="#000000" font-family="sans-serif" font-size="14" lengthAdjust="spacing" textLength="106.6064" x="1124.5" y="92.1426">number : number</text><text fill="#000000" font-family="sans-serif" font-size="14" lengthAdjust="spacing" textLength="76.2549" x="1124.5" y="109.752">source : text</text><line style="stroke:#181818;stroke-width:1;" x1="1119.5" x2="1341.1953" y1="116.8281" y2="116.8281"/><text fill="#000000" font-family="sans-serif" font-size="14" lengthAdjust="spacing" textLength="176.6543" x="1124.5" y="135.3613">document_id : number &#171;FK&#187;</text></g><!--class Citation--><g class="entity" data-entity="Citation" data-source-line="99" data-uid="ent0019" id="entity_Citation"><rect fill="#F1F1F1" height="48" rx="2.5" ry="2.5" style="stroke:#181818;stroke-width:0.5;" width="79.4688" x="1367" y="639"/><ellipse cx="1382" cy="655" fill="#ADD1B2" rx="11" ry="11" style="stroke:#181818;stroke-width:1;"/><path d="M1384.7656,650.875 Q1384.9219,650.6563 1385.1094,650.5469 Q1385.2969,650.4375 1385.5156,650.4375 Q1385.8906,650.4375 1386.125,650.7031 Q1386.3594,650.9531 1386.3594,651.5625 L1386.3594,653.0156 Q1386.3594,653.625 1386.125,653.8906 Q1385.8906,654.1563 1385.5156,654.1563 Q1385.1719,654.1563 1384.9688,653.9531 Q1384.7656,653.7656 1384.6563,653.25 Q1384.6094,652.8906 1384.4219,652.7031 Q1384.0938,652.3281 1383.4844,652.1094 Q1382.875,651.8906 1382.25,651.8906 Q1381.4844,651.8906 1380.8438,652.2188 Q1380.2188,652.5469 1379.7188,653.2969 Q1379.2344,654.0469 1379.2344,655.0781 L1379.2344,656.1719 Q1379.2344,657.4063 1380.125,658.2344 Q1381.0156,659.0469 1382.6094,659.0469 Q1383.5469,659.0469 1384.2031,658.7969 Q1384.5938,658.6406 1385.0156,658.2031 Q1385.2813,657.9375 1385.4219,657.8594 Q1385.5781,657.7813 1385.7813,657.7813 Q1386.1094,657.7813 1386.3594,658.0469 Q1386.625,658.2969 1386.625,658.6406 Q1386.625,658.9844 1386.2813,659.3906 Q1385.7813,659.9688 1384.9844,660.2969 Q1383.9063,660.75 1382.6094,660.75 Q1381.0938,660.75 1379.8906,660.125 Q1378.9063,659.625 1378.2188,658.5625 Q1377.5313,657.4844 1377.5313,656.2031 L1377.5313,655.0469 Q1377.5313,653.7188 1378.1406,652.5781 Q1378.7656,651.4219 1379.8594,650.8125 Q1380.9531,650.1875 1382.1875,650.1875 Q1382.9219,650.1875 1383.5625,650.3594 Q1384.2188,650.5156 1384.7656,650.875 Z " fill="#000000"/><text fill="#000000" font-family="sans-serif" font-size="14" lengthAdjust="spacing" textLength="47.4688" x="1396" y="660.7285">Citation</text><line style="stroke:#181818;stroke-width:0.5;" x1="1368" x2="1445.4688" y1="671" y2="671"/><line style="stroke:#181818;stroke-width:0.5;" x1="1368" x2="1445.4688" y1="679" y2="679"/></g><!--class Authorship--><g class="entity" data-entity="Authorship" data-source-line="103" data-uid="ent0023" id="entity_Authorship"><rect fill="#F1F1F1" height="136.0469" rx="2.5" ry="2.5" style="stroke:#181818;stroke-width:0.5;" width="209.7021" x="408.5" y="851.5"/><ellipse cx="475.6357" cy="867.5" fill="#ADD1B2" rx="11" ry="11" style="stroke:#181818;stroke-width:1;"/><path d="M474.4951,868.2969 L474.4951,870.7969 L478.8232,870.7969 L478.8232,869.875 Q478.8232,869.2656 479.0576,869 Q479.3076,868.7344 479.6826,868.7344 Q480.0576,868.7344 480.292,869 Q480.5264,869.2656 480.5264,869.875 L480.5264,872.5 L472.5264,872.5 Q471.9014,872.5 471.6357,872.2656 Q471.3857,872.0313 471.3857,871.6406 Q471.3857,871.2656 471.6514,871.0313 Q471.917,870.7969 472.5264,870.7969 L472.792,870.7969 L472.792,864.1406 L472.5264,864.1406 Q471.9014,864.1406 471.6357,863.9063 Q471.3857,863.6719 471.3857,863.2813 Q471.3857,862.9063 471.6357,862.6719 Q471.9014,862.4375 472.5264,862.4375 L480.1514,862.4375 L480.1514,865.0313 Q480.1514,865.6406 479.917,865.9063 Q479.6982,866.1563 479.3076,866.1563 Q478.9326,866.1563 478.6982,865.9063 Q478.4639,865.6406 478.4639,865.0313 L478.4639,864.1406 L474.4951,864.1406 L474.4951,866.5938 L475.9795,866.5938 Q475.9795,865.9375 476.1045,865.75 Q476.3701,865.3438 476.8389,865.3438 Q477.2139,865.3438 477.4482,865.6094 Q477.6826,865.8594 477.6826,866.4688 L477.6826,868.4375 Q477.6826,868.9844 477.5576,869.1719 Q477.292,869.5625 476.8389,869.5625 Q476.3701,869.5625 476.1045,869.1563 Q475.9795,868.9688 475.9795,868.2969 L474.4951,868.2969 Z " fill="#000000"/><text fill="#000000" font-family="sans-serif" font-size="14" lengthAdjust="spacing" textLength="66.9307" x="496.1357" y="873.2285">Authorship</text><line style="stroke:#181818;stroke-width:0.5;" x1="409.5" x2="617.2021" y1="883.5" y2="883.5"/><text fill="#000000" font-family="sans-serif" font-size="14" lengthAdjust="spacing" textLength="147.0752" x="414.5" y="902.0332">order_number : number</text><text fill="#000000" font-family="sans-serif" font-size="14" lengthAdjust="spacing" textLength="197.7021" x="414.5" y="919.6426">corresponding_author : boolean</text><text fill="#000000" font-family="sans-serif" font-size="14" lengthAdjust="spacing" textLength="168.1025" x="414.5" y="937.252">display_author_name : text</text><line style="stroke:#181818;stroke-width:1;" x1="409.5" x2="617.2021" y1="944.3281" y2="944.3281"/><text fill="#000000" font-family="sans-serif" font-size="14" lengthAdjust="spacing" textLength="157.9785" x="414.5" y="962.8613">person_id : number &#171;FK&#187;</text><text fill="#000000" font-family="sans-serif" font-size="14" lengthAdjust="spacing" textLength="176.6543" x="414.5" y="980.4707">document_id : number &#171;FK&#187;</text></g><!--class Journal--><g class="entity" data-entity="Journal" data-source-line="115" data-uid="ent0026" id="entity_Journal"><rect fill="#F1F1F1" height="144.0469" rx="2.5" ry="2.5" style="stroke:#181818;stroke-width:0.5;" width="298.4053" x="785.5" y="7"/><ellipse cx="907.4941" cy="23" fill="#ADD1B2" rx="11" ry="11" style="stroke:#181818;stroke-width:1;"/><path d="M906.3535,23.7969 L906.3535,26.2969 L910.6816,26.2969 L910.6816,25.375 Q910.6816,24.7656 910.916,24.5 Q911.166,24.2344 911.541,24.2344 Q911.916,24.2344 912.1504,24.5 Q912.3848,24.7656 912.3848,25.375 L912.3848,28 L904.3848,28 Q903.7598,28 903.4941,27.7656 Q903.2441,27.5313 903.2441,27.1406 Q903.2441,26.7656 903.5098,26.5313 Q903.7754,26.2969 904.3848,26.2969 L904.6504,26.2969 L904.6504,19.6406 L904.3848,19.6406 Q903.7598,19.6406 903.4941,19.4063 Q903.2441,19.1719 903.2441,18.7813 Q903.2441,18.4063 903.4941,18.1719 Q903.7598,17.9375 904.3848,17.9375 L912.0098,17.9375 L912.0098,20.5313 Q912.0098,21.1406 911.7754,21.4063 Q911.5566,21.6563 911.166,21.6563 Q910.791,21.6563 910.5566,21.4063 Q910.3223,21.1406 910.3223,20.5313 L910.3223,19.6406 L906.3535,19.6406 L906.3535,22.0938 L907.8379,22.0938 Q907.8379,21.4375 907.9629,21.25 Q908.2285,20.8438 908.6973,20.8438 Q909.0723,20.8438 909.3066,21.1094 Q909.541,21.3594 909.541,21.9688 L909.541,23.9375 Q909.541,24.4844 909.416,24.6719 Q909.1504,25.0625 908.6973,25.0625 Q908.2285,25.0625 907.9629,24.6563 Q907.8379,24.4688 907.8379,23.7969 L906.3535,23.7969 Z " fill="#000000"/><text fill="#000000" font-family="sans-serif" font-size="14" lengthAdjust="spacing" textLength="45.917" x="927.9941" y="28.7285">Journal</text><line style="stroke:#181818;stroke-width:0.5;" x1="786.5" x2="1082.9053" y1="39" y2="39"/><text fill="#000000" font-family="sans-serif" font-size="14" lengthAdjust="spacing" textLength="202.3643" x="791.5" y="57.5332">journal_id : number &#171;generated&#187;</text><line style="stroke:#181818;stroke-width:1;" x1="786.5" x2="1082.9053" y1="64.6094" y2="64.6094"/><text fill="#000000" font-family="sans-serif" font-size="14" lengthAdjust="spacing" textLength="56.0205" x="791.5" y="83.1426">title : text</text><text fill="#000000" font-family="sans-serif" font-size="14" lengthAdjust="spacing" textLength="110.5098" x="791.5" y="100.752">abbreviation : text</text><text fill="#000000" font-family="sans-serif" font-size="14" lengthAdjust="spacing" textLength="59.1309" x="791.5" y="118.3613">issn : text</text><line style="stroke:#181818;stroke-width:1;" x1="786.5" x2="1082.9053" y1="125.4375" y2="125.4375"/><text fill="#000000" font-family="sans-serif" font-size="14" lengthAdjust="spacing" textLength="286.4053" x="791.5" y="143.9707">publisher_organisation_unit_id : number &#171;FK&#187;</text></g><!--class Event--><g class="entity" data-entity="Event" data-source-line="129" data-uid="ent0030" id="entity_Event"><rect fill="#F1F1F1" height="161.6563" rx="2.5" ry="2.5" style="stroke:#181818;stroke-width:0.5;" width="206.585" x="682" y="582"/><ellipse cx="763.1426" cy="598" fill="#ADD1B2" rx="11" ry="11" style="stroke:#181818;stroke-width:1;"/><path d="M762.002,598.7969 L762.002,601.2969 L766.3301,601.2969 L766.3301,600.375 Q766.3301,599.7656 766.5645,599.5 Q766.8145,599.2344 767.1895,599.2344 Q767.5645,599.2344 767.7988,599.5 Q768.0332,599.7656 768.0332,600.375 L768.0332,603 L760.0332,603 Q759.4082,603 759.1426,602.7656 Q758.8926,602.5313 758.8926,602.1406 Q758.8926,601.7656 759.1582,601.5313 Q759.4238,601.2969 760.0332,601.2969 L760.2988,601.2969 L760.2988,594.6406 L760.0332,594.6406 Q759.4082,594.6406 759.1426,594.4063 Q758.8926,594.1719 758.8926,593.7813 Q758.8926,593.4063 759.1426,593.1719 Q759.4082,592.9375 760.0332,592.9375 L767.6582,592.9375 L767.6582,595.5313 Q767.6582,596.1406 767.4238,596.4063 Q767.2051,596.6563 766.8145,596.6563 Q766.4395,596.6563 766.2051,596.4063 Q765.9707,596.1406 765.9707,595.5313 L765.9707,594.6406 L762.002,594.6406 L762.002,597.0938 L763.4863,597.0938 Q763.4863,596.4375 763.6113,596.25 Q763.877,595.8438 764.3457,595.8438 Q764.7207,595.8438 764.9551,596.1094 Q765.1895,596.3594 765.1895,596.9688 L765.1895,598.9375 Q765.1895,599.4844 765.0645,599.6719 Q764.7988,600.0625 764.3457,600.0625 Q763.877,600.0625 763.6113,599.6563 Q763.4863,599.4688 763.4863,598.7969 L762.002,598.7969 Z " fill="#000000"/><text fill="#000000" font-family="sans-serif" font-size="14" lengthAdjust="spacing" textLength="35.7998" x="783.6426" y="603.7285">Event</text><line style="stroke:#181818;stroke-width:0.5;" x1="683" x2="887.585" y1="614" y2="614"/><text fill="#000000" font-family="sans-serif" font-size="14" lengthAdjust="spacing" textLength="194.585" x="688" y="632.5332">event_id : number &#171;generated&#187;</text><line style="stroke:#181818;stroke-width:1;" x1="683" x2="887.585" y1="639.6094" y2="639.6094"/><text fill="#000000" font-family="sans-serif" font-size="14" lengthAdjust="spacing" textLength="69.2549" x="688" y="658.1426">name : text</text><text fill="#000000" font-family="sans-serif" font-size="14" lengthAdjust="spacing" textLength="110.5098" x="688" y="675.752">abbreviation : text</text><text fill="#000000" font-family="sans-serif" font-size="14" lengthAdjust="spacing" textLength="127.627" x="688" y="693.3613">start_date : datetime</text><text fill="#000000" font-family="sans-serif" font-size="14" lengthAdjust="spacing" textLength="123.7578" x="688" y="710.9707">end_date : datetime</text><line style="stroke:#181818;stroke-width:1;" x1="683" x2="887.585" y1="718.0469" y2="718.0469"/><text fill="#000000" font-family="sans-serif" font-size="14" lengthAdjust="spacing" textLength="186.7852" x="688" y="736.5801">geolocation_id : number &#171;FK&#187;</text></g><!--class Grant--><g class="entity" data-entity="Grant" data-source-line="144" data-uid="ent0034" id="entity_Grant"><rect fill="#F1F1F1" height="214.4844" rx="2.5" ry="2.5" style="stroke:#181818;stroke-width:0.5;" width="317.8672" x="924.5" y="556"/><ellipse cx="1061.6768" cy="572" fill="#ADD1B2" rx="11" ry="11" style="stroke:#181818;stroke-width:1;"/><path d="M1060.5361,572.7969 L1060.5361,575.2969 L1064.8643,575.2969 L1064.8643,574.375 Q1064.8643,573.7656 1065.0986,573.5 Q1065.3486,573.2344 1065.7236,573.2344 Q1066.0986,573.2344 1066.333,573.5 Q1066.5674,573.7656 1066.5674,574.375 L1066.5674,577 L1058.5674,577 Q1057.9424,577 1057.6768,576.7656 Q1057.4268,576.5313 1057.4268,576.1406 Q1057.4268,575.7656 1057.6924,575.5313 Q1057.958,575.2969 1058.5674,575.2969 L1058.833,575.2969 L1058.833,568.6406 L1058.5674,568.6406 Q1057.9424,568.6406 1057.6768,568.4063 Q1057.4268,568.1719 1057.4268,567.7813 Q1057.4268,567.4063 1057.6768,567.1719 Q1057.9424,566.9375 1058.5674,566.9375 L1066.1924,566.9375 L1066.1924,569.5313 Q1066.1924,570.1406 1065.958,570.4063 Q1065.7393,570.6563 1065.3486,570.6563 Q1064.9736,570.6563 1064.7393,570.4063 Q1064.5049,570.1406 1064.5049,569.5313 L1064.5049,568.6406 L1060.5361,568.6406 L1060.5361,571.0938 L1062.0205,571.0938 Q1062.0205,570.4375 1062.1455,570.25 Q1062.4111,569.8438 1062.8799,569.8438 Q1063.2549,569.8438 1063.4893,570.1094 Q1063.7236,570.3594 1063.7236,570.9688 L1063.7236,572.9375 Q1063.7236,573.4844 1063.5986,573.6719 Q1063.333,574.0625 1062.8799,574.0625 Q1062.4111,574.0625 1062.1455,573.6563 Q1062.0205,573.4688 1062.0205,572.7969 L1060.5361,572.7969 Z " fill="#000000"/><text fill="#000000" font-family="sans-serif" font-size="14" lengthAdjust="spacing" textLength="35.0137" x="1082.1768" y="577.7285">Grant</text><line style="stroke:#181818;stroke-width:0.5;" x1="925.5" x2="1241.3672" y1="588" y2="588"/><text fill="#000000" font-family="sans-serif" font-size="14" lengthAdjust="spacing" textLength="192.2471" x="930.5" y="606.5332">grant_id : number &#171;generated&#187;</text><line style="stroke:#181818;stroke-width:1;" x1="925.5" x2="1241.3672" y1="613.6094" y2="613.6094"/><text fill="#000000" font-family="sans-serif" font-size="14" lengthAdjust="spacing" textLength="69.2549" x="930.5" y="632.1426">name : text</text><text fill="#000000" font-family="sans-serif" font-size="14" lengthAdjust="spacing" textLength="87.1514" x="930.5" y="649.752">identifier : text</text><text fill="#000000" font-family="sans-serif" font-size="14" lengthAdjust="spacing" textLength="121.3857" x="930.5" y="667.3613">start_year : number</text><text fill="#000000" font-family="sans-serif" font-size="14" lengthAdjust="spacing" textLength="117.5166" x="930.5" y="684.9707">end_year : number</text><text fill="#000000" font-family="sans-serif" font-size="14" lengthAdjust="spacing" textLength="161.0957" x="930.5" y="702.5801">total_award_amount : text</text><line style="stroke:#181818;stroke-width:1;" x1="925.5" x2="1241.3672" y1="709.6563" y2="709.6563"/><text fill="#000000" font-family="sans-serif" font-size="14" lengthAdjust="spacing" textLength="305.8672" x="930.5" y="728.1895">awarded_by_organisation_unit_id : number &#171;FK&#187;</text><text fill="#000000" font-family="sans-serif" font-size="14" lengthAdjust="spacing" textLength="186.7852" x="930.5" y="745.7988">geolocation_id : number &#171;FK&#187;</text><text fill="#000000" font-family="sans-serif" font-size="14" lengthAdjust="spacing" textLength="198.4541" x="930.5" y="763.4082">part_of_grant_id : number &#171;FK&#187;</text></g><!--class Investigatorship--><g class="entity" data-entity="Investigatorship" data-source-line="163" data-uid="ent0039" id="entity_Investigatorship"><rect fill="#F1F1F1" height="100.8281" rx="2.5" ry="2.5" style="stroke:#181818;stroke-width:0.5;" width="169.9785" x="263.5" y="303"/><ellipse cx="296.4657" cy="319" fill="#ADD1B2" rx="11" ry="11" style="stroke:#181818;stroke-width:1;"/><path d="M295.3251,319.7969 L295.3251,322.2969 L299.6532,322.2969 L299.6532,321.375 Q299.6532,320.7656 299.8876,320.5 Q300.1376,320.2344 300.5126,320.2344 Q300.8876,320.2344 301.122,320.5 Q301.3563,320.7656 301.3563,321.375 L301.3563,324 L293.3563,324 Q292.7313,324 292.4657,323.7656 Q292.2157,323.5313 292.2157,323.1406 Q292.2157,322.7656 292.4813,322.5313 Q292.747,322.2969 293.3563,322.2969 L293.622,322.2969 L293.622,315.6406 L293.3563,315.6406 Q292.7313,315.6406 292.4657,315.4063 Q292.2157,315.1719 292.2157,314.7813 Q292.2157,314.4063 292.4657,314.1719 Q292.7313,313.9375 293.3563,313.9375 L300.9813,313.9375 L300.9813,316.5313 Q300.9813,317.1406 300.747,317.4063 Q300.5282,317.6563 300.1376,317.6563 Q299.7626,317.6563 299.5282,317.4063 Q299.2938,317.1406 299.2938,316.5313 L299.2938,315.6406 L295.3251,315.6406 L295.3251,318.0938 L296.8095,318.0938 Q296.8095,317.4375 296.9345,317.25 Q297.2001,316.8438 297.6688,316.8438 Q298.0438,316.8438 298.2782,317.1094 Q298.5126,317.3594 298.5126,317.9688 L298.5126,319.9375 Q298.5126,320.4844 298.3876,320.6719 Q298.122,321.0625 297.6688,321.0625 Q297.2001,321.0625 296.9345,320.6563 Q296.8095,320.4688 296.8095,319.7969 L295.3251,319.7969 Z " fill="#000000"/><text fill="#000000" font-family="sans-serif" font-size="14" lengthAdjust="spacing" textLength="98.0547" x="314.4581" y="324.7285">Investigatorship</text><line style="stroke:#181818;stroke-width:0.5;" x1="264.5" x2="432.4785" y1="335" y2="335"/><text fill="#000000" font-family="sans-serif" font-size="14" lengthAdjust="spacing" textLength="91.8271" x="269.5" y="353.5332">role_type : text</text><line style="stroke:#181818;stroke-width:1;" x1="264.5" x2="432.4785" y1="360.6094" y2="360.6094"/><text fill="#000000" font-family="sans-serif" font-size="14" lengthAdjust="spacing" textLength="157.9785" x="269.5" y="379.1426">person_id : number &#171;FK&#187;</text><text fill="#000000" font-family="sans-serif" font-size="14" lengthAdjust="spacing" textLength="147.082" x="269.5" y="396.752">grant_id : number &#171;FK&#187;</text></g><!--link Geolocation to Geolocation--><g class="link" data-entity-1="Geolocation" data-entity-2="Geolocation" data-source-line="9" data-uid="lnk3" id="link_Geolocation_Geolocation"><path codeLine="9" d="M1220.2151,1087.9894 C1240.8451,1092.8194 1240.5,1101.04 1240.5,1119.5 C1240.5,1137.96 1243.7661,1145.4967 1223.1361,1150.3267" fill="none" id="Geolocation-Geolocation" style="stroke:#181818;stroke-width:1;"/><line style="stroke:#181818;stroke-width:1;" x1="1216.3204" x2="1205.61" y1="1087.0776" y2="1084.57"/><ellipse cx="1216.3204" cy="1087.0776" fill="none" rx="4" ry="4" style="stroke:#181818;stroke-width:1;"/><line style="stroke:#181818;stroke-width:1;" x1="1208.5928" x2="1210.4165" y1="1089.3765" y2="1081.5872"/><line style="stroke:#181818;stroke-width:1;" x1="1213.3994" x2="1206.9778" y1="1152.6063" y2="1160.272"/><line style="stroke:#181818;stroke-width:1;" x1="1213.3994" x2="1204.2422" y1="1152.6063" y2="1148.588"/><line style="stroke:#181818;stroke-width:1;" x1="1213.3994" x2="1205.61" y1="1152.6063" y2="1154.43"/><ellipse cx="1219.2414" cy="1151.2386" fill="none" rx="4" ry="4" style="stroke:#181818;stroke-width:1;"/></g><!--link ResearchArea to ResearchArea--><g class="link" data-entity-1="ResearchArea" data-entity-2="ResearchArea" data-source-line="20" data-uid="lnk5" id="link_ResearchArea_ResearchArea"><path codeLine="20" d="M931.6269,888.6286 C952.3869,893.7286 952,901.63 952,919.5 C952,937.37 955.3003,944.5557 934.5403,949.6557" fill="none" id="ResearchArea-ResearchArea" style="stroke:#181818;stroke-width:1;"/><line style="stroke:#181818;stroke-width:1;" x1="927.7424" x2="917.06" y1="887.6743" y2="885.05"/><ellipse cx="927.7424" cy="887.6743" fill="none" rx="4" ry="4" style="stroke:#181818;stroke-width:1;"/><line style="stroke:#181818;stroke-width:1;" x1="919.9902" x2="921.8988" y1="889.8888" y2="882.1198"/><line style="stroke:#181818;stroke-width:1;" x1="924.829" x2="918.4914" y1="952.0414" y2="959.7768"/><line style="stroke:#181818;stroke-width:1;" x1="924.829" x2="915.6286" y1="952.0414" y2="948.1232"/><line style="stroke:#181818;stroke-width:1;" x1="924.829" x2="917.06" y1="952.0414" y2="953.95"/><ellipse cx="930.6558" cy="950.61" fill="none" rx="4" ry="4" style="stroke:#181818;stroke-width:1;"/></g><!--link Person to Advisorship--><g class="link" data-entity-1="Person" data-entity-2="Advisorship" data-source-line="39" data-uid="lnk8" id="link_Person_Advisorship"><path codeLine="39" d="M268.6049,761.9489 C262.0049,802.7389 260.1464,818.3022 258.2164,853.7122" fill="none" id="Person-Advisorship" style="stroke:#181818;stroke-width:1;"/><line style="stroke:#181818;stroke-width:1;" x1="270.2022" x2="265.557" y1="752.0773" y2="743.2216"/><line style="stroke:#181818;stroke-width:1;" x1="270.2022" x2="277.403" y1="752.0773" y2="745.1384"/><line style="stroke:#181818;stroke-width:1;" x1="270.2022" x2="271.48" y1="752.0773" y2="744.18"/><ellipse cx="269.2438" cy="758.0003" fill="none" rx="4" ry="4" style="stroke:#181818;stroke-width:1;"/><line style="stroke:#181818;stroke-width:1;" x1="257.9987" x2="257.4" y1="857.7063" y2="868.69"/><ellipse cx="257.9987" cy="857.7063" fill="none" rx="4" ry="4" style="stroke:#181818;stroke-width:1;"/><line style="stroke:#181818;stroke-width:1;" x1="261.6118" x2="253.6236" y1="864.9136" y2="864.4782"/></g><!--link Person to Advisorship--><g class="link" data-entity-1="Person" data-entity-2="Advisorship" data-source-line="40" data-uid="lnk9" id="link_Person_Advisorship"><path codeLine="40" d="M294.4863,762.1111 C290.9063,802.9011 288.8029,818.5735 281.6929,853.9835" fill="none" id="Person-Advisorship-1" style="stroke:#181818;stroke-width:1;"/><line style="stroke:#181818;stroke-width:1;" x1="295.3606" x2="290.083" y1="752.1494" y2="743.6554"/><line style="stroke:#181818;stroke-width:1;" x1="295.3606" x2="302.037" y1="752.1494" y2="744.7046"/><line style="stroke:#181818;stroke-width:1;" x1="295.3606" x2="296.06" y1="752.1494" y2="744.18"/><ellipse cx="294.836" cy="758.1264" fill="none" rx="4" ry="4" style="stroke:#181818;stroke-width:1;"/><line style="stroke:#181818;stroke-width:1;" x1="280.9055" x2="278.74" y1="857.9053" y2="868.69"/><ellipse cx="280.9055" cy="857.9053" fill="none" rx="4" ry="4" style="stroke:#181818;stroke-width:1;"/><line style="stroke:#181818;stroke-width:1;" x1="283.4492" x2="275.6057" y1="865.5557" y2="863.9808"/></g><!--link Person to ResearchArea--><g class="link" data-entity-1="Person" data-entity-2="ResearchArea" data-source-line="42" data-uid="lnk10" id="link_Person_ResearchArea"><path codeLine="42" d="M416.838,746.9556 C436.078,758.5756 440.85,760.56 460.5,770 C534.61,805.61 560.82,795.6 635.5,830 C652.39,837.78 654.1291,838.1097 670.8691,847.5197" fill="none" id="Person-ResearchArea" style="stroke:#181818;stroke-width:1;"/><line style="stroke:#181818;stroke-width:1;" x1="408.278" x2="398.3281" y1="741.7858" y2="742.786"/><line style="stroke:#181818;stroke-width:1;" x1="408.278" x2="404.5319" y1="741.7858" y2="732.514"/><line style="stroke:#181818;stroke-width:1;" x1="408.278" x2="401.43" y1="741.7858" y2="737.65"/><ellipse cx="413.414" cy="744.8877" fill="none" rx="4" ry="4" style="stroke:#181818;stroke-width:1;"/><line style="stroke:#181818;stroke-width:1;" x1="679.5863" x2="689.5001" y1="852.4199" y2="851.1097"/><line style="stroke:#181818;stroke-width:1;" x1="679.5863" x2="683.6199" y1="852.4199" y2="861.5703"/><line style="stroke:#181818;stroke-width:1;" x1="679.5863" x2="686.56" y1="852.4199" y2="856.34"/><ellipse cx="674.356" cy="849.4798" fill="none" rx="4" ry="4" style="stroke:#181818;stroke-width:1;"/></g><!--link Position to Person--><g class="link" data-entity-1="Position" data-entity-2="Person" data-source-line="53" data-uid="lnk12" id="link_Position_Person"><path codeLine="53" d="M159.8829,428.5438 C186.8829,475.7338 210.2287,516.5078 238.7487,566.3378" fill="none" id="Position-Person" style="stroke:#181818;stroke-width:1;"/><line style="stroke:#181818;stroke-width:1;" x1="154.4246" x2="161.3683" y1="427.0583" y2="423.0854"/><line style="stroke:#181818;stroke-width:1;" x1="155.9144" x2="162.8582" y1="429.6623" y2="425.6893"/><line style="stroke:#181818;stroke-width:1;" x1="159.8829" x2="155.91" y1="428.5438" y2="421.6"/><line style="stroke:#181818;stroke-width:1;" x1="243.7161" x2="252.8974" y1="575.0168" y2="578.9796"/><line style="stroke:#181818;stroke-width:1;" x1="243.7161" x2="242.4826" y1="575.0168" y2="584.9404"/><line style="stroke:#181818;stroke-width:1;" x1="243.7161" x2="247.69" y1="575.0168" y2="581.96"/><ellipse cx="240.7357" cy="569.8094" fill="none" rx="4" ry="4" style="stroke:#181818;stroke-width:1;"/></g><!--link OrganisationUnit to Geolocation--><g class="link" data-entity-1="OrganisationUnit" data-entity-2="Geolocation" data-source-line="67" data-uid="lnk14" id="link_OrganisationUnit_Geolocation"><path codeLine="67" d="M1189.6973,1019.3182 C1167.7573,1039.8082 1169.2943,1038.3732 1149.8843,1056.5032" fill="none" id="OrganisationUnit-Geolocation" style="stroke:#181818;stroke-width:1;"/><line style="stroke:#181818;stroke-width:1;" x1="1192.6207" x2="1200.66" y1="1016.588" y2="1009.08"/><ellipse cx="1192.6207" cy="1016.588" fill="none" rx="4" ry="4" style="stroke:#181818;stroke-width:1;"/><line style="stroke:#181818;stroke-width:1;" x1="1195.0064" x2="1200.4668" y1="1008.8868" y2="1014.7336"/><line style="stroke:#181818;stroke-width:1;" x1="1142.5763" x2="1140.8256" y1="1063.3292" y2="1073.1748"/><line style="stroke:#181818;stroke-width:1;" x1="1142.5763" x2="1132.6344" y1="1063.3292" y2="1064.4052"/><line style="stroke:#181818;stroke-width:1;" x1="1142.5763" x2="1136.73" y1="1063.3292" y2="1068.79"/><ellipse cx="1146.9611" cy="1059.2336" fill="none" rx="4" ry="4" style="stroke:#181818;stroke-width:1;"/></g><!--link OrganisationUnit to OrganisationUnit--><g class="link" data-entity-1="OrganisationUnit" data-entity-2="OrganisationUnit" data-source-line="68" data-uid="lnk15" id="link_OrganisationUnit_OrganisationUnit"><path codeLine="68" d="M1449.6851,889.1854 C1470.4751,894.4854 1470,902.12 1470,919.5 C1470,936.88 1473.3821,943.7735 1452.5921,949.0735" fill="none" id="OrganisationUnit-OrganisationUnit" style="stroke:#181818;stroke-width:1;"/><line style="stroke:#181818;stroke-width:1;" x1="1445.8091" x2="1435.15" y1="888.1973" y2="885.48"/><ellipse cx="1445.8091" cy="888.1973" fill="none" rx="4" ry="4" style="stroke:#181818;stroke-width:1;"/><line style="stroke:#181818;stroke-width:1;" x1="1438.0379" x2="1440.0141" y1="890.3441" y2="882.5921"/><line style="stroke:#181818;stroke-width:1;" x1="1442.9021" x2="1436.6322" y1="951.5438" y2="959.334"/><line style="stroke:#181818;stroke-width:1;" x1="1442.9021" x2="1433.6678" y1="951.5438" y2="947.706"/><line style="stroke:#181818;stroke-width:1;" x1="1442.9021" x2="1435.15" y1="951.5438" y2="953.52"/><ellipse cx="1448.7161" cy="950.0616" fill="none" rx="4" ry="4" style="stroke:#181818;stroke-width:1;"/></g><!--link Document to ResearchArea--><g class="link" data-entity-1="Document" data-entity-2="ResearchArea" data-source-line="98" data-uid="lnk18" id="link_Document_ResearchArea"><path codeLine="98" d="M770.5367,439.3497 C722.9567,471.3697 690.79,503.59 664.5,556 C621.86,641.02 632.62,680.39 664.5,770 C675.82,801.8 685.2655,818.2376 706.9355,842.7776" fill="none" id="Document-ResearchArea" style="stroke:#181818;stroke-width:1;"/><line style="stroke:#181818;stroke-width:1;" x1="778.833" x2="782.1201" y1="433.7665" y2="424.3222"/><line style="stroke:#181818;stroke-width:1;" x1="778.833" x2="788.8199" y1="433.7665" y2="434.2778"/><line style="stroke:#181818;stroke-width:1;" x1="778.833" x2="785.47" y1="433.7665" y2="429.3"/><ellipse cx="773.8552" cy="437.1164" fill="none" rx="4" ry="4" style="stroke:#181818;stroke-width:1;"/><line style="stroke:#181818;stroke-width:1;" x1="713.5547" x2="723.3475" y1="850.2734" y2="852.2985"/><line style="stroke:#181818;stroke-width:1;" x1="713.5547" x2="714.3525" y1="850.2734" y2="860.2415"/><line style="stroke:#181818;stroke-width:1;" x1="713.5547" x2="718.85" y1="850.2734" y2="856.27"/><ellipse cx="709.5832" cy="845.7759" fill="none" rx="4" ry="4" style="stroke:#181818;stroke-width:1;"/></g><!--link Document to Citation--><g class="link" data-entity-1="Document" data-entity-2="Citation" data-source-line="99" data-uid="lnk20" id="link_Document_Citation"><path codeLine="99" d="M1100.6127,412.7184 C1182.6727,446.2484 1265.76,489.42 1339.5,556 C1365.52,579.49 1381.8776,608.1338 1392.9876,631.5238" fill="none" id="Document-Citation" style="stroke:#181818;stroke-width:1;"/><line style="stroke:#181818;stroke-width:1;" x1="1091.3556" x2="1081.6805" y1="408.936" y2="411.4642"/><line style="stroke:#181818;stroke-width:1;" x1="1091.3556" x2="1086.2195" y1="408.936" y2="400.3558"/><line style="stroke:#181818;stroke-width:1;" x1="1091.3556" x2="1083.95" y1="408.936" y2="405.91"/><ellipse cx="1096.9099" cy="411.2054" fill="none" rx="4" ry="4" style="stroke:#181818;stroke-width:1;"/><line style="stroke:#181818;stroke-width:1;" x1="1398.3169" x2="1391.0907" y1="633.4207" y2="636.8531"/><line style="stroke:#181818;stroke-width:1;" x1="1397.0298" x2="1389.8035" y1="630.7108" y2="634.1432"/><line style="stroke:#181818;stroke-width:1;" x1="1392.9876" x2="1396.42" y1="631.5238" y2="638.75"/></g><!--link Document to Document--><g class="link" data-entity-1="Document" data-entity-2="Document" data-source-line="100" data-uid="lnk21" id="link_Document_Document"><path codeLine="100" d="M1097.7,312.5921 C1118.62,320.0921 1118.5,330.35 1118.5,353.5 C1118.5,376.65 1121.444,385.8954 1100.524,393.3954" fill="none" id="Document-Document" style="stroke:#181818;stroke-width:1;"/><line style="stroke:#181818;stroke-width:1;" x1="1093.9347" x2="1083.58" y1="311.2422" y2="307.53"/><ellipse cx="1093.9347" cy="311.2422" fill="none" rx="4" ry="4" style="stroke:#181818;stroke-width:1;"/><line style="stroke:#181818;stroke-width:1;" x1="1085.9954" x2="1088.6952" y1="312.6452" y2="305.1146"/><line style="stroke:#181818;stroke-width:1;" x1="1091.1107" x2="1085.6049" y1="396.7702" y2="405.118"/><line style="stroke:#181818;stroke-width:1;" x1="1091.1107" x2="1081.5551" y1="396.7702" y2="393.822"/><line style="stroke:#181818;stroke-width:1;" x1="1091.1107" x2="1083.58" y1="396.7702" y2="399.47"/><ellipse cx="1096.7587" cy="394.7453" fill="none" rx="4" ry="4" style="stroke:#181818;stroke-width:1;"/></g><!--link Document to OrganisationUnit--><g class="link" data-entity-1="Document" data-entity-2="OrganisationUnit" data-source-line="101" data-uid="lnk22" id="link_Document_OrganisationUnit"><path codeLine="101" d="M1097.2724,409.3878 C1169.0124,441.0578 1234.98,484.04 1278.5,556 C1328.38,638.49 1327.2344,734.0379 1316.2044,811.9079" fill="none" id="Document-OrganisationUnit" style="stroke:#181818;stroke-width:1;"/><line style="stroke:#181818;stroke-width:1;" x1="1093.6131" x2="1083.55" y1="407.7724" y2="403.33"/><ellipse cx="1093.6131" cy="407.7724" fill="none" rx="4" ry="4" style="stroke:#181818;stroke-width:1;"/><line style="stroke:#181818;stroke-width:1;" x1="1085.5939" x2="1088.8247" y1="408.6047" y2="401.2861"/><line style="stroke:#181818;stroke-width:1;" x1="1314.802" x2="1319.6207" y1="821.8091" y2="830.5715"/><line style="stroke:#181818;stroke-width:1;" x1="1314.802" x2="1307.7393" y1="821.8091" y2="828.8885"/><line style="stroke:#181818;stroke-width:1;" x1="1314.802" x2="1313.68" y1="821.8091" y2="829.73"/><ellipse cx="1315.6434" cy="815.8684" fill="none" rx="4" ry="4" style="stroke:#181818;stroke-width:1;"/></g><!--link Person to Authorship--><g class="link" data-entity-1="Person" data-entity-2="Authorship" data-source-line="112" data-uid="lnk24" id="link_Person_Authorship"><path codeLine="112" d="M374.5815,757.7973 C404.3015,792.1773 417.0604,806.9422 445.4404,839.7722" fill="none" id="Person-Authorship" style="stroke:#181818;stroke-width:1;"/><line style="stroke:#181818;stroke-width:1;" x1="368.0418" x2="358.2709" y1="750.2321" y2="748.1038"/><line style="stroke:#181818;stroke-width:1;" x1="368.0418" x2="367.3491" y1="750.2321" y2="740.2562"/><line style="stroke:#181818;stroke-width:1;" x1="368.0418" x2="362.81" y1="750.2321" y2="744.18"/><ellipse cx="371.9656" cy="754.7712" fill="none" rx="4" ry="4" style="stroke:#181818;stroke-width:1;"/><line style="stroke:#181818;stroke-width:1;" x1="448.0563" x2="455.25" y1="842.7983" y2="851.12"/><ellipse cx="448.0563" cy="842.7983" fill="none" rx="4" ry="4" style="stroke:#181818;stroke-width:1;"/><line style="stroke:#181818;stroke-width:1;" x1="455.6602" x2="449.608" y1="845.478" y2="850.7098"/></g><!--link Document to Authorship--><g class="link" data-entity-1="Document" data-entity-2="Authorship" data-source-line="113" data-uid="lnk25" id="link_Document_Authorship"><path codeLine="113" d="M769.6264,434.2584 C713.6964,467.1684 669.38,501.98 628.5,556 C561.36,644.71 533.9687,765.7788 522.2787,843.5788" fill="none" id="Document-Authorship" style="stroke:#181818;stroke-width:1;"/><line style="stroke:#181818;stroke-width:1;" x1="778.2451" x2="782.0972" y1="429.1871" y2="419.9588"/><line style="stroke:#181818;stroke-width:1;" x1="778.2451" x2="788.1828" y1="429.1871" y2="430.3012"/><line style="stroke:#181818;stroke-width:1;" x1="778.2451" x2="785.14" y1="429.1871" y2="425.13"/><ellipse cx="773.0739" cy="432.2299" fill="none" rx="4" ry="4" style="stroke:#181818;stroke-width:1;"/><line style="stroke:#181818;stroke-width:1;" x1="525.64" x2="517.7288" y1="848.1288" y2="846.94"/><line style="stroke:#181818;stroke-width:1;" x1="526.0857" x2="518.1745" y1="845.1621" y2="843.9734"/><line style="stroke:#181818;stroke-width:1;" x1="522.2787" x2="521.09" y1="843.5788" y2="851.49"/></g><!--link Journal to ResearchArea--><g class="link" data-entity-1="Journal" data-entity-2="ResearchArea" data-source-line="125" data-uid="lnk27" id="link_Journal_ResearchArea"><path codeLine="125" d="M813.387,162.6591 C791.977,180.3591 784.92,189.13 768.5,211 C669.13,343.32 660.2,393.59 628.5,556 C610.28,649.35 590.88,682.64 628.5,770 C642.89,803.43 655.4281,820.925 682.2081,844.575" fill="none" id="Journal-ResearchArea" style="stroke:#181818;stroke-width:1;"/><line style="stroke:#181818;stroke-width:1;" x1="821.0942" x2="823.437" y1="156.2874" y2="146.5657"/><line style="stroke:#181818;stroke-width:1;" x1="821.0942" x2="831.083" y1="156.2874" y2="155.8143"/><line style="stroke:#181818;stroke-width:1;" x1="821.0942" x2="827.26" y1="156.2874" y2="151.19"/><ellipse cx="816.4699" cy="160.1104" fill="none" rx="4" ry="4" style="stroke:#181818;stroke-width:1;"/><line style="stroke:#181818;stroke-width:1;" x1="689.7036" x2="699.6717" y1="851.1944" y2="851.9927"/><line style="stroke:#181818;stroke-width:1;" x1="689.7036" x2="691.7283" y1="851.1944" y2="860.9873"/><line style="stroke:#181818;stroke-width:1;" x1="689.7036" x2="695.7" y1="851.1944" y2="856.49"/><ellipse cx="685.2063" cy="847.2228" fill="none" rx="4" ry="4" style="stroke:#181818;stroke-width:1;"/></g><!--link Journal to OrganisationUnit--><g class="link" data-entity-1="Journal" data-entity-2="OrganisationUnit" data-source-line="126" data-uid="lnk28" id="link_Journal_OrganisationUnit"><path codeLine="126" d="M1078.8944,158.9204 C1209.2244,237.9904 1387.22,371.46 1463.5,556 C1499.83,643.9 1502.58,683.29 1463.5,770 C1453.58,792 1451.0528,799.0532 1434.0628,816.8132" fill="none" id="Journal-OrganisationUnit" style="stroke:#181818;stroke-width:1;"/><line style="stroke:#181818;stroke-width:1;" x1="1075.4745" x2="1066.07" y1="156.8457" y2="151.14"/><ellipse cx="1075.4745" cy="156.8457" fill="none" rx="4" ry="4" style="stroke:#181818;stroke-width:1;"/><line style="stroke:#181818;stroke-width:1;" x1="1067.4151" x2="1071.5646" y1="156.6346" y2="149.7949"/><line style="stroke:#181818;stroke-width:1;" x1="1427.1502" x2="1425.9556" y1="824.0392" y2="833.9676"/><line style="stroke:#181818;stroke-width:1;" x1="1427.1502" x2="1417.2844" y1="824.0392" y2="825.6724"/><line style="stroke:#181818;stroke-width:1;" x1="1427.1502" x2="1421.62" y1="824.0392" y2="829.82"/><ellipse cx="1431.2978" cy="819.7036" fill="none" rx="4" ry="4" style="stroke:#181818;stroke-width:1;"/></g><!--link Journal to Document--><g class="link" data-entity-1="Journal" data-entity-2="Document" data-source-line="127" data-uid="lnk29" id="link_Journal_Document"><path codeLine="127" d="M934.5,169.24 C934.5,187.69 934.5,175.22 934.5,195.91" fill="none" id="Journal-Document" style="stroke:#181818;stroke-width:1;"/><line style="stroke:#181818;stroke-width:1;" x1="934.5" x2="928.5" y1="159.24" y2="151.24"/><line style="stroke:#181818;stroke-width:1;" x1="934.5" x2="940.5" y1="159.24" y2="151.24"/><line style="stroke:#181818;stroke-width:1;" x1="934.5" x2="934.5" y1="159.24" y2="151.24"/><ellipse cx="934.5" cy="165.24" fill="none" rx="4" ry="4" style="stroke:#181818;stroke-width:1;"/><line style="stroke:#181818;stroke-width:1;" x1="934.5" x2="934.5" y1="199.91" y2="210.91"/><ellipse cx="934.5" cy="199.91" fill="none" rx="4" ry="4" style="stroke:#181818;stroke-width:1;"/><line style="stroke:#181818;stroke-width:1;" x1="938.5" x2="930.5" y1="206.91" y2="206.91"/></g><!--link Event to ResearchArea--><g class="link" data-entity-1="Event" data-entity-2="ResearchArea" data-source-line="140" data-uid="lnk31" id="link_Event_ResearchArea"><path codeLine="140" d="M785.5,762.18 C785.5,798.46 785.5,804.68 785.5,838.48" fill="none" id="Event-ResearchArea" style="stroke:#181818;stroke-width:1;"/><line style="stroke:#181818;stroke-width:1;" x1="785.5" x2="779.5" y1="752.18" y2="744.18"/><line style="stroke:#181818;stroke-width:1;" x1="785.5" x2="791.5" y1="752.18" y2="744.18"/><line style="stroke:#181818;stroke-width:1;" x1="785.5" x2="785.5" y1="752.18" y2="744.18"/><ellipse cx="785.5" cy="758.18" fill="none" rx="4" ry="4" style="stroke:#181818;stroke-width:1;"/><line style="stroke:#181818;stroke-width:1;" x1="785.5" x2="791.5" y1="848.48" y2="856.48"/><line style="stroke:#181818;stroke-width:1;" x1="785.5" x2="779.5" y1="848.48" y2="856.48"/><line style="stroke:#181818;stroke-width:1;" x1="785.5" x2="785.5" y1="848.48" y2="856.48"/><ellipse cx="785.5" cy="842.48" fill="none" rx="4" ry="4" style="stroke:#181818;stroke-width:1;"/></g><!--link Event to Geolocation--><g class="link" data-entity-1="Event" data-entity-2="Geolocation" data-source-line="141" data-uid="lnk32" id="link_Event_Geolocation"><path codeLine="141" d="M888.8846,754.8375 C915.0446,780.4675 931.39,799.62 952.5,830 C1005.94,906.91 1040.2795,992.1355 1061.2795,1051.9755" fill="none" id="Event-Geolocation" style="stroke:#181818;stroke-width:1;"/><line style="stroke:#181818;stroke-width:1;" x1="886.0274" x2="878.17" y1="752.0382" y2="744.34"/><ellipse cx="886.0274" cy="752.0382" fill="none" rx="4" ry="4" style="stroke:#181818;stroke-width:1;"/><line style="stroke:#181818;stroke-width:1;" x1="878.2279" x2="883.8266" y1="749.9966" y2="744.2821"/><line style="stroke:#181818;stroke-width:1;" x1="1064.5909" x2="1072.9015" y1="1061.4113" y2="1066.9732"/><line style="stroke:#181818;stroke-width:1;" x1="1064.5909" x2="1061.5785" y1="1061.4113" y2="1070.9468"/><line style="stroke:#181818;stroke-width:1;" x1="1064.5909" x2="1067.24" y1="1061.4113" y2="1068.96"/><ellipse cx="1062.6041" cy="1055.7498" fill="none" rx="4" ry="4" style="stroke:#181818;stroke-width:1;"/></g><!--link Document to Event--><g class="link" data-entity-1="Document" data-entity-2="Event" data-source-line="142" data-uid="lnk33" id="link_Document_Event"><path codeLine="142" d="M859.3508,509.5996 C845.0708,539.0796 844.8748,539.4494 832.1348,565.7594" fill="none" id="Document-Event" style="stroke:#181818;stroke-width:1;"/><line style="stroke:#181818;stroke-width:1;" x1="861.0946" x2="865.89" y1="505.9997" y2="496.1"/><ellipse cx="861.0946" cy="505.9997" fill="none" rx="4" ry="4" style="stroke:#181818;stroke-width:1;"/><line style="stroke:#181818;stroke-width:1;" x1="860.5463" x2="867.7461" y1="497.9561" y2="501.4437"/><line style="stroke:#181818;stroke-width:1;" x1="827.7766" x2="829.6902" y1="574.7597" y2="584.5749"/><line style="stroke:#181818;stroke-width:1;" x1="827.7766" x2="818.8898" y1="574.7597" y2="579.3451"/><line style="stroke:#181818;stroke-width:1;" x1="827.7766" x2="824.29" y1="574.7597" y2="581.96"/><ellipse cx="830.3915" cy="569.3595" fill="none" rx="4" ry="4" style="stroke:#181818;stroke-width:1;"/></g><!--link Grant to ResearchArea--><g class="link" data-entity-1="Grant" data-entity-2="ResearchArea" data-source-line="158" data-uid="lnk35" id="link_Grant_ResearchArea"><path codeLine="158" d="M945.5909,781.778 C911.2509,811.098 902.4889,818.5918 872.1089,844.5318" fill="none" id="Grant-ResearchArea" style="stroke:#181818;stroke-width:1;"/><line style="stroke:#181818;stroke-width:1;" x1="953.196" x2="955.384" y1="775.2846" y2="765.527"/><line style="stroke:#181818;stroke-width:1;" x1="953.196" x2="963.176" y1="775.2846" y2="774.653"/><line style="stroke:#181818;stroke-width:1;" x1="953.196" x2="959.28" y1="775.2846" y2="770.09"/><ellipse cx="948.6329" cy="779.1806" fill="none" rx="4" ry="4" style="stroke:#181818;stroke-width:1;"/><line style="stroke:#181818;stroke-width:1;" x1="864.5039" x2="862.3161" y1="851.0252" y2="860.783"/><line style="stroke:#181818;stroke-width:1;" x1="864.5039" x2="854.5239" y1="851.0252" y2="851.657"/><line style="stroke:#181818;stroke-width:1;" x1="864.5039" x2="858.42" y1="851.0252" y2="856.22"/><ellipse cx="869.0669" cy="847.1291" fill="none" rx="4" ry="4" style="stroke:#181818;stroke-width:1;"/></g><!--link Grant to OrganisationUnit--><g class="link" data-entity-1="Grant" data-entity-2="OrganisationUnit" data-source-line="159" data-uid="lnk36" id="link_Grant_OrganisationUnit"><path codeLine="159" d="M1181.4722,781.6138 C1198.0622,801.5238 1194.1174,796.8014 1210.2074,816.1114" fill="none" id="Grant-OrganisationUnit" style="stroke:#181818;stroke-width:1;"/><line style="stroke:#181818;stroke-width:1;" x1="1178.9116" x2="1171.87" y1="778.5408" y2="770.09"/><ellipse cx="1178.9116" cy="778.5408" fill="none" rx="4" ry="4" style="stroke:#181818;stroke-width:1;"/><line style="stroke:#181818;stroke-width:1;" x1="1171.3576" x2="1177.5036" y1="775.7236" y2="770.6024"/><line style="stroke:#181818;stroke-width:1;" x1="1216.6088" x2="1226.3395" y1="823.794" y2="826.0991"/><line style="stroke:#181818;stroke-width:1;" x1="1216.6088" x2="1217.1205" y1="823.794" y2="833.7809"/><line style="stroke:#181818;stroke-width:1;" x1="1216.6088" x2="1221.73" y1="823.794" y2="829.94"/><ellipse cx="1212.768" cy="819.1844" fill="none" rx="4" ry="4" style="stroke:#181818;stroke-width:1;"/></g><!--link Grant to Geolocation--><g class="link" data-entity-1="Grant" data-entity-2="Geolocation" data-source-line="160" data-uid="lnk37" id="link_Grant_Geolocation"><path codeLine="160" d="M1083.5,785.27 C1083.5,879.32 1083.5,979.39 1083.5,1050.73" fill="none" id="Grant-Geolocation" style="stroke:#181818;stroke-width:1;"/><line style="stroke:#181818;stroke-width:1;" x1="1083.5" x2="1083.5" y1="781.27" y2="770.27"/><ellipse cx="1083.5" cy="781.27" fill="none" rx="4" ry="4" style="stroke:#181818;stroke-width:1;"/><line style="stroke:#181818;stroke-width:1;" x1="1079.5" x2="1087.5" y1="774.27" y2="774.27"/><line style="stroke:#181818;stroke-width:1;" x1="1083.5" x2="1089.5" y1="1060.73" y2="1068.73"/><line style="stroke:#181818;stroke-width:1;" x1="1083.5" x2="1077.5" y1="1060.73" y2="1068.73"/><line style="stroke:#181818;stroke-width:1;" x1="1083.5" x2="1083.5" y1="1060.73" y2="1068.73"/><ellipse cx="1083.5" cy="1054.73" fill="none" rx="4" ry="4" style="stroke:#181818;stroke-width:1;"/></g><!--link Grant to Grant--><g class="link" data-entity-1="Grant" data-entity-2="Grant" data-source-line="161" data-uid="lnk38" id="link_Grant_Grant"><path codeLine="161" d="M1256.765,625.547 C1277.765,632.767 1277.5,642 1277.5,663 C1277.5,684 1280.602,692.2577 1259.602,699.4777" fill="none" id="Grant-Grant" style="stroke:#181818;stroke-width:1;"/><line style="stroke:#181818;stroke-width:1;" x1="1252.9824" x2="1242.58" y1="624.2464" y2="620.67"/><ellipse cx="1252.9824" cy="624.2464" fill="none" rx="4" ry="4" style="stroke:#181818;stroke-width:1;"/><line style="stroke:#181818;stroke-width:1;" x1="1245.0622" x2="1247.6632" y1="625.7532" y2="618.1878"/><line style="stroke:#181818;stroke-width:1;" x1="1250.1454" x2="1244.5308" y1="702.729" y2="711.004"/><line style="stroke:#181818;stroke-width:1;" x1="1250.1454" x2="1240.6292" y1="702.729" y2="699.656"/><line style="stroke:#181818;stroke-width:1;" x1="1250.1454" x2="1242.58" y1="702.729" y2="705.33"/><ellipse cx="1255.8194" cy="700.7782" fill="none" rx="4" ry="4" style="stroke:#181818;stroke-width:1;"/></g><!--link Investigatorship to Person--><g class="link" data-entity-1="Investigatorship" data-entity-2="Person" data-source-line="170" data-uid="lnk40" id="link_Investigatorship_Person"><path codeLine="170" d="M338.1919,412.1251 C329.6219,460.0551 321.0781,507.781 311.0281,563.991" fill="none" id="Investigatorship-Person" style="stroke:#181818;stroke-width:1;"/><line style="stroke:#181818;stroke-width:1;" x1="334.9584" x2="342.8335" y1="407.4835" y2="408.8916"/><line style="stroke:#181818;stroke-width:1;" x1="334.4304" x2="342.3055" y1="410.4367" y2="411.8448"/><line style="stroke:#181818;stroke-width:1;" x1="338.1919" x2="339.6" y1="412.1251" y2="404.25"/><line style="stroke:#181818;stroke-width:1;" x1="309.268" x2="313.7663" y1="573.8349" y2="582.766"/><line style="stroke:#181818;stroke-width:1;" x1="309.268" x2="301.9537" y1="573.8349" y2="580.654"/><line style="stroke:#181818;stroke-width:1;" x1="309.268" x2="307.86" y1="573.8349" y2="581.71"/><ellipse cx="310.324" cy="567.9285" fill="none" rx="4" ry="4" style="stroke:#181818;stroke-width:1;"/></g><!--link Investigatorship to Grant--><g class="link" data-entity-1="Investigatorship" data-entity-2="Grant" data-source-line="171" data-uid="lnk41" id="link_Investigatorship_Grant"><path codeLine="171" d="M441.3895,381.972 C552.6395,416.032 744.59,479.17 906.5,556 C912.32,558.76 902.1761,553.48 908.0761,556.49" fill="none" id="Investigatorship-Grant" style="stroke:#181818;stroke-width:1;"/><line style="stroke:#181818;stroke-width:1;" x1="436.3938" x2="438.7357" y1="384.6257" y2="376.9762"/><line style="stroke:#181818;stroke-width:1;" x1="439.2624" x2="441.6043" y1="385.504" y2="377.8545"/><line style="stroke:#181818;stroke-width:1;" x1="441.3895" x2="433.74" y1="381.972" y2="379.63"/><line style="stroke:#181818;stroke-width:1;" x1="916.9838" x2="926.8367" y1="561.0344" y2="559.3254"/><line style="stroke:#181818;stroke-width:1;" x1="916.9838" x2="921.3833" y1="561.0344" y2="570.0146"/><line style="stroke:#181818;stroke-width:1;" x1="916.9838" x2="924.11" y1="561.0344" y2="564.67"/><ellipse cx="911.6392" cy="558.3078" fill="none" rx="4" ry="4" style="stroke:#181818;stroke-width:1;"/></g><!--link Document to Grant--><g class="link" data-entity-1="Document" data-entity-2="Grant" data-source-line="173" data-uid="lnk42" id="link_Document_Grant"><path codeLine="173" d="M1010.9586,512.2988 C1020.6586,532.3188 1014.8033,520.2103 1024.1033,539.4103" fill="none" id="Document-Grant" style="stroke:#181818;stroke-width:1;"/><line style="stroke:#181818;stroke-width:1;" x1="1006.5982" x2="997.7104" y1="503.2995" y2="498.7162"/><line style="stroke:#181818;stroke-width:1;" x1="1006.5982" x2="1008.5096" y1="503.2995" y2="493.4838"/><line style="stroke:#181818;stroke-width:1;" x1="1006.5982" x2="1003.11" y1="503.2995" y2="496.1"/><ellipse cx="1009.2144" cy="508.699" fill="none" rx="4" ry="4" style="stroke:#181818;stroke-width:1;"/><line style="stroke:#181818;stroke-width:1;" x1="1028.4626" x2="1037.3499" y1="548.4101" y2="552.9944"/><line style="stroke:#181818;stroke-width:1;" x1="1028.4626" x2="1026.5501" y1="548.4101" y2="558.2256"/><line style="stroke:#181818;stroke-width:1;" x1="1028.4626" x2="1031.95" y1="548.4101" y2="555.61"/><ellipse cx="1025.847" cy="543.0103" fill="none" rx="4" ry="4" style="stroke:#181818;stroke-width:1;"/></g><!--SRC=[fLRRZfmm37tdA_Y1-O5gjTAgbrNRXrQL-em2U9XKJ8AIG3jQzj_hN24GM3gT5oQsYO-FdHE0AQfk-JFmbbT4KSxobop7NpDP2bhdxtBMNqiG-SD30mm4KL0_Ffh8qyayAbu3XYdueyoQaMjOlsRPFCF8JoV-Ca-QPM21_009H5IN9m748H7EL12q7SCopwtNDSXAqCuadvbTjEmx4CLUcazVSNyi8aBdgfZRGXdVGSX0PMSMnv2VgP1g2P-h2m9SMbkIY1ILIRCiiUEI9bhfwtAed-g1IYxaXNOEEj4MoXfafpMDqhv2tReeAx7l5Sb2JGv3i-fhJBGJXKWSSQ-Qst4EQCSJkROQuWZmBKdpiT4KtA6D2buI81KHghXXsh2RiGEh5rPTeeSoZWQlHH-GVXCDOLGQjdyogXnYFZCNFThlEmcaB0KCb2oFmh8YmKLYZBP5OUgoEKnleVNjNXMRa8QjcAKz2nH-u5L_nV-EkjejxsnsrvSjTKMlMrnpEW-cienuxKW3XHcFbHM7OsuRUDl7lQ9Izf0wp7hO-BdOg2kqmW2NbwFjC220zL3yuhrWfDtSLqibG-8AeWeODX1CilAUAgiThX-LNnySOUkFM9U8i4fniyS98WgJaTAAo3cE0VVaS9Fdrol7UYIzilRg4Wah5xMMz4Hf5HV8RyTPhNMNc1SnekIy1S9iaLHsBRavv-fYy6EogyPl4BLGsm1_HTBCvOlzOiV7LPeUfgE7Rqkly6oahl9_77air8DD3OJtRNKtUdUSni8JyN6OH2XrJlvJi-sjK-C6QDKFHQyGxfsK_PYC8oiMUOeJwqd8zF8icC10nRCWWOf6_x-F2gg_8EYPWhZl-ZKpnXME8_bD10hObVTC9GR9k57XojjnyJnmEthfJb7WkRTKfRYtdgrfZBpppiGElGXj-Sm6a8esH4Ng951hLbzvXsHbhx1LilW3QClj42-bsvh_0W00]--></g></svg>