<?xml version="1.0" encoding="us-ascii" standalone="no"?><svg xmlns="http://www.w3.org/2000/svg" xmlns:xlink="http://www.w3.org/1999/xlink" contentStyleType="text/css" height="1233px" preserveAspectRatio="none" style="width:1688px;height:1233px;background:#FFFFFF;" version="1.1" viewBox="0 0 1688 1233" width="1688px" zoomAndPan="magnify"><defs/><g><!--class Geolocation--><g id="elem_Geolocation"><rect codeLine="2" fill="#F1F1F1" height="103.8633" id="Geolocation" rx="2.5" ry="2.5" style="stroke:#181818;stroke-width:0.5;" width="249" x="972" y="1123"/><ellipse cx="1054.25" cy="1139" fill="#ADD1B2" rx="11" ry="11" style="stroke:#181818;stroke-width:1.0;"/><path d="M1053.1094,1139.7969 L1053.1094,1142.2969 L1057.4375,1142.2969 L1057.4375,1141.375 Q1057.4375,1140.7656 1057.6719,1140.5 Q1057.9219,1140.2344 1058.2969,1140.2344 Q1058.6719,1140.2344 1058.9063,1140.5 Q1059.1406,1140.7656 1059.1406,1141.375 L1059.1406,1144 L1051.1406,1144 Q1050.5156,1144 1050.25,1143.7656 Q1050,1143.5313 1050,1143.1406 Q1050,1142.7656 1050.2656,1142.5313 Q1050.5313,1142.2969 1051.1406,1142.2969 L1051.4063,1142.2969 L1051.4063,1135.6406 L1051.1406,1135.6406 Q1050.5156,1135.6406 1050.25,1135.4063 Q1050,1135.1719 1050,1134.7813 Q1050,1134.4063 1050.25,1134.1719 Q1050.5156,1133.9375 1051.1406,1133.9375 L1058.7656,1133.9375 L1058.7656,1136.5313 Q1058.7656,1137.1406 1058.5313,1137.4063 Q1058.3125,1137.6563 1057.9219,1137.6563 Q1057.5469,1137.6563 1057.3125,1137.4063 Q1057.0781,1137.1406 1057.0781,1136.5313 L1057.0781,1135.6406 L1053.1094,1135.6406 L1053.1094,1138.0938 L1054.5938,1138.0938 Q1054.5938,1137.4375 1054.7188,1137.25 Q1054.9844,1136.8438 1055.4531,1136.8438 Q1055.8281,1136.8438 1056.0625,1137.1094 Q1056.2969,1137.3594 1056.2969,1137.9688 L1056.2969,1139.9375 Q1056.2969,1140.4844 1056.1719,1140.6719 Q1055.9063,1141.0625 1055.4531,1141.0625 Q1054.9844,1141.0625 1054.7188,1140.6563 Q1054.5938,1140.4688 1054.5938,1139.7969 L1053.1094,1139.7969 Z " fill="#000000"/><text fill="#000000" font-family="sans-serif" font-size="14" lengthAdjust="spacing" textLength="76" x="1074.75" y="1144.7969">Geolocation</text><line style="stroke:#181818;stroke-width:0.5;" x1="973" x2="1220" y1="1155" y2="1155"/><text fill="#000000" font-family="sans-serif" font-size="14" lengthAdjust="spacing" textLength="237" x="978" y="1174.1074">geolocation_id : number &#171;generated&#187;</text><line style="stroke:#181818;stroke-width:1.0;" x1="973" x2="1220" y1="1181.6211" y2="1181.6211"/><text fill="#000000" font-family="sans-serif" font-size="14" lengthAdjust="spacing" textLength="65" x="978" y="1200.7285">code : text</text><text fill="#000000" font-family="sans-serif" font-size="14" lengthAdjust="spacing" textLength="69" x="978" y="1219.3496">name : text</text></g><!--class ResearchArea--><g id="elem_ResearchArea"><rect codeLine="11" fill="#F1F1F1" height="130.4844" id="ResearchArea" rx="2.5" ry="2.5" style="stroke:#181818;stroke-width:0.5;" width="269" x="660" y="905"/><ellipse cx="744.75" cy="921" fill="#ADD1B2" rx="11" ry="11" style="stroke:#181818;stroke-width:1.0;"/><path d="M743.6094,921.7969 L743.6094,924.2969 L747.9375,924.2969 L747.9375,923.375 Q747.9375,922.7656 748.1719,922.5 Q748.4219,922.2344 748.7969,922.2344 Q749.1719,922.2344 749.4063,922.5 Q749.6406,922.7656 749.6406,923.375 L749.6406,926 L741.6406,926 Q741.0156,926 740.75,925.7656 Q740.5,925.5313 740.5,925.1406 Q740.5,924.7656 740.7656,924.5313 Q741.0313,924.2969 741.6406,924.2969 L741.9063,924.2969 L741.9063,917.6406 L741.6406,917.6406 Q741.0156,917.6406 740.75,917.4063 Q740.5,917.1719 740.5,916.7813 Q740.5,916.4063 740.75,916.1719 Q741.0156,915.9375 741.6406,915.9375 L749.2656,915.9375 L749.2656,918.5313 Q749.2656,919.1406 749.0313,919.4063 Q748.8125,919.6563 748.4219,919.6563 Q748.0469,919.6563 747.8125,919.4063 Q747.5781,919.1406 747.5781,918.5313 L747.5781,917.6406 L743.6094,917.6406 L743.6094,920.0938 L745.0938,920.0938 Q745.0938,919.4375 745.2188,919.25 Q745.4844,918.8438 745.9531,918.8438 Q746.3281,918.8438 746.5625,919.1094 Q746.7969,919.3594 746.7969,919.9688 L746.7969,921.9375 Q746.7969,922.4844 746.6719,922.6719 Q746.4063,923.0625 745.9531,923.0625 Q745.4844,923.0625 745.2188,922.6563 Q745.0938,922.4688 745.0938,921.7969 L743.6094,921.7969 Z " fill="#000000"/><text fill="#000000" font-family="sans-serif" font-size="14" lengthAdjust="spacing" textLength="91" x="765.25" y="926.7969">ResearchArea</text><line style="stroke:#181818;stroke-width:0.5;" x1="661" x2="928" y1="937" y2="937"/><text fill="#000000" font-family="sans-serif" font-size="14" lengthAdjust="spacing" textLength="257" x="666" y="956.1074">research_area_id : number &#171;generated&#187;</text><line style="stroke:#181818;stroke-width:1.0;" x1="661" x2="928" y1="963.6211" y2="963.6211"/><text fill="#000000" font-family="sans-serif" font-size="14" lengthAdjust="spacing" textLength="69" x="666" y="982.7285">name : text</text><text fill="#000000" font-family="sans-serif" font-size="14" lengthAdjust="spacing" textLength="103" x="666" y="1001.3496">description : text</text><line style="stroke:#181818;stroke-width:1.0;" x1="661" x2="928" y1="1008.8633" y2="1008.8633"/><text fill="#000000" font-family="sans-serif" font-size="14" lengthAdjust="spacing" textLength="254" x="666" y="1027.9707">super_research_area_id : number &#171;FK&#187;</text></g><!--class Person--><g id="elem_Person"><rect codeLine="22" fill="#F1F1F1" height="167.7266" id="Person" rx="2.5" ry="2.5" style="stroke:#181818;stroke-width:0.5;" width="220" x="185.5" y="621"/><ellipse cx="268.75" cy="637" fill="#ADD1B2" rx="11" ry="11" style="stroke:#181818;stroke-width:1.0;"/><path d="M267.6094,637.7969 L267.6094,640.2969 L271.9375,640.2969 L271.9375,639.375 Q271.9375,638.7656 272.1719,638.5 Q272.4219,638.2344 272.7969,638.2344 Q273.1719,638.2344 273.4063,638.5 Q273.6406,638.7656 273.6406,639.375 L273.6406,642 L265.6406,642 Q265.0156,642 264.75,641.7656 Q264.5,641.5313 264.5,641.1406 Q264.5,640.7656 264.7656,640.5313 Q265.0313,640.2969 265.6406,640.2969 L265.9063,640.2969 L265.9063,633.6406 L265.6406,633.6406 Q265.0156,633.6406 264.75,633.4063 Q264.5,633.1719 264.5,632.7813 Q264.5,632.4063 264.75,632.1719 Q265.0156,631.9375 265.6406,631.9375 L273.2656,631.9375 L273.2656,634.5313 Q273.2656,635.1406 273.0313,635.4063 Q272.8125,635.6563 272.4219,635.6563 Q272.0469,635.6563 271.8125,635.4063 Q271.5781,635.1406 271.5781,634.5313 L271.5781,633.6406 L267.6094,633.6406 L267.6094,636.0938 L269.0938,636.0938 Q269.0938,635.4375 269.2188,635.25 Q269.4844,634.8438 269.9531,634.8438 Q270.3281,634.8438 270.5625,635.1094 Q270.7969,635.3594 270.7969,635.9688 L270.7969,637.9375 Q270.7969,638.4844 270.6719,638.6719 Q270.4063,639.0625 269.9531,639.0625 Q269.4844,639.0625 269.2188,638.6563 Q269.0938,638.4688 269.0938,637.7969 L267.6094,637.7969 Z " fill="#000000"/><text fill="#000000" font-family="sans-serif" font-size="14" lengthAdjust="spacing" textLength="45" x="289.25" y="642.7969">Person</text><line style="stroke:#181818;stroke-width:0.5;" x1="186.5" x2="404.5" y1="653" y2="653"/><text fill="#000000" font-family="sans-serif" font-size="14" lengthAdjust="spacing" textLength="208" x="191.5" y="672.1074">person_id : number &#171;generated&#187;</text><line style="stroke:#181818;stroke-width:1.0;" x1="186.5" x2="404.5" y1="679.6211" y2="679.6211"/><text fill="#000000" font-family="sans-serif" font-size="14" lengthAdjust="spacing" textLength="92" x="191.5" y="698.7285">firstname : text</text><text fill="#000000" font-family="sans-serif" font-size="14" lengthAdjust="spacing" textLength="110" x="191.5" y="717.3496">other_name : text</text><text fill="#000000" font-family="sans-serif" font-size="14" lengthAdjust="spacing" textLength="91" x="191.5" y="735.9707">lastname : text</text><text fill="#000000" font-family="sans-serif" font-size="14" lengthAdjust="spacing" textLength="65" x="191.5" y="754.5918">orcid : text</text><line style="stroke:#181818;stroke-width:1.0;" x1="186.5" x2="404.5" y1="762.1055" y2="762.1055"/><text fill="#000000" font-family="sans-serif" font-size="14" lengthAdjust="spacing" textLength="166" x="191.5" y="781.2129">position_id : number &#171;FK&#187;</text></g><!--class Advisorship--><g id="elem_Advisorship"><rect codeLine="33" fill="#F1F1F1" height="103.8633" id="Advisorship" rx="2.5" ry="2.5" style="stroke:#181818;stroke-width:0.5;" width="228" x="146.5" y="918"/><ellipse cx="219.75" cy="934" fill="#ADD1B2" rx="11" ry="11" style="stroke:#181818;stroke-width:1.0;"/><path d="M218.6094,934.7969 L218.6094,937.2969 L222.9375,937.2969 L222.9375,936.375 Q222.9375,935.7656 223.1719,935.5 Q223.4219,935.2344 223.7969,935.2344 Q224.1719,935.2344 224.4063,935.5 Q224.6406,935.7656 224.6406,936.375 L224.6406,939 L216.6406,939 Q216.0156,939 215.75,938.7656 Q215.5,938.5313 215.5,938.1406 Q215.5,937.7656 215.7656,937.5313 Q216.0313,937.2969 216.6406,937.2969 L216.9063,937.2969 L216.9063,930.6406 L216.6406,930.6406 Q216.0156,930.6406 215.75,930.4063 Q215.5,930.1719 215.5,929.7813 Q215.5,929.4063 215.75,929.1719 Q216.0156,928.9375 216.6406,928.9375 L224.2656,928.9375 L224.2656,931.5313 Q224.2656,932.1406 224.0313,932.4063 Q223.8125,932.6563 223.4219,932.6563 Q223.0469,932.6563 222.8125,932.4063 Q222.5781,932.1406 222.5781,931.5313 L222.5781,930.6406 L218.6094,930.6406 L218.6094,933.0938 L220.0938,933.0938 Q220.0938,932.4375 220.2188,932.25 Q220.4844,931.8438 220.9531,931.8438 Q221.3281,931.8438 221.5625,932.1094 Q221.7969,932.3594 221.7969,932.9688 L221.7969,934.9375 Q221.7969,935.4844 221.6719,935.6719 Q221.4063,936.0625 220.9531,936.0625 Q220.4844,936.0625 220.2188,935.6563 Q220.0938,935.4688 220.0938,934.7969 L218.6094,934.7969 Z " fill="#000000"/><text fill="#000000" font-family="sans-serif" font-size="14" lengthAdjust="spacing" textLength="73" x="240.25" y="939.7969">Advisorship</text><line style="stroke:#181818;stroke-width:0.5;" x1="147.5" x2="373.5" y1="950" y2="950"/><text fill="#000000" font-family="sans-serif" font-size="14" lengthAdjust="spacing" textLength="202" x="152.5" y="969.1074">advising_relationship_type : text</text><text fill="#000000" font-family="sans-serif" font-size="14" lengthAdjust="spacing" textLength="215" x="152.5" y="987.7285">advisor_person_id : number &#171;FK&#187;</text><text fill="#000000" font-family="sans-serif" font-size="14" lengthAdjust="spacing" textLength="216" x="152.5" y="1006.3496">student_person_id : number &#171;FK&#187;</text><line style="stroke:#181818;stroke-width:0.5;" x1="147.5" x2="373.5" y1="1013.8633" y2="1013.8633"/></g><!--class Position--><g id="elem_Position"><rect codeLine="44" fill="#F1F1F1" height="141.1055" id="Position" rx="2.5" ry="2.5" style="stroke:#181818;stroke-width:0.5;" width="225" x="7" y="304"/><ellipse cx="90.25" cy="320" fill="#ADD1B2" rx="11" ry="11" style="stroke:#181818;stroke-width:1.0;"/><path d="M89.1094,320.7969 L89.1094,323.2969 L93.4375,323.2969 L93.4375,322.375 Q93.4375,321.7656 93.6719,321.5 Q93.9219,321.2344 94.2969,321.2344 Q94.6719,321.2344 94.9063,321.5 Q95.1406,321.7656 95.1406,322.375 L95.1406,325 L87.1406,325 Q86.5156,325 86.25,324.7656 Q86,324.5313 86,324.1406 Q86,323.7656 86.2656,323.5313 Q86.5313,323.2969 87.1406,323.2969 L87.4063,323.2969 L87.4063,316.6406 L87.1406,316.6406 Q86.5156,316.6406 86.25,316.4063 Q86,316.1719 86,315.7813 Q86,315.4063 86.25,315.1719 Q86.5156,314.9375 87.1406,314.9375 L94.7656,314.9375 L94.7656,317.5313 Q94.7656,318.1406 94.5313,318.4063 Q94.3125,318.6563 93.9219,318.6563 Q93.5469,318.6563 93.3125,318.4063 Q93.0781,318.1406 93.0781,317.5313 L93.0781,316.6406 L89.1094,316.6406 L89.1094,319.0938 L90.5938,319.0938 Q90.5938,318.4375 90.7188,318.25 Q90.9844,317.8438 91.4531,317.8438 Q91.8281,317.8438 92.0625,318.1094 Q92.2969,318.3594 92.2969,318.9688 L92.2969,320.9375 Q92.2969,321.4844 92.1719,321.6719 Q91.9063,322.0625 91.4531,322.0625 Q90.9844,322.0625 90.7188,321.6563 Q90.5938,321.4688 90.5938,320.7969 L89.1094,320.7969 Z " fill="#000000"/><text fill="#000000" font-family="sans-serif" font-size="14" lengthAdjust="spacing" textLength="50" x="110.75" y="325.7969">Position</text><line style="stroke:#181818;stroke-width:0.5;" x1="8" x2="231" y1="336" y2="336"/><text fill="#000000" font-family="sans-serif" font-size="14" lengthAdjust="spacing" textLength="213" x="13" y="355.1074">position_id : number &#171;generated&#187;</text><line style="stroke:#181818;stroke-width:1.0;" x1="8" x2="231" y1="362.6211" y2="362.6211"/><text fill="#000000" font-family="sans-serif" font-size="14" lengthAdjust="spacing" textLength="56" x="13" y="381.7285">title : text</text><text fill="#000000" font-family="sans-serif" font-size="14" lengthAdjust="spacing" textLength="61" x="13" y="400.3496">type : text</text><text fill="#000000" font-family="sans-serif" font-size="14" lengthAdjust="spacing" textLength="124" x="13" y="418.9707">start_year : number</text><text fill="#000000" font-family="sans-serif" font-size="14" lengthAdjust="spacing" textLength="120" x="13" y="437.5918">end_year : number</text></g><!--class OrganisationUnit--><g id="elem_OrganisationUnit"><rect codeLine="55" fill="#F1F1F1" height="186.3477" id="OrganisationUnit" rx="2.5" ry="2.5" style="stroke:#181818;stroke-width:0.5;" width="285" x="1169" y="877"/><ellipse cx="1254.75" cy="893" fill="#ADD1B2" rx="11" ry="11" style="stroke:#181818;stroke-width:1.0;"/><path d="M1253.6094,893.7969 L1253.6094,896.2969 L1257.9375,896.2969 L1257.9375,895.375 Q1257.9375,894.7656 1258.1719,894.5 Q1258.4219,894.2344 1258.7969,894.2344 Q1259.1719,894.2344 1259.4063,894.5 Q1259.6406,894.7656 1259.6406,895.375 L1259.6406,898 L1251.6406,898 Q1251.0156,898 1250.75,897.7656 Q1250.5,897.5313 1250.5,897.1406 Q1250.5,896.7656 1250.7656,896.5313 Q1251.0313,896.2969 1251.6406,896.2969 L1251.9063,896.2969 L1251.9063,889.6406 L1251.6406,889.6406 Q1251.0156,889.6406 1250.75,889.4063 Q1250.5,889.1719 1250.5,888.7813 Q1250.5,888.4063 1250.75,888.1719 Q1251.0156,887.9375 1251.6406,887.9375 L1259.2656,887.9375 L1259.2656,890.5313 Q1259.2656,891.1406 1259.0313,891.4063 Q1258.8125,891.6563 1258.4219,891.6563 Q1258.0469,891.6563 1257.8125,891.4063 Q1257.5781,891.1406 1257.5781,890.5313 L1257.5781,889.6406 L1253.6094,889.6406 L1253.6094,892.0938 L1255.0938,892.0938 Q1255.0938,891.4375 1255.2188,891.25 Q1255.4844,890.8438 1255.9531,890.8438 Q1256.3281,890.8438 1256.5625,891.1094 Q1256.7969,891.3594 1256.7969,891.9688 L1256.7969,893.9375 Q1256.7969,894.4844 1256.6719,894.6719 Q1256.4063,895.0625 1255.9531,895.0625 Q1255.4844,895.0625 1255.2188,894.6563 Q1255.0938,894.4688 1255.0938,893.7969 L1253.6094,893.7969 Z " fill="#000000"/><text fill="#000000" font-family="sans-serif" font-size="14" lengthAdjust="spacing" textLength="105" x="1275.25" y="898.7969">OrganisationUnit</text><line style="stroke:#181818;stroke-width:0.5;" x1="1170" x2="1453" y1="909" y2="909"/><text fill="#000000" font-family="sans-serif" font-size="14" lengthAdjust="spacing" textLength="273" x="1175" y="928.1074">organisation_unit_id : number &#171;generated&#187;</text><line style="stroke:#181818;stroke-width:1.0;" x1="1170" x2="1453" y1="935.6211" y2="935.6211"/><text fill="#000000" font-family="sans-serif" font-size="14" lengthAdjust="spacing" textLength="69" x="1175" y="954.7285">name : text</text><text fill="#000000" font-family="sans-serif" font-size="14" lengthAdjust="spacing" textLength="112" x="1175" y="973.3496">abbreviation : text</text><text fill="#000000" font-family="sans-serif" font-size="14" lengthAdjust="spacing" textLength="61" x="1175" y="991.9707">type : text</text><text fill="#000000" font-family="sans-serif" font-size="14" lengthAdjust="spacing" textLength="52" x="1175" y="1010.5918">ror : text</text><line style="stroke:#181818;stroke-width:1.0;" x1="1170" x2="1453" y1="1018.1055" y2="1018.1055"/><text fill="#000000" font-family="sans-serif" font-size="14" lengthAdjust="spacing" textLength="190" x="1175" y="1037.2129">geolocation_id : number &#171;FK&#187;</text><text fill="#000000" font-family="sans-serif" font-size="14" lengthAdjust="spacing" textLength="270" x="1175" y="1055.834">super_organisation_unit_id : number &#171;FK&#187;</text></g><!--class Document--><g id="elem_Document"><rect codeLine="71" fill="#F1F1F1" height="316.6953" id="Document" rx="2.5" ry="2.5" style="stroke:#181818;stroke-width:0.5;" width="304" x="793.5" y="216"/><ellipse cx="909.25" cy="232" fill="#ADD1B2" rx="11" ry="11" style="stroke:#181818;stroke-width:1.0;"/><path d="M908.1094,232.7969 L908.1094,235.2969 L912.4375,235.2969 L912.4375,234.375 Q912.4375,233.7656 912.6719,233.5 Q912.9219,233.2344 913.2969,233.2344 Q913.6719,233.2344 913.9063,233.5 Q914.1406,233.7656 914.1406,234.375 L914.1406,237 L906.1406,237 Q905.5156,237 905.25,236.7656 Q905,236.5313 905,236.1406 Q905,235.7656 905.2656,235.5313 Q905.5313,235.2969 906.1406,235.2969 L906.4063,235.2969 L906.4063,228.6406 L906.1406,228.6406 Q905.5156,228.6406 905.25,228.4063 Q905,228.1719 905,227.7813 Q905,227.4063 905.25,227.1719 Q905.5156,226.9375 906.1406,226.9375 L913.7656,226.9375 L913.7656,229.5313 Q913.7656,230.1406 913.5313,230.4063 Q913.3125,230.6563 912.9219,230.6563 Q912.5469,230.6563 912.3125,230.4063 Q912.0781,230.1406 912.0781,229.5313 L912.0781,228.6406 L908.1094,228.6406 L908.1094,231.0938 L909.5938,231.0938 Q909.5938,230.4375 909.7188,230.25 Q909.9844,229.8438 910.4531,229.8438 Q910.8281,229.8438 911.0625,230.1094 Q911.2969,230.3594 911.2969,230.9688 L911.2969,232.9375 Q911.2969,233.4844 911.1719,233.6719 Q910.9063,234.0625 910.4531,234.0625 Q909.9844,234.0625 909.7188,233.6563 Q909.5938,233.4688 909.5938,232.7969 L908.1094,232.7969 Z " fill="#000000"/><text fill="#000000" font-family="sans-serif" font-size="14" lengthAdjust="spacing" textLength="64" x="929.75" y="237.7969">Document</text><line style="stroke:#181818;stroke-width:0.5;" x1="794.5" x2="1096.5" y1="248" y2="248"/><text fill="#000000" font-family="sans-serif" font-size="14" lengthAdjust="spacing" textLength="226" x="799.5" y="267.1074">document_id : number &#171;generated&#187;</text><line style="stroke:#181818;stroke-width:1.0;" x1="794.5" x2="1096.5" y1="274.6211" y2="274.6211"/><text fill="#000000" font-family="sans-serif" font-size="14" lengthAdjust="spacing" textLength="56" x="799.5" y="293.7285">title : text</text><text fill="#000000" font-family="sans-serif" font-size="14" lengthAdjust="spacing" textLength="164" x="799.5" y="312.3496">publication_year : number</text><text fill="#000000" font-family="sans-serif" font-size="14" lengthAdjust="spacing" textLength="53" x="799.5" y="330.9707">doi : text</text><text fill="#000000" font-family="sans-serif" font-size="14" lengthAdjust="spacing" textLength="60" x="799.5" y="349.5918">isbn : text</text><text fill="#000000" font-family="sans-serif" font-size="14" lengthAdjust="spacing" textLength="102" x="799.5" y="368.2129">page_start : text</text><text fill="#000000" font-family="sans-serif" font-size="14" lengthAdjust="spacing" textLength="98" x="799.5" y="386.834">page_end : text</text><text fill="#000000" font-family="sans-serif" font-size="14" lengthAdjust="spacing" textLength="79" x="799.5" y="405.4551">volume : text</text><text fill="#000000" font-family="sans-serif" font-size="14" lengthAdjust="spacing" textLength="67" x="799.5" y="424.0762">issue : text</text><text fill="#000000" font-family="sans-serif" font-size="14" lengthAdjust="spacing" textLength="147" x="799.5" y="442.6973">open_access : boolean</text><line style="stroke:#181818;stroke-width:1.0;" x1="794.5" x2="1096.5" y1="450.2109" y2="450.2109"/><text fill="#000000" font-family="sans-serif" font-size="14" lengthAdjust="spacing" textLength="232" x="799.5" y="469.3184">part_of_document_id : number &#171;FK&#187;</text><text fill="#000000" font-family="sans-serif" font-size="14" lengthAdjust="spacing" textLength="292" x="799.5" y="487.9395">publisher_organisation_unit_id : number &#171;FK&#187;</text><text fill="#000000" font-family="sans-serif" font-size="14" lengthAdjust="spacing" textLength="207" x="799.5" y="506.5605">venue_journal_id : number &#171;FK&#187;</text><text fill="#000000" font-family="sans-serif" font-size="14" lengthAdjust="spacing" textLength="244" x="799.5" y="525.1816">presented_at_event_id : number &#171;FK&#187;</text></g><!--class Citations--><g id="elem_Citations"><rect codeLine="90" fill="#F1F1F1" height="130.4844" id="Citations" rx="2.5" ry="2.5" style="stroke:#181818;stroke-width:0.5;" width="228" x="1382.5" y="640"/><ellipse cx="1464.75" cy="656" fill="#ADD1B2" rx="11" ry="11" style="stroke:#181818;stroke-width:1.0;"/><path d="M1463.6094,656.7969 L1463.6094,659.2969 L1467.9375,659.2969 L1467.9375,658.375 Q1467.9375,657.7656 1468.1719,657.5 Q1468.4219,657.2344 1468.7969,657.2344 Q1469.1719,657.2344 1469.4063,657.5 Q1469.6406,657.7656 1469.6406,658.375 L1469.6406,661 L1461.6406,661 Q1461.0156,661 1460.75,660.7656 Q1460.5,660.5313 1460.5,660.1406 Q1460.5,659.7656 1460.7656,659.5313 Q1461.0313,659.2969 1461.6406,659.2969 L1461.9063,659.2969 L1461.9063,652.6406 L1461.6406,652.6406 Q1461.0156,652.6406 1460.75,652.4063 Q1460.5,652.1719 1460.5,651.7813 Q1460.5,651.4063 1460.75,651.1719 Q1461.0156,650.9375 1461.6406,650.9375 L1469.2656,650.9375 L1469.2656,653.5313 Q1469.2656,654.1406 1469.0313,654.4063 Q1468.8125,654.6563 1468.4219,654.6563 Q1468.0469,654.6563 1467.8125,654.4063 Q1467.5781,654.1406 1467.5781,653.5313 L1467.5781,652.6406 L1463.6094,652.6406 L1463.6094,655.0938 L1465.0938,655.0938 Q1465.0938,654.4375 1465.2188,654.25 Q1465.4844,653.8438 1465.9531,653.8438 Q1466.3281,653.8438 1466.5625,654.1094 Q1466.7969,654.3594 1466.7969,654.9688 L1466.7969,656.9375 Q1466.7969,657.4844 1466.6719,657.6719 Q1466.4063,658.0625 1465.9531,658.0625 Q1465.4844,658.0625 1465.2188,657.6563 Q1465.0938,657.4688 1465.0938,656.7969 L1463.6094,656.7969 Z " fill="#000000"/><text fill="#000000" font-family="sans-serif" font-size="14" lengthAdjust="spacing" textLength="55" x="1485.25" y="661.7969">Citations</text><line style="stroke:#181818;stroke-width:0.5;" x1="1383.5" x2="1609.5" y1="672" y2="672"/><text fill="#000000" font-family="sans-serif" font-size="14" lengthAdjust="spacing" textLength="216" x="1388.5" y="691.1074">citations_id : number &#171;generated&#187;</text><line style="stroke:#181818;stroke-width:1.0;" x1="1383.5" x2="1609.5" y1="698.6211" y2="698.6211"/><text fill="#000000" font-family="sans-serif" font-size="14" lengthAdjust="spacing" textLength="108" x="1388.5" y="717.7285">number : number</text><text fill="#000000" font-family="sans-serif" font-size="14" lengthAdjust="spacing" textLength="77" x="1388.5" y="736.3496">source : text</text><line style="stroke:#181818;stroke-width:1.0;" x1="1383.5" x2="1609.5" y1="743.8633" y2="743.8633"/><text fill="#000000" font-family="sans-serif" font-size="14" lengthAdjust="spacing" textLength="179" x="1388.5" y="762.9707">document_id : number &#171;FK&#187;</text></g><!--class Authorship--><g id="elem_Authorship"><rect codeLine="104" fill="#F1F1F1" height="141.1055" id="Authorship" rx="2.5" ry="2.5" style="stroke:#181818;stroke-width:0.5;" width="215" x="410" y="899.5"/><ellipse cx="479.25" cy="915.5" fill="#ADD1B2" rx="11" ry="11" style="stroke:#181818;stroke-width:1.0;"/><path d="M478.1094,916.2969 L478.1094,918.7969 L482.4375,918.7969 L482.4375,917.875 Q482.4375,917.2656 482.6719,917 Q482.9219,916.7344 483.2969,916.7344 Q483.6719,916.7344 483.9063,917 Q484.1406,917.2656 484.1406,917.875 L484.1406,920.5 L476.1406,920.5 Q475.5156,920.5 475.25,920.2656 Q475,920.0313 475,919.6406 Q475,919.2656 475.2656,919.0313 Q475.5313,918.7969 476.1406,918.7969 L476.4063,918.7969 L476.4063,912.1406 L476.1406,912.1406 Q475.5156,912.1406 475.25,911.9063 Q475,911.6719 475,911.2813 Q475,910.9063 475.25,910.6719 Q475.5156,910.4375 476.1406,910.4375 L483.7656,910.4375 L483.7656,913.0313 Q483.7656,913.6406 483.5313,913.9063 Q483.3125,914.1563 482.9219,914.1563 Q482.5469,914.1563 482.3125,913.9063 Q482.0781,913.6406 482.0781,913.0313 L482.0781,912.1406 L478.1094,912.1406 L478.1094,914.5938 L479.5938,914.5938 Q479.5938,913.9375 479.7188,913.75 Q479.9844,913.3438 480.4531,913.3438 Q480.8281,913.3438 481.0625,913.6094 Q481.2969,913.8594 481.2969,914.4688 L481.2969,916.4375 Q481.2969,916.9844 481.1719,917.1719 Q480.9063,917.5625 480.4531,917.5625 Q479.9844,917.5625 479.7188,917.1563 Q479.5938,916.9688 479.5938,916.2969 L478.1094,916.2969 Z " fill="#000000"/><text fill="#000000" font-family="sans-serif" font-size="14" lengthAdjust="spacing" textLength="68" x="499.75" y="921.2969">Authorship</text><line style="stroke:#181818;stroke-width:0.5;" x1="411" x2="624" y1="931.5" y2="931.5"/><text fill="#000000" font-family="sans-serif" font-size="14" lengthAdjust="spacing" textLength="150" x="416" y="950.6074">order_number : number</text><text fill="#000000" font-family="sans-serif" font-size="14" lengthAdjust="spacing" textLength="203" x="416" y="969.2285">corresponding_author : boolean</text><text fill="#000000" font-family="sans-serif" font-size="14" lengthAdjust="spacing" textLength="170" x="416" y="987.8496">display_author_name : text</text><line style="stroke:#181818;stroke-width:1.0;" x1="411" x2="624" y1="995.3633" y2="995.3633"/><text fill="#000000" font-family="sans-serif" font-size="14" lengthAdjust="spacing" textLength="161" x="416" y="1014.4707">person_id : number &#171;FK&#187;</text><text fill="#000000" font-family="sans-serif" font-size="14" lengthAdjust="spacing" textLength="179" x="416" y="1033.0918">document_id : number &#171;FK&#187;</text></g><!--class Journal--><g id="elem_Journal"><rect codeLine="116" fill="#F1F1F1" height="149.1055" id="Journal" rx="2.5" ry="2.5" style="stroke:#181818;stroke-width:0.5;" width="304" x="793.5" y="7"/><ellipse cx="918.25" cy="23" fill="#ADD1B2" rx="11" ry="11" style="stroke:#181818;stroke-width:1.0;"/><path d="M917.1094,23.7969 L917.1094,26.2969 L921.4375,26.2969 L921.4375,25.375 Q921.4375,24.7656 921.6719,24.5 Q921.9219,24.2344 922.2969,24.2344 Q922.6719,24.2344 922.9063,24.5 Q923.1406,24.7656 923.1406,25.375 L923.1406,28 L915.1406,28 Q914.5156,28 914.25,27.7656 Q914,27.5313 914,27.1406 Q914,26.7656 914.2656,26.5313 Q914.5313,26.2969 915.1406,26.2969 L915.4063,26.2969 L915.4063,19.6406 L915.1406,19.6406 Q914.5156,19.6406 914.25,19.4063 Q914,19.1719 914,18.7813 Q914,18.4063 914.25,18.1719 Q914.5156,17.9375 915.1406,17.9375 L922.7656,17.9375 L922.7656,20.5313 Q922.7656,21.1406 922.5313,21.4063 Q922.3125,21.6563 921.9219,21.6563 Q921.5469,21.6563 921.3125,21.4063 Q921.0781,21.1406 921.0781,20.5313 L921.0781,19.6406 L917.1094,19.6406 L917.1094,22.0938 L918.5938,22.0938 Q918.5938,21.4375 918.7188,21.25 Q918.9844,20.8438 919.4531,20.8438 Q919.8281,20.8438 920.0625,21.1094 Q920.2969,21.3594 920.2969,21.9688 L920.2969,23.9375 Q920.2969,24.4844 920.1719,24.6719 Q919.9063,25.0625 919.4531,25.0625 Q918.9844,25.0625 918.7188,24.6563 Q918.5938,24.4688 918.5938,23.7969 L917.1094,23.7969 Z " fill="#000000"/><text fill="#000000" font-family="sans-serif" font-size="14" lengthAdjust="spacing" textLength="46" x="938.75" y="28.7969">Journal</text><line style="stroke:#181818;stroke-width:0.5;" x1="794.5" x2="1096.5" y1="39" y2="39"/><text fill="#000000" font-family="sans-serif" font-size="14" lengthAdjust="spacing" textLength="207" x="799.5" y="58.1074">journal_id : number &#171;generated&#187;</text><line style="stroke:#181818;stroke-width:1.0;" x1="794.5" x2="1096.5" y1="65.6211" y2="65.6211"/><text fill="#000000" font-family="sans-serif" font-size="14" lengthAdjust="spacing" textLength="56" x="799.5" y="84.7285">title : text</text><text fill="#000000" font-family="sans-serif" font-size="14" lengthAdjust="spacing" textLength="112" x="799.5" y="103.3496">abbreviation : text</text><text fill="#000000" font-family="sans-serif" font-size="14" lengthAdjust="spacing" textLength="59" x="799.5" y="121.9707">issn : text</text><line style="stroke:#181818;stroke-width:1.0;" x1="794.5" x2="1096.5" y1="129.4844" y2="129.4844"/><text fill="#000000" font-family="sans-serif" font-size="14" lengthAdjust="spacing" textLength="292" x="799.5" y="148.5918">publisher_organisation_unit_id : number &#171;FK&#187;</text></g><!--class Event--><g id="elem_Event"><rect codeLine="130" fill="#F1F1F1" height="167.7266" id="Event" rx="2.5" ry="2.5" style="stroke:#181818;stroke-width:0.5;" width="211" x="689" y="621"/><ellipse cx="772.25" cy="637" fill="#ADD1B2" rx="11" ry="11" style="stroke:#181818;stroke-width:1.0;"/><path d="M771.1094,637.7969 L771.1094,640.2969 L775.4375,640.2969 L775.4375,639.375 Q775.4375,638.7656 775.6719,638.5 Q775.9219,638.2344 776.2969,638.2344 Q776.6719,638.2344 776.9063,638.5 Q777.1406,638.7656 777.1406,639.375 L777.1406,642 L769.1406,642 Q768.5156,642 768.25,641.7656 Q768,641.5313 768,641.1406 Q768,640.7656 768.2656,640.5313 Q768.5313,640.2969 769.1406,640.2969 L769.4063,640.2969 L769.4063,633.6406 L769.1406,633.6406 Q768.5156,633.6406 768.25,633.4063 Q768,633.1719 768,632.7813 Q768,632.4063 768.25,632.1719 Q768.5156,631.9375 769.1406,631.9375 L776.7656,631.9375 L776.7656,634.5313 Q776.7656,635.1406 776.5313,635.4063 Q776.3125,635.6563 775.9219,635.6563 Q775.5469,635.6563 775.3125,635.4063 Q775.0781,635.1406 775.0781,634.5313 L775.0781,633.6406 L771.1094,633.6406 L771.1094,636.0938 L772.5938,636.0938 Q772.5938,635.4375 772.7188,635.25 Q772.9844,634.8438 773.4531,634.8438 Q773.8281,634.8438 774.0625,635.1094 Q774.2969,635.3594 774.2969,635.9688 L774.2969,637.9375 Q774.2969,638.4844 774.1719,638.6719 Q773.9063,639.0625 773.4531,639.0625 Q772.9844,639.0625 772.7188,638.6563 Q772.5938,638.4688 772.5938,637.7969 L771.1094,637.7969 Z " fill="#000000"/><text fill="#000000" font-family="sans-serif" font-size="14" lengthAdjust="spacing" textLength="36" x="792.75" y="642.7969">Event</text><line style="stroke:#181818;stroke-width:0.5;" x1="690" x2="899" y1="653" y2="653"/><text fill="#000000" font-family="sans-serif" font-size="14" lengthAdjust="spacing" textLength="199" x="695" y="672.1074">event_id : number &#171;generated&#187;</text><line style="stroke:#181818;stroke-width:1.0;" x1="690" x2="899" y1="679.6211" y2="679.6211"/><text fill="#000000" font-family="sans-serif" font-size="14" lengthAdjust="spacing" textLength="69" x="695" y="698.7285">name : text</text><text fill="#000000" font-family="sans-serif" font-size="14" lengthAdjust="spacing" textLength="112" x="695" y="717.3496">abbreviation : text</text><text fill="#000000" font-family="sans-serif" font-size="14" lengthAdjust="spacing" textLength="130" x="695" y="735.9707">start_date : datetime</text><text fill="#000000" font-family="sans-serif" font-size="14" lengthAdjust="spacing" textLength="126" x="695" y="754.5918">end_date : datetime</text><line style="stroke:#181818;stroke-width:1.0;" x1="690" x2="899" y1="762.1055" y2="762.1055"/><text fill="#000000" font-family="sans-serif" font-size="14" lengthAdjust="spacing" textLength="190" x="695" y="781.2129">geolocation_id : number &#171;FK&#187;</text></g><!--class Grant--><g id="elem_Grant"><rect codeLine="145" fill="#F1F1F1" height="223.5898" id="Grant" rx="2.5" ry="2.5" style="stroke:#181818;stroke-width:0.5;" width="323" x="935" y="593"/><ellipse cx="1074.25" cy="609" fill="#ADD1B2" rx="11" ry="11" style="stroke:#181818;stroke-width:1.0;"/><path d="M1073.1094,609.7969 L1073.1094,612.2969 L1077.4375,612.2969 L1077.4375,611.375 Q1077.4375,610.7656 1077.6719,610.5 Q1077.9219,610.2344 1078.2969,610.2344 Q1078.6719,610.2344 1078.9063,610.5 Q1079.1406,610.7656 1079.1406,611.375 L1079.1406,614 L1071.1406,614 Q1070.5156,614 1070.25,613.7656 Q1070,613.5313 1070,613.1406 Q1070,612.7656 1070.2656,612.5313 Q1070.5313,612.2969 1071.1406,612.2969 L1071.4063,612.2969 L1071.4063,605.6406 L1071.1406,605.6406 Q1070.5156,605.6406 1070.25,605.4063 Q1070,605.1719 1070,604.7813 Q1070,604.4063 1070.25,604.1719 Q1070.5156,603.9375 1071.1406,603.9375 L1078.7656,603.9375 L1078.7656,606.5313 Q1078.7656,607.1406 1078.5313,607.4063 Q1078.3125,607.6563 1077.9219,607.6563 Q1077.5469,607.6563 1077.3125,607.4063 Q1077.0781,607.1406 1077.0781,606.5313 L1077.0781,605.6406 L1073.1094,605.6406 L1073.1094,608.0938 L1074.5938,608.0938 Q1074.5938,607.4375 1074.7188,607.25 Q1074.9844,606.8438 1075.4531,606.8438 Q1075.8281,606.8438 1076.0625,607.1094 Q1076.2969,607.3594 1076.2969,607.9688 L1076.2969,609.9375 Q1076.2969,610.4844 1076.1719,610.6719 Q1075.9063,611.0625 1075.4531,611.0625 Q1074.9844,611.0625 1074.7188,610.6563 Q1074.5938,610.4688 1074.5938,609.7969 L1073.1094,609.7969 Z " fill="#000000"/><text fill="#000000" font-family="sans-serif" font-size="14" lengthAdjust="spacing" textLength="36" x="1094.75" y="614.7969">Grant</text><line style="stroke:#181818;stroke-width:0.5;" x1="936" x2="1257" y1="625" y2="625"/><text fill="#000000" font-family="sans-serif" font-size="14" lengthAdjust="spacing" textLength="197" x="941" y="644.1074">grant_id : number &#171;generated&#187;</text><line style="stroke:#181818;stroke-width:1.0;" x1="936" x2="1257" y1="651.6211" y2="651.6211"/><text fill="#000000" font-family="sans-serif" font-size="14" lengthAdjust="spacing" textLength="69" x="941" y="670.7285">name : text</text><text fill="#000000" font-family="sans-serif" font-size="14" lengthAdjust="spacing" textLength="88" x="941" y="689.3496">identifier : text</text><text fill="#000000" font-family="sans-serif" font-size="14" lengthAdjust="spacing" textLength="124" x="941" y="707.9707">start_year : number</text><text fill="#000000" font-family="sans-serif" font-size="14" lengthAdjust="spacing" textLength="120" x="941" y="726.5918">end_year : number</text><text fill="#000000" font-family="sans-serif" font-size="14" lengthAdjust="spacing" textLength="162" x="941" y="745.2129">total_award_amount : text</text><line style="stroke:#181818;stroke-width:1.0;" x1="936" x2="1257" y1="752.7266" y2="752.7266"/><text fill="#000000" font-family="sans-serif" font-size="14" lengthAdjust="spacing" textLength="311" x="941" y="771.834">awarded_by_organisation_unit_id : number &#171;FK&#187;</text><text fill="#000000" font-family="sans-serif" font-size="14" lengthAdjust="spacing" textLength="190" x="941" y="790.4551">geolocation_id : number &#171;FK&#187;</text><text fill="#000000" font-family="sans-serif" font-size="14" lengthAdjust="spacing" textLength="203" x="941" y="809.0762">part_of_grant_id : number &#171;FK&#187;</text></g><!--class Investigatorship--><g id="elem_Investigatorship"><rect codeLine="164" fill="#F1F1F1" height="103.8633" id="Investigatorship" rx="2.5" ry="2.5" style="stroke:#181818;stroke-width:0.5;" width="173" x="267" y="322.5"/><ellipse cx="300.9" cy="338.5" fill="#ADD1B2" rx="11" ry="11" style="stroke:#181818;stroke-width:1.0;"/><path d="M299.7594,339.2969 L299.7594,341.7969 L304.0875,341.7969 L304.0875,340.875 Q304.0875,340.2656 304.3219,340 Q304.5719,339.7344 304.9469,339.7344 Q305.3219,339.7344 305.5563,340 Q305.7906,340.2656 305.7906,340.875 L305.7906,343.5 L297.7906,343.5 Q297.1656,343.5 296.9,343.2656 Q296.65,343.0313 296.65,342.6406 Q296.65,342.2656 296.9156,342.0313 Q297.1813,341.7969 297.7906,341.7969 L298.0563,341.7969 L298.0563,335.1406 L297.7906,335.1406 Q297.1656,335.1406 296.9,334.9063 Q296.65,334.6719 296.65,334.2813 Q296.65,333.9063 296.9,333.6719 Q297.1656,333.4375 297.7906,333.4375 L305.4156,333.4375 L305.4156,336.0313 Q305.4156,336.6406 305.1813,336.9063 Q304.9625,337.1563 304.5719,337.1563 Q304.1969,337.1563 303.9625,336.9063 Q303.7281,336.6406 303.7281,336.0313 L303.7281,335.1406 L299.7594,335.1406 L299.7594,337.5938 L301.2438,337.5938 Q301.2438,336.9375 301.3688,336.75 Q301.6344,336.3438 302.1031,336.3438 Q302.4781,336.3438 302.7125,336.6094 Q302.9469,336.8594 302.9469,337.4688 L302.9469,339.4375 Q302.9469,339.9844 302.8219,340.1719 Q302.5563,340.5625 302.1031,340.5625 Q301.6344,340.5625 301.3688,340.1563 Q301.2438,339.9688 301.2438,339.2969 L299.7594,339.2969 Z " fill="#000000"/><text fill="#000000" font-family="sans-serif" font-size="14" lengthAdjust="spacing" textLength="99" x="319.1" y="344.2969">Investigatorship</text><line style="stroke:#181818;stroke-width:0.5;" x1="268" x2="439" y1="354.5" y2="354.5"/><text fill="#000000" font-family="sans-serif" font-size="14" lengthAdjust="spacing" textLength="93" x="273" y="373.6074">role_type : text</text><line style="stroke:#181818;stroke-width:1.0;" x1="268" x2="439" y1="381.1211" y2="381.1211"/><text fill="#000000" font-family="sans-serif" font-size="14" lengthAdjust="spacing" textLength="161" x="273" y="400.2285">person_id : number &#171;FK&#187;</text><text fill="#000000" font-family="sans-serif" font-size="14" lengthAdjust="spacing" textLength="150" x="273" y="418.8496">grant_id : number &#171;FK&#187;</text></g><!--link Geolocation to Geolocation--><g id="link_Geolocation_Geolocation"><path codeLine="9" d="M1235.7935,1143.0814 C1256.3935,1148.1014 1256,1156.37 1256,1175 C1256,1193.63 1259.3082,1201.1883 1238.7082,1206.2083 " fill="none" id="Geolocation-Geolocation" style="stroke:#181818;stroke-width:1.0;"/><line style="stroke:#181818;stroke-width:1.0;" x1="1231.9072" x2="1221.22" y1="1142.1344" y2="1139.53"/><ellipse cx="1231.9072" cy="1142.1344" fill="none" rx="4" ry="4" style="stroke:#181818;stroke-width:1.0;"/><line style="stroke:#181818;stroke-width:1.0;" x1="1224.1592" x2="1226.0533" y1="1144.3633" y2="1136.5908"/><line style="stroke:#181818;stroke-width:1.0;" x1="1228.9925" x2="1222.6406" y1="1208.5759" y2="1216.2994"/><line style="stroke:#181818;stroke-width:1.0;" x1="1228.9925" x2="1219.7994" y1="1208.5759" y2="1204.6406"/><line style="stroke:#181818;stroke-width:1.0;" x1="1228.9925" x2="1221.22" y1="1208.5759" y2="1210.47"/><ellipse cx="1234.822" cy="1207.1553" fill="none" rx="4" ry="4" style="stroke:#181818;stroke-width:1.0;"/></g><!--link ResearchArea to ResearchArea--><g id="link_ResearchArea_ResearchArea"><path codeLine="20" d="M943.6555,938.7339 C964.4155,944.0239 964,951.97 964,970 C964,988.03 967.3226,995.2353 946.5626,1000.5253 " fill="none" id="ResearchArea-ResearchArea" style="stroke:#181818;stroke-width:1.0;"/><line style="stroke:#181818;stroke-width:1.0;" x1="939.7794" x2="929.12" y1="937.7462" y2="935.03"/><ellipse cx="939.7794" cy="937.7462" fill="none" rx="4" ry="4" style="stroke:#181818;stroke-width:1.0;"/><line style="stroke:#181818;stroke-width:1.0;" x1="932.0084" x2="933.9838" y1="939.8938" y2="932.1416"/><line style="stroke:#181818;stroke-width:1.0;" x1="936.8723" x2="930.6016" y1="1002.9946" y2="1010.7842"/><line style="stroke:#181818;stroke-width:1.0;" x1="936.8723" x2="927.6384" y1="1002.9946" y2="999.1558"/><line style="stroke:#181818;stroke-width:1.0;" x1="936.8723" x2="929.12" y1="1002.9946" y2="1004.97"/><ellipse cx="942.6865" cy="1001.513" fill="none" rx="4" ry="4" style="stroke:#181818;stroke-width:1.0;"/></g><!--link Person to Advisorship--><g id="link_Person_Advisorship"><path codeLine="39" d="M269.4958,806.9626 C262.4358,849.1026 260.2797,866.2007 257.9397,902.7007 " fill="none" id="Person-Advisorship" style="stroke:#181818;stroke-width:1.0;"/><line style="stroke:#181818;stroke-width:1.0;" x1="271.1481" x2="266.5525" y1="797.1" y2="788.2186"/><line style="stroke:#181818;stroke-width:1.0;" x1="271.1481" x2="278.3875" y1="797.1" y2="790.2014"/><line style="stroke:#181818;stroke-width:1.0;" x1="271.1481" x2="272.47" y1="797.1" y2="789.21"/><ellipse cx="270.1567" cy="803.0176" fill="none" rx="4" ry="4" style="stroke:#181818;stroke-width:1.0;"/><line style="stroke:#181818;stroke-width:1.0;" x1="257.6838" x2="256.98" y1="906.6925" y2="917.67"/><ellipse cx="257.6838" cy="906.6925" fill="none" rx="4" ry="4" style="stroke:#181818;stroke-width:1.0;"/><line style="stroke:#181818;stroke-width:1.0;" x1="261.2277" x2="253.2441" y1="913.9341" y2="913.4223"/></g><!--link Person to Advisorship--><g id="link_Person_Advisorship"><path codeLine="40" d="M295.3496,807.1266 C291.2796,849.2666 288.8507,866.4794 281.3207,902.9794 " fill="none" id="Person-Advisorship-1" style="stroke:#181818;stroke-width:1.0;"/><line style="stroke:#181818;stroke-width:1.0;" x1="296.3109" x2="291.1078" y1="797.1729" y2="788.6332"/><line style="stroke:#181818;stroke-width:1.0;" x1="296.3109" x2="303.0522" y1="797.1729" y2="789.7868"/><line style="stroke:#181818;stroke-width:1.0;" x1="296.3109" x2="297.08" y1="797.1729" y2="789.21"/><ellipse cx="295.7341" cy="803.1452" fill="none" rx="4" ry="4" style="stroke:#181818;stroke-width:1.0;"/><line style="stroke:#181818;stroke-width:1.0;" x1="280.5125" x2="278.29" y1="906.8969" y2="917.67"/><ellipse cx="280.5125" cy="906.8969" fill="none" rx="4" ry="4" style="stroke:#181818;stroke-width:1.0;"/><line style="stroke:#181818;stroke-width:1.0;" x1="283.0157" x2="275.1807" y1="914.5607" y2="912.9443"/></g><!--link Person to ResearchArea--><g id="link_Person_ResearchArea"><path codeLine="42" d="M420.9517,792.0408 C441.0617,804.4108 446.88,806.99 467.5,817 C541.48,852.89 568.01,842.18 642.5,877 C659.96,885.16 662.3685,885.8353 679.5985,895.7753 " fill="none" id="Person-ResearchArea" style="stroke:#181818;stroke-width:1.0;"/><line style="stroke:#181818;stroke-width:1.0;" x1="412.4341" x2="402.4764" y1="786.8015" y2="787.7206"/><line style="stroke:#181818;stroke-width:1.0;" x1="412.4341" x2="408.7636" y1="786.8015" y2="777.4994"/><line style="stroke:#181818;stroke-width:1.0;" x1="412.4341" x2="405.62" y1="786.8015" y2="782.61"/><ellipse cx="417.5446" cy="789.945" fill="none" rx="4" ry="4" style="stroke:#181818;stroke-width:1.0;"/><line style="stroke:#181818;stroke-width:1.0;" x1="688.2604" x2="698.1882" y1="900.7723" y2="899.5728"/><line style="stroke:#181818;stroke-width:1.0;" x1="688.2604" x2="692.1918" y1="900.7723" y2="909.9672"/><line style="stroke:#181818;stroke-width:1.0;" x1="688.2604" x2="695.19" y1="900.7723" y2="904.77"/><ellipse cx="683.0633" cy="897.7741" fill="none" rx="4" ry="4" style="stroke:#181818;stroke-width:1.0;"/></g><!--link Position to Person--><g id="link_Position_Person"><path codeLine="53" d="M160.6075,452.222 C188.0975,503.542 213.3285,550.6342 242.4085,604.9042 " fill="none" id="Position-Person" style="stroke:#181818;stroke-width:1.0;"/><line style="stroke:#181818;stroke-width:1.0;" x1="155.1927" x2="162.2447" y1="450.5847" y2="446.8073"/><line style="stroke:#181818;stroke-width:1.0;" x1="156.6093" x2="163.6613" y1="453.2292" y2="449.4518"/><line style="stroke:#181818;stroke-width:1.0;" x1="160.6075" x2="156.83" y1="452.222" y2="445.17"/><line style="stroke:#181818;stroke-width:1.0;" x1="247.1315" x2="256.1986" y1="613.7185" y2="617.9362"/><line style="stroke:#181818;stroke-width:1.0;" x1="247.1315" x2="245.6214" y1="613.7185" y2="623.6038"/><line style="stroke:#181818;stroke-width:1.0;" x1="247.1315" x2="250.91" y1="613.7185" y2="620.77"/><ellipse cx="244.2977" cy="608.4299" fill="none" rx="4" ry="4" style="stroke:#181818;stroke-width:1.0;"/></g><!--link OrganisationUnit to Geolocation--><g id="link_OrganisationUnit_Geolocation"><path codeLine="67" d="M1202.8452,1073.5898 C1181.2152,1094.0198 1183.0483,1092.283 1163.8983,1110.363 " fill="none" id="OrganisationUnit-Geolocation" style="stroke:#181818;stroke-width:1.0;"/><line style="stroke:#181818;stroke-width:1.0;" x1="1205.7532" x2="1213.75" y1="1070.8432" y2="1063.29"/><ellipse cx="1205.7532" cy="1070.8432" fill="none" rx="4" ry="4" style="stroke:#181818;stroke-width:1.0;"/><line style="stroke:#181818;stroke-width:1.0;" x1="1208.0954" x2="1213.5887" y1="1063.1287" y2="1068.9446"/><line style="stroke:#181818;stroke-width:1.0;" x1="1156.627" x2="1154.929" y1="1117.228" y2="1127.0828"/><line style="stroke:#181818;stroke-width:1.0;" x1="1156.627" x2="1146.691" y1="1117.228" y2="1118.3572"/><line style="stroke:#181818;stroke-width:1.0;" x1="1156.627" x2="1150.81" y1="1117.228" y2="1122.72"/><ellipse cx="1160.9898" cy="1113.109" fill="none" rx="4" ry="4" style="stroke:#181818;stroke-width:1.0;"/></g><!--link OrganisationUnit to OrganisationUnit--><g id="link_OrganisationUnit_OrganisationUnit"><path codeLine="68" d="M1468.7649,939.3119 C1489.5249,944.7819 1489,952.47 1489,970 C1489,987.53 1492.4259,994.4538 1471.6659,999.9238 " fill="none" id="OrganisationUnit-OrganisationUnit" style="stroke:#181818;stroke-width:1.0;"/><line style="stroke:#181818;stroke-width:1.0;" x1="1464.897" x2="1454.26" y1="938.2927" y2="935.49"/><ellipse cx="1464.897" cy="938.2927" fill="none" rx="4" ry="4" style="stroke:#181818;stroke-width:1.0;"/><line style="stroke:#181818;stroke-width:1.0;" x1="1457.1088" x2="1459.1471" y1="940.3771" y2="932.6412"/><line style="stroke:#181818;stroke-width:1.0;" x1="1461.996" x2="1455.7887" y1="1002.4717" y2="1010.312"/><line style="stroke:#181818;stroke-width:1.0;" x1="1461.996" x2="1452.7313" y1="1002.4717" y2="998.708"/><line style="stroke:#181818;stroke-width:1.0;" x1="1461.996" x2="1454.26" y1="1002.4717" y2="1004.51"/><ellipse cx="1467.7979" cy="1000.9429" fill="none" rx="4" ry="4" style="stroke:#181818;stroke-width:1.0;"/></g><!--link Document to ResearchArea--><g id="link_Document_ResearchArea"><path codeLine="99" d="M778.7324,469.2314 C730.6624,503.9114 697.85,538.45 671.5,593 C628.2,682.65 638.28,723.15 671.5,817 C682.94,849.32 692.6523,866.2489 714.5623,891.3089 " fill="none" id="Document-ResearchArea" style="stroke:#181818;stroke-width:1.0;"/><line style="stroke:#181818;stroke-width:1.0;" x1="786.8422" x2="789.8195" y1="463.3806" y2="453.8341"/><line style="stroke:#181818;stroke-width:1.0;" x1="786.8422" x2="796.8405" y1="463.3806" y2="463.5659"/><line style="stroke:#181818;stroke-width:1.0;" x1="786.8422" x2="793.33" y1="463.3806" y2="458.7"/><ellipse cx="781.9763" cy="466.8911" fill="none" rx="4" ry="4" style="stroke:#181818;stroke-width:1.0;"/><line style="stroke:#181818;stroke-width:1.0;" x1="721.1443" x2="730.927" y1="898.8373" y2="900.9108"/><line style="stroke:#181818;stroke-width:1.0;" x1="721.1443" x2="721.893" y1="898.8373" y2="908.8092"/><line style="stroke:#181818;stroke-width:1.0;" x1="721.1443" x2="726.41" y1="898.8373" y2="904.86"/><ellipse cx="717.1951" cy="894.3203" fill="none" rx="4" ry="4" style="stroke:#181818;stroke-width:1.0;"/></g><!--link Document to Citations--><g id="link_Document_Citations"><path codeLine="100" d="M1113.7646,456.11 C1192.6346,495.73 1273.3,539.46 1355.5,593 C1377.17,607.11 1393.3161,618.8016 1413.7461,634.8316 " fill="none" id="Document-Citations" style="stroke:#181818;stroke-width:1.0;"/><line style="stroke:#181818;stroke-width:1.0;" x1="1104.8287" x2="1094.9867" y1="451.6211" y2="453.3915"/><line style="stroke:#181818;stroke-width:1.0;" x1="1104.8287" x2="1100.3733" y1="451.6211" y2="442.6685"/><line style="stroke:#181818;stroke-width:1.0;" x1="1104.8287" x2="1097.68" y1="451.6211" y2="448.03"/><ellipse cx="1110.1902" cy="454.3145" fill="none" rx="4" ry="4" style="stroke:#181818;stroke-width:1.0;"/><line style="stroke:#181818;stroke-width:1.0;" x1="1419.3622" x2="1414.4239" y1="634.1539" y2="640.4478"/><line style="stroke:#181818;stroke-width:1.0;" x1="1417.002" x2="1412.0637" y1="632.302" y2="638.5959"/><line style="stroke:#181818;stroke-width:1.0;" x1="1413.7461" x2="1420.04" y1="634.8316" y2="639.77"/></g><!--link Document to Document--><g id="link_Document_Document"><path codeLine="101" d="M1111.7333,331.2183 C1132.5733,339.3083 1132.5,350.12 1132.5,374.5 C1132.5,398.88 1135.37,408.6061 1114.53,416.6961 " fill="none" id="Document-Document" style="stroke:#181818;stroke-width:1.0;"/><line style="stroke:#181818;stroke-width:1.0;" x1="1108.0045" x2="1097.75" y1="329.7707" y2="325.79"/><ellipse cx="1108.0045" cy="329.7707" fill="none" rx="4" ry="4" style="stroke:#181818;stroke-width:1.0;"/><line style="stroke:#181818;stroke-width:1.0;" x1="1100.0314" x2="1102.9264" y1="330.9664" y2="323.5086"/><line style="stroke:#181818;stroke-width:1.0;" x1="1105.2078" x2="1099.9213" y1="420.3149" y2="428.8033"/><line style="stroke:#181818;stroke-width:1.0;" x1="1105.2078" x2="1095.5787" y1="420.3149" y2="417.6167"/><line style="stroke:#181818;stroke-width:1.0;" x1="1105.2078" x2="1097.75" y1="420.3149" y2="423.21"/><ellipse cx="1110.8011" cy="418.1436" fill="none" rx="4" ry="4" style="stroke:#181818;stroke-width:1.0;"/></g><!--link Document to OrganisationUnit--><g id="link_Document_OrganisationUnit"><path codeLine="102" d="M1111.3604,437.8368 C1183.6304,472.6968 1250.01,518.77 1293.5,593 C1343.97,679.13 1343.0362,778.5029 1332.1262,859.0429 " fill="none" id="Document-OrganisationUnit" style="stroke:#181818;stroke-width:1.0;"/><line style="stroke:#181818;stroke-width:1.0;" x1="1107.7576" x2="1097.85" y1="436.099" y2="431.32"/><ellipse cx="1107.7576" cy="436.099" fill="none" rx="4" ry="4" style="stroke:#181818;stroke-width:1.0;"/><line style="stroke:#181818;stroke-width:1.0;" x1="1099.7149" x2="1103.1906" y1="436.6606" y2="429.4551"/><line style="stroke:#181818;stroke-width:1.0;" x1="1330.7839" x2="1335.6557" y1="868.9524" y2="877.6854"/><line style="stroke:#181818;stroke-width:1.0;" x1="1330.7839" x2="1323.7643" y1="868.9524" y2="876.0746"/><line style="stroke:#181818;stroke-width:1.0;" x1="1330.7839" x2="1329.71" y1="868.9524" y2="876.88"/><ellipse cx="1331.5893" cy="863.0067" fill="none" rx="4" ry="4" style="stroke:#181818;stroke-width:1.0;"/></g><!--link Person to Authorship--><g id="link_Person_Authorship"><path codeLine="113" d="M377.3492,802.966 C407.1992,838.336 420.3337,853.8984 448.8437,887.6684 " fill="none" id="Person-Authorship" style="stroke:#181818;stroke-width:1.0;"/><line style="stroke:#181818;stroke-width:1.0;" x1="370.8996" x2="361.1547" y1="795.3238" y2="793.0797"/><line style="stroke:#181818;stroke-width:1.0;" x1="370.8996" x2="370.3253" y1="795.3238" y2="785.3403"/><line style="stroke:#181818;stroke-width:1.0;" x1="370.8996" x2="365.74" y1="795.3238" y2="789.21"/><ellipse cx="374.7694" cy="799.9091" fill="none" rx="4" ry="4" style="stroke:#181818;stroke-width:1.0;"/><line style="stroke:#181818;stroke-width:1.0;" x1="451.424" x2="458.52" y1="890.7248" y2="899.13"/><ellipse cx="451.424" cy="890.7248" fill="none" rx="4" ry="4" style="stroke:#181818;stroke-width:1.0;"/><line style="stroke:#181818;stroke-width:1.0;" x1="458.9961" x2="452.8832" y1="893.4932" y2="898.6539"/></g><!--link Document to Authorship--><g id="link_Document_Authorship"><path codeLine="114" d="M778.0982,463.7029 C721.6482,499.4129 676.64,536.75 635.5,593 C567.64,685.77 539.2432,810.8025 526.9032,891.2325 " fill="none" id="Document-Authorship" style="stroke:#181818;stroke-width:1.0;"/><line style="stroke:#181818;stroke-width:1.0;" x1="786.5492" x2="790.1024" y1="458.3569" y2="449.0094"/><line style="stroke:#181818;stroke-width:1.0;" x1="786.5492" x2="796.5176" y1="458.3569" y2="459.1506"/><line style="stroke:#181818;stroke-width:1.0;" x1="786.5492" x2="793.31" y1="458.3569" y2="454.08"/><ellipse cx="781.4786" cy="461.5645" fill="none" rx="4" ry="4" style="stroke:#181818;stroke-width:1.0;"/><line style="stroke:#181818;stroke-width:1.0;" x1="530.2503" x2="522.3429" y1="895.7929" y2="894.5797"/><line style="stroke:#181818;stroke-width:1.0;" x1="530.7053" x2="522.7978" y1="892.8276" y2="891.6144"/><line style="stroke:#181818;stroke-width:1.0;" x1="526.9032" x2="525.69" y1="891.2325" y2="899.14"/></g><!--link Journal to ResearchArea--><g id="link_Journal_ResearchArea"><path codeLine="126" d="M820.2993,167.736 C799.1493,185.446 792.47,194.1 776.5,216 C671.1,360.54 667.34,416.97 635.5,593 C617.78,690.97 596.37,725.46 635.5,817 C649.98,850.89 662.7303,868.8125 689.7003,892.9625 " fill="none" id="Journal-ResearchArea" style="stroke:#181818;stroke-width:1.0;"/><line style="stroke:#181818;stroke-width:1.0;" x1="827.9664" x2="830.248" y1="161.316" y2="151.5798"/><line style="stroke:#181818;stroke-width:1.0;" x1="827.9664" x2="837.952" y1="161.316" y2="160.7802"/><line style="stroke:#181818;stroke-width:1.0;" x1="827.9664" x2="834.1" y1="161.316" y2="156.18"/><ellipse cx="823.3661" cy="165.168" fill="none" rx="4" ry="4" style="stroke:#181818;stroke-width:1.0;"/><line style="stroke:#181818;stroke-width:1.0;" x1="697.1502" x2="707.1125" y1="899.6333" y2="900.5001"/><line style="stroke:#181818;stroke-width:1.0;" x1="697.1502" x2="699.1075" y1="899.6333" y2="909.4399"/><line style="stroke:#181818;stroke-width:1.0;" x1="697.1502" x2="703.11" y1="899.6333" y2="904.97"/><ellipse cx="692.6803" cy="895.6308" fill="none" rx="4" ry="4" style="stroke:#181818;stroke-width:1.0;"/></g><!--link Journal to OrganisationUnit--><g id="link_Journal_OrganisationUnit"><path codeLine="127" d="M1111.4036,151.6129 C1277.0436,229.2029 1519.17,372.3 1628.5,593 C1672.69,682.21 1681.54,732.75 1628.5,817 C1589.97,878.21 1536.2209,909.4935 1471.3009,931.7035 " fill="none" id="Journal-OrganisationUnit" style="stroke:#181818;stroke-width:1.0;"/><line style="stroke:#181818;stroke-width:1.0;" x1="1107.7813" x2="1097.82" y1="149.9161" y2="145.25"/><ellipse cx="1107.7813" cy="149.9161" fill="none" rx="4" ry="4" style="stroke:#181818;stroke-width:1.0;"/><line style="stroke:#181818;stroke-width:1.0;" x1="1099.7455" x2="1103.1391" y1="150.5691" y2="143.3245"/><line style="stroke:#181818;stroke-width:1.0;" x1="1461.8393" x2="1456.2122" y1="934.9404" y2="943.207"/><line style="stroke:#181818;stroke-width:1.0;" x1="1461.8393" x2="1452.3278" y1="934.9404" y2="931.853"/><line style="stroke:#181818;stroke-width:1.0;" x1="1461.8393" x2="1454.27" y1="934.9404" y2="937.53"/><ellipse cx="1467.5163" cy="932.9983" fill="none" rx="4" ry="4" style="stroke:#181818;stroke-width:1.0;"/></g><!--link Journal to Document--><g id="link_Journal_Document"><path codeLine="128" d="M945.5,174.31 C945.5,192.66 945.5,180.04 945.5,200.76 " fill="none" id="Journal-Document" style="stroke:#181818;stroke-width:1.0;"/><line style="stroke:#181818;stroke-width:1.0;" x1="945.5" x2="939.5" y1="164.31" y2="156.31"/><line style="stroke:#181818;stroke-width:1.0;" x1="945.5" x2="951.5" y1="164.31" y2="156.31"/><line style="stroke:#181818;stroke-width:1.0;" x1="945.5" x2="945.5" y1="164.31" y2="156.31"/><ellipse cx="945.5" cy="170.31" fill="none" rx="4" ry="4" style="stroke:#181818;stroke-width:1.0;"/><line style="stroke:#181818;stroke-width:1.0;" x1="945.5" x2="945.5" y1="204.76" y2="215.76"/><ellipse cx="945.5" cy="204.76" fill="none" rx="4" ry="4" style="stroke:#181818;stroke-width:1.0;"/><line style="stroke:#181818;stroke-width:1.0;" x1="949.5" x2="941.5" y1="211.76" y2="211.76"/></g><!--link Event to ResearchArea--><g id="link_Event_ResearchArea"><path codeLine="141" d="M794.5,807.21 C794.5,844.54 794.5,851.88 794.5,886.66 " fill="none" id="Event-ResearchArea" style="stroke:#181818;stroke-width:1.0;"/><line style="stroke:#181818;stroke-width:1.0;" x1="794.5" x2="788.5" y1="797.21" y2="789.21"/><line style="stroke:#181818;stroke-width:1.0;" x1="794.5" x2="800.5" y1="797.21" y2="789.21"/><line style="stroke:#181818;stroke-width:1.0;" x1="794.5" x2="794.5" y1="797.21" y2="789.21"/><ellipse cx="794.5" cy="803.21" fill="none" rx="4" ry="4" style="stroke:#181818;stroke-width:1.0;"/><line style="stroke:#181818;stroke-width:1.0;" x1="794.5" x2="800.5" y1="896.66" y2="904.66"/><line style="stroke:#181818;stroke-width:1.0;" x1="794.5" x2="788.5" y1="896.66" y2="904.66"/><line style="stroke:#181818;stroke-width:1.0;" x1="794.5" x2="794.5" y1="896.66" y2="904.66"/><ellipse cx="794.5" cy="890.66" fill="none" rx="4" ry="4" style="stroke:#181818;stroke-width:1.0;"/></g><!--link Event to Geolocation--><g id="link_Event_Geolocation"><path codeLine="142" d="M900.0347,799.8084 C926.5347,826.1184 943.22,845.91 964.5,877 C1018.69,956.15 1053.3003,1044.1168 1074.3503,1105.7268 " fill="none" id="Event-Geolocation" style="stroke:#181818;stroke-width:1.0;"/><line style="stroke:#181818;stroke-width:1.0;" x1="897.1961" x2="889.39" y1="796.9901" y2="789.24"/><ellipse cx="897.1961" cy="796.9901" fill="none" rx="4" ry="4" style="stroke:#181818;stroke-width:1.0;"/><line style="stroke:#181818;stroke-width:1.0;" x1="889.4104" x2="895.0468" y1="794.8968" y2="789.2196"/><line style="stroke:#181818;stroke-width:1.0;" x1="1077.5835" x2="1085.8477" y1="1115.1897" y2="1120.8201"/><line style="stroke:#181818;stroke-width:1.0;" x1="1077.5835" x2="1074.4923" y1="1115.1897" y2="1124.6999"/><line style="stroke:#181818;stroke-width:1.0;" x1="1077.5835" x2="1080.17" y1="1115.1897" y2="1122.76"/><ellipse cx="1075.6436" cy="1109.5119" fill="none" rx="4" ry="4" style="stroke:#181818;stroke-width:1.0;"/></g><!--link Document to Event--><g id="link_Document_Event"><path codeLine="143" d="M866.8344,546.6387 C852.9044,576.9387 852.6202,577.5662 840.3102,604.3362 " fill="none" id="Document-Event" style="stroke:#181818;stroke-width:1.0;"/><line style="stroke:#181818;stroke-width:1.0;" x1="868.5052" x2="873.1" y1="543.0044" y2="533.01"/><ellipse cx="868.5052" cy="543.0044" fill="none" rx="4" ry="4" style="stroke:#181818;stroke-width:1.0;"/><line style="stroke:#181818;stroke-width:1.0;" x1="867.7948" x2="875.0635" y1="534.9735" y2="538.3152"/><line style="stroke:#181818;stroke-width:1.0;" x1="836.1323" x2="838.2413" y1="613.4216" y2="623.1967"/><line style="stroke:#181818;stroke-width:1.0;" x1="836.1323" x2="827.3387" y1="613.4216" y2="618.1833"/><line style="stroke:#181818;stroke-width:1.0;" x1="836.1323" x2="832.79" y1="613.4216" y2="620.69"/><ellipse cx="838.639" cy="607.9704" fill="none" rx="4" ry="4" style="stroke:#181818;stroke-width:1.0;"/></g><!--link Grant to ResearchArea--><g id="link_Grant_ResearchArea"><path codeLine="159" d="M955.2874,828.9731 C920.9974,858.8431 912.2141,866.4887 881.9341,892.8587 " fill="none" id="Grant-ResearchArea" style="stroke:#181818;stroke-width:1.0;"/><line style="stroke:#181818;stroke-width:1.0;" x1="962.8277" x2="964.919" y1="822.4047" y2="812.6258"/><line style="stroke:#181818;stroke-width:1.0;" x1="962.8277" x2="972.801" y1="822.4047" y2="821.6742"/><line style="stroke:#181818;stroke-width:1.0;" x1="962.8277" x2="968.86" y1="822.4047" y2="817.15"/><ellipse cx="958.3035" cy="826.3457" fill="none" rx="4" ry="4" style="stroke:#181818;stroke-width:1.0;"/><line style="stroke:#181818;stroke-width:1.0;" x1="874.3929" x2="872.3004" y1="899.4261" y2="909.2047"/><line style="stroke:#181818;stroke-width:1.0;" x1="874.3929" x2="864.4196" y1="899.4261" y2="900.1553"/><line style="stroke:#181818;stroke-width:1.0;" x1="874.3929" x2="868.36" y1="899.4261" y2="904.68"/><ellipse cx="878.9176" cy="895.4856" fill="none" rx="4" ry="4" style="stroke:#181818;stroke-width:1.0;"/></g><!--link Grant to OrganisationUnit--><g id="link_Grant_OrganisationUnit"><path codeLine="160" d="M1196.8616,828.7651 C1213.1316,848.6751 1209.0472,843.6743 1224.8172,862.9643 " fill="none" id="Grant-OrganisationUnit" style="stroke:#181818;stroke-width:1.0;"/><line style="stroke:#181818;stroke-width:1.0;" x1="1194.3305" x2="1187.37" y1="825.6677" y2="817.15"/><ellipse cx="1194.3305" cy="825.6677" fill="none" rx="4" ry="4" style="stroke:#181818;stroke-width:1.0;"/><line style="stroke:#181818;stroke-width:1.0;" x1="1186.8037" x2="1192.9984" y1="822.7784" y2="817.7163"/><line style="stroke:#181818;stroke-width:1.0;" x1="1231.1465" x2="1240.8552" y1="870.7063" y2="873.1024"/><line style="stroke:#181818;stroke-width:1.0;" x1="1231.1465" x2="1231.5648" y1="870.7063" y2="880.6976"/><line style="stroke:#181818;stroke-width:1.0;" x1="1231.1465" x2="1236.21" y1="870.7063" y2="876.9"/><ellipse cx="1227.349" cy="866.0611" fill="none" rx="4" ry="4" style="stroke:#181818;stroke-width:1.0;"/></g><!--link Grant to Geolocation--><g id="link_Grant_Geolocation"><path codeLine="161" d="M1096.5,832.21 C1096.5,928.98 1096.5,1031.86 1096.5,1104.85 " fill="none" id="Grant-Geolocation" style="stroke:#181818;stroke-width:1.0;"/><line style="stroke:#181818;stroke-width:1.0;" x1="1096.5" x2="1096.5" y1="828.21" y2="817.21"/><ellipse cx="1096.5" cy="828.21" fill="none" rx="4" ry="4" style="stroke:#181818;stroke-width:1.0;"/><line style="stroke:#181818;stroke-width:1.0;" x1="1092.5" x2="1100.5" y1="821.21" y2="821.21"/><line style="stroke:#181818;stroke-width:1.0;" x1="1096.5" x2="1102.5" y1="1114.85" y2="1122.85"/><line style="stroke:#181818;stroke-width:1.0;" x1="1096.5" x2="1090.5" y1="1114.85" y2="1122.85"/><line style="stroke:#181818;stroke-width:1.0;" x1="1096.5" x2="1096.5" y1="1114.85" y2="1122.85"/><ellipse cx="1096.5" cy="1108.85" fill="none" rx="4" ry="4" style="stroke:#181818;stroke-width:1.0;"/></g><!--link Grant to Grant--><g id="link_Grant_Grant"><path codeLine="162" d="M1272.142,666.5085 C1293.192,673.9985 1293,683.47 1293,705 C1293,726.53 1296.0185,734.9959 1274.9685,742.4859 " fill="none" id="Grant-Grant" style="stroke:#181818;stroke-width:1.0;"/><line style="stroke:#181818;stroke-width:1.0;" x1="1268.3735" x2="1258.01" y1="665.1675" y2="661.48"/><ellipse cx="1268.3735" cy="665.1675" fill="none" rx="4" ry="4" style="stroke:#181818;stroke-width:1.0;"/><line style="stroke:#181818;stroke-width:1.0;" x1="1260.4376" x2="1263.1195" y1="666.5895" y2="659.0524"/><line style="stroke:#181818;stroke-width:1.0;" x1="1265.5471" x2="1260.0214" y1="745.8382" y2="754.1728"/><line style="stroke:#181818;stroke-width:1.0;" x1="1265.5471" x2="1255.9986" y1="745.8382" y2="742.8672"/><line style="stroke:#181818;stroke-width:1.0;" x1="1265.5471" x2="1258.01" y1="745.8382" y2="748.52"/><ellipse cx="1271.1999" cy="743.8268" fill="none" rx="4" ry="4" style="stroke:#181818;stroke-width:1.0;"/></g><!--link Investigatorship to Person--><g id="link_Investigatorship_Person"><path codeLine="171" d="M343.049,434.7081 C333.889,486.5881 324.099,541.994 313.319,603.064 " fill="none" id="Investigatorship-Person" style="stroke:#181818;stroke-width:1.0;"/><line style="stroke:#181818;stroke-width:1.0;" x1="339.8054" x2="347.6836" y1="430.0736" y2="431.4646"/><line style="stroke:#181818;stroke-width:1.0;" x1="339.2838" x2="347.162" y1="433.0279" y2="434.4189"/><line style="stroke:#181818;stroke-width:1.0;" x1="343.049" x2="344.44" y1="434.7081" y2="426.83"/><line style="stroke:#181818;stroke-width:1.0;" x1="311.5807" x2="316.0987" y1="612.9118" y2="621.833"/><line style="stroke:#181818;stroke-width:1.0;" x1="311.5807" x2="304.2813" y1="612.9118" y2="619.747"/><line style="stroke:#181818;stroke-width:1.0;" x1="311.5807" x2="310.19" y1="612.9118" y2="620.79"/><ellipse cx="312.6236" cy="607.0031" fill="none" rx="4" ry="4" style="stroke:#181818;stroke-width:1.0;"/></g><!--link Investigatorship to Grant--><g id="link_Investigatorship_Grant"><path codeLine="172" d="M447.541,410.6681 C594.341,465.6981 873.1,570.92 917.5,593 C923.23,595.85 913.1125,590.3879 918.9125,593.4679 " fill="none" id="Investigatorship-Grant" style="stroke:#181818;stroke-width:1.0;"/><line style="stroke:#181818;stroke-width:1.0;" x1="442.3914" x2="445.1995" y1="413.0095" y2="405.5186"/><line style="stroke:#181818;stroke-width:1.0;" x1="445.2006" x2="448.0086" y1="414.0626" y2="406.5716"/><line style="stroke:#181818;stroke-width:1.0;" x1="447.541" x2="440.05" y1="410.6681" y2="407.86"/><line style="stroke:#181818;stroke-width:1.0;" x1="927.7444" x2="937.624" y1="598.1579" y2="596.6108"/><line style="stroke:#181818;stroke-width:1.0;" x1="927.7444" x2="931.996" y1="598.1579" y2="607.2092"/><line style="stroke:#181818;stroke-width:1.0;" x1="927.7444" x2="934.81" y1="598.1579" y2="601.91"/><ellipse cx="922.4453" cy="595.3439" fill="none" rx="4" ry="4" style="stroke:#181818;stroke-width:1.0;"/></g><!--link Document to Grant--><g id="link_Document_Grant"><path codeLine="174" d="M1025.4159,549.3658 C1034.7259,569.6258 1029.0771,557.3029 1037.9371,576.5929 " fill="none" id="Document-Grant" style="stroke:#181818;stroke-width:1.0;"/><line style="stroke:#181818;stroke-width:1.0;" x1="1021.2404" x2="1012.4481" y1="540.2792" y2="535.5153"/><line style="stroke:#181818;stroke-width:1.0;" x1="1021.2404" x2="1023.3519" y1="540.2792" y2="530.5047"/><line style="stroke:#181818;stroke-width:1.0;" x1="1021.2404" x2="1017.9" y1="540.2792" y2="533.01"/><ellipse cx="1023.7457" cy="545.7312" fill="none" rx="4" ry="4" style="stroke:#181818;stroke-width:1.0;"/><line style="stroke:#181818;stroke-width:1.0;" x1="1042.1109" x2="1050.9024" y1="585.6802" y2="590.4457"/><line style="stroke:#181818;stroke-width:1.0;" x1="1042.1109" x2="1039.9976" y1="585.6802" y2="595.4543"/><line style="stroke:#181818;stroke-width:1.0;" x1="1042.1109" x2="1045.45" y1="585.6802" y2="592.95"/><ellipse cx="1039.6066" cy="580.2278" fill="none" rx="4" ry="4" style="stroke:#181818;stroke-width:1.0;"/></g><!--SRC=[fLRRZjiW47skly8_a1-eLYkjUbcrVMXLgSy8crc7oW4BSDfelV_U0GCsDivwqxmap63FcJE7Gq0ORYxb8yXMrjHmAShdeiHFCqK8P-NxKlId2bHvTzU004KDiFjxj_DmS5-rP83R3FmrRYteAQvVYc9UOP27WtoU5oqA687y10rKrSS71TGZKJv4ACRsOPdNjci6kbQySyLdORzRznqeSgtCvs_uVcmYGUUxcCTY6pz0wKXbvnRxa3znfSqIlZH71BYCjZIpKzMkpBB5JcgU6MNeowD-O6UkfT97tdder4QuQ92TrWtAveYvT4bLEZv7iesw6evcqpCiT6KN8l74lLXkXpcWAvaajJKGJq0OIPwFZQ7W6zgauIK1sb1bo0NBnhUvE0YsYDeM0vHXS7X7z17fTzLGmRLZ-vVWnYEMip3fCNxRIQ1LfU3CwV8eB3jIKcLaj6qAqvJTONeDRHZtgjcCDMpjMSQBIE57MVSd_EsfOtvvux2xlcgvRtezOYRvV3FNLS9hHniWJXwhA8fZ7ZlBjazdnRNkO-2Tx40GMjUWDSOgALkW8ZdZLeFoYMoq6oVa-j77lLDos43qG7xBNWdQRhxNEgX0FWar1CuR22Qt-S3DQ2b-J7LOxrJsc4-6eH5X3HdXNkC44KN1v2maIGx3X7lAU4M6zIgnbcfmtDuS4yELYbchp_HMIuK4Tr8mwyVKFRWG0kEwQ-d59rSNHj39LPT-XQc52qVuAvPcgT3irr4_ljEyclOUoYqVmpEJk-BVg7biD83DAIBajgQRF3jCiWX4V3fFvfGxAF_fvUDjnF056BLVXfyWtaUv-3vxHrP6v3bEnap6lfTdmMsCL3mg6gbexE_RgE3sdmL_ug1kkvQTngH1ET8_LA63dMGlJ4P8BeqMLrtsk-UEMpDuTuw2mFr8LOxxCREbnYGxdqoQi8iubY_Y3DhmXfh4dHHwpUhVtovRkTROgbZwnsWhxH4llNiC_mC0]--></g></svg>